<?xml version="1.0" encoding="UTF-8"?><svg version="1.1" viewBox="0 0 24 24" xmlns="http://www.w3.org/2000/svg" xmlns:xlink="http://www.w3.org/1999/xlink"><!--Generated by IJSVG (https://github.com/iconjar/IJSVG)--><g fill="none"><path d="M0,0h24v24h-24Z"></path><path stroke="#323232" stroke-linecap="round" stroke-linejoin="round" stroke-width="1.5" d="M7.801,10.46c0.159,-0.55 0.645,-0.96 1.246,-0.96c0.728,0 1.319,0.59 1.319,1.319c0,0.652 -0.529,1.181 -1.181,1.181c0.652,0 1.181,0.529 1.181,1.181c0,0.728 -0.59,1.319 -1.319,1.319c-0.601,0 -1.087,-0.41 -1.246,-0.96"></path><path stroke="#323232" stroke-linecap="round" stroke-linejoin="round" stroke-width="1.5" d="M14.275,14.5h-1.409v-5h1.409c1.063,0 1.925,0.862 1.925,1.925v1.151c-0.001,1.062 -0.862,1.924 -1.925,1.924Z"></path><path stroke="#323232" stroke-linecap="round" stroke-linejoin="round" stroke-width="1.5" d="M10.115,5.544l-1.477,-1.478c3.138,-1.328 6.901,-0.719 9.458,1.839c3.108,3.108 3.34,7.995 0.709,11.376"></path><path stroke="#323232" stroke-linecap="round" stroke-linejoin="round" stroke-width="1.5" d="M5.195,6.719c-2.63,3.382 -2.399,8.269 0.709,11.376c2.557,2.557 6.32,3.167 9.458,1.839l-1.478,-1.478"></path></g></svg>