<?xml version="1.0" encoding="UTF-8"?><svg version="1.1" viewBox="0 0 24 24" xmlns="http://www.w3.org/2000/svg" xmlns:xlink="http://www.w3.org/1999/xlink"><!--Generated by IJSVG (https://github.com/iconjar/IJSVG)--><g fill="none"><path d="M0,0h24v24h-24Z"></path><path stroke="#323232" stroke-linecap="round" stroke-linejoin="round" stroke-width="1.5" d="M9.9,14.88h4.2"></path><path stroke="#323232" stroke-linecap="round" stroke-linejoin="round" stroke-width="1.5" d="M19.644,8.167c-4.222,1.278 -11.067,1.278 -15.289,0"></path><path stroke="#323232" stroke-linecap="round" stroke-linejoin="round" stroke-width="1.5" d="M9.896,9.063c0,4.124 0,9.088 -0.958,11.562"></path><path stroke="#323232" stroke-linecap="round" stroke-linejoin="round" stroke-width="1.5" d="M14.104,9.063c0,6.384 0,7.732 0.958,11.562"></path><path stroke="#323232" stroke-linecap="round" stroke-linejoin="round" stroke-width="1.5" d="M13.2374,3.60656c0.683418,0.683418 0.683418,1.79146 0,2.47487c-0.683418,0.683418 -1.79146,0.683418 -2.47487,8.88178e-16c-0.683418,-0.683418 -0.683418,-1.79146 0,-2.47487c0.683418,-0.683418 1.79146,-0.683418 2.47487,-4.44089e-16"></path></g></svg>