<?xml version="1.0" encoding="UTF-8"?><svg version="1.1" viewBox="0 0 24 24" xmlns="http://www.w3.org/2000/svg" xmlns:xlink="http://www.w3.org/1999/xlink"><!--Generated by IJSVG (https://github.com/iconjar/IJSVG)--><g fill="none"><path d="M0,0h24v24h-24v-24Z"></path><path stroke="#323232" stroke-linecap="round" stroke-linejoin="round" stroke-width="1.5" d="M12.44,11.07v2.97"></path><path stroke="#323232" stroke-linecap="round" stroke-linejoin="round" stroke-width="1.5" d="M13.93,12.56h-2.97"></path><path stroke="#323232" stroke-linecap="round" stroke-linejoin="round" stroke-width="1.5" d="M15.5864,9.41362c1.73549,1.73549 1.73549,4.54927 0,6.28476c-1.73549,1.73549 -4.54927,1.73549 -6.28476,0c-1.73549,-1.73549 -1.73549,-4.54927 0,-6.28476c1.73549,-1.73549 4.54927,-1.73549 6.28476,0"></path><path stroke="#323232" stroke-linecap="round" stroke-linejoin="round" stroke-width="1.5" d="M4.32,5h1.36"></path><path stroke="#323232" stroke-linecap="round" stroke-linejoin="round" stroke-width="1.5" d="M11.217,3.217c0.438,-0.062 0.883,-0.106 1.339,-0.106c5.216,0 9.444,4.229 9.444,9.445c0,5.216 -4.228,9.444 -9.444,9.444c-5.216,0 -9.444,-4.228 -9.444,-9.444c0,-0.456 0.043,-0.9 0.106,-1.339"></path><path stroke="#323232" stroke-linecap="round" stroke-linejoin="round" stroke-width="1.5" d="M7.12132,2.87868c1.17157,1.17157 1.17157,3.07107 0,4.24264c-1.17157,1.17157 -3.07107,1.17157 -4.24264,8.88178e-16c-1.17157,-1.17157 -1.17157,-3.07107 0,-4.24264c1.17157,-1.17157 3.07107,-1.17157 4.24264,0"></path></g></svg>