<?xml version="1.0" encoding="UTF-8"?><svg version="1.1" viewBox="0 0 24 24" xmlns="http://www.w3.org/2000/svg" xmlns:xlink="http://www.w3.org/1999/xlink"><!--Generated by IJSVG (https://github.com/iconjar/IJSVG)--><g fill="none"><path d="M0,0h24v24h-24Z"></path><path stroke="#323232" stroke-linecap="round" stroke-linejoin="round" stroke-width="1.5" d="M8.338,19.366l2.888,-3.527c0.4,-0.489 1.147,-0.489 1.547,0l2.888,3.527c0.536,0.653 0.071,1.634 -0.773,1.634h-5.776c-0.844,0 -1.309,-0.981 -0.774,-1.634Z"></path><path stroke="#323232" stroke-linecap="round" stroke-linejoin="round" stroke-width="1.5" d="M7.989,12.989c0.915,-1.225 2.364,-2.03 4.011,-2.03c1.647,0 3.096,0.804 4.011,2.03"></path><path stroke="#323232" stroke-linecap="round" stroke-linejoin="round" stroke-width="1.5" d="M5.165,10.165c1.647,-1.935 4.095,-3.165 6.835,-3.165c2.74,0 5.188,1.23 6.835,3.165"></path><path stroke="#323232" stroke-linecap="round" stroke-linejoin="round" stroke-width="1.5" d="M2.336,7.336c2.377,-2.655 5.82,-4.336 9.664,-4.336c3.844,0 7.287,1.681 9.664,4.336"></path></g></svg>