<?xml version="1.0" encoding="UTF-8"?><svg version="1.1" viewBox="0 0 24 24" xmlns="http://www.w3.org/2000/svg" xmlns:xlink="http://www.w3.org/1999/xlink"><!--Generated by IJSVG (https://github.com/iconjar/IJSVG)--><g fill="none"><path d="M0,0h24v24h-24v-24Z"></path><path stroke="#323232" stroke-linecap="round" stroke-linejoin="round" stroke-width="1.5" d="M12.001,4.998v0c4.419,0 8.001,3.582 8.001,8.002v0c0,4.419 -3.582,8.001 -8.001,8.001v0c-4.419,0 -8.002,-3.582 -8.002,-8.001v0c1.33227e-15,-4.419 3.582,-8.002 8.002,-8.002Z"></path><path stroke="#323232" stroke-linecap="round" stroke-linejoin="round" stroke-width="1.5" d="M12.001,13.445v-4.446"></path><path stroke="#323232" stroke-linecap="round" stroke-linejoin="round" stroke-width="1.5" d="M3.45,5.81l3,-2.52"></path><path stroke="#323232" stroke-linecap="round" stroke-linejoin="round" stroke-width="1.5" d="M20.56,5.82l-3,-2.52"></path><path stroke="#323232" stroke-linecap="round" stroke-linejoin="round" stroke-width="1.5" d="M12,16.628c-0.083,0 -0.15,0.067 -0.149,0.15c0,0.083 0.067,0.15 0.15,0.15c0.083,0 0.15,-0.067 0.15,-0.15c0,-0.083 -0.068,-0.15 -0.151,-0.15"></path></g></svg>