<?xml version="1.0" encoding="UTF-8"?><svg version="1.1" viewBox="0 0 24 24" xmlns="http://www.w3.org/2000/svg" xmlns:xlink="http://www.w3.org/1999/xlink"><!--Generated by IJSVG (https://github.com/iconjar/IJSVG)--><g stroke-linecap="round" stroke-width="1.5" stroke="#323232" fill="none" stroke-linejoin="round"><path d="M21,22l-18,-18"></path><path d="M6.343,7.342c-2.217,2.22 -3.008,5.637 -1.733,8.715c1.691,4.082 6.37,6.02 10.451,4.329c1.002,-0.415 1.873,-1.012 2.595,-1.734"></path><path d="M19.285,16.281c0.875,-1.942 0.985,-4.223 0.105,-6.346c-1.691,-4.082 -6.37,-6.02 -10.451,-4.329c-0.077,0.032 -0.149,0.072 -0.225,0.107"></path><path d="M10,2h4"></path><path d="M20,5l-2.34,2.34"></path><path d="M19,4l2,2"></path></g><path fill="none" d="M0,0h24v24h-24Z"></path></svg>