<?xml version="1.0" encoding="UTF-8"?><svg version="1.1" viewBox="0 0 24 24" xmlns="http://www.w3.org/2000/svg" xmlns:xlink="http://www.w3.org/1999/xlink"><!--Generated by IJSVG (https://github.com/iconjar/IJSVG)--><g fill="none"><path d="M0,0h24v24h-24v-24Z"></path><path stroke="#323232" stroke-linecap="round" stroke-linejoin="round" stroke-width="1.5" d="M4.67,17.209c0.584,0.82 1.301,1.537 2.121,2.121"></path><path stroke="#323232" stroke-linecap="round" stroke-linejoin="round" stroke-width="1.5" d="M3.135,10.5c-0.082,0.489 -0.135,0.988 -0.135,1.5c0,0.512 0.053,1.011 0.135,1.5"></path><path stroke="#323232" stroke-linecap="round" stroke-linejoin="round" stroke-width="1.5" d="M4.67,6.791c0.584,-0.821 1.3,-1.537 2.121,-2.122"></path><path stroke="#323232" stroke-linecap="round" stroke-linejoin="round" stroke-width="1.5" d="M10.5,20.865c0.489,0.082 0.988,0.135 1.5,0.135c4.971,0 9,-4.029 9,-9c0,-4.971 -4.029,-9 -9,-9c-0.512,0 -1.011,0.053 -1.5,0.135"></path><path stroke="#323232" stroke-linecap="round" stroke-linejoin="round" stroke-width="1.5" d="M16,10l-5,5l-3,-3"></path></g></svg>