<?xml version="1.0" encoding="UTF-8"?><svg version="1.1" viewBox="0 0 24 24" xmlns="http://www.w3.org/2000/svg" xmlns:xlink="http://www.w3.org/1999/xlink"><!--Generated by IJSVG (https://github.com/iconjar/IJSVG)--><g fill="none"><path d="M0,0h24v24h-24v-24Z"></path><path stroke="#323232" stroke-linecap="round" stroke-linejoin="round" stroke-width="1.5" d="M20,20.83l-2.26,-2.26"></path><path stroke="#323232" stroke-linecap="round" stroke-linejoin="round" stroke-width="1.5" d="M6.26,18.57l-2.26,2.26"></path><path stroke="#323232" stroke-linecap="round" stroke-linejoin="round" stroke-width="1.5" d="M8.939,5.611c4.082,-1.691 8.761,0.247 10.452,4.329c1.691,4.082 -0.248,8.761 -4.329,10.451c-4.082,1.691 -8.761,-0.248 -10.451,-4.329c-1.691,-4.081 0.247,-8.761 4.328,-10.451"></path><path stroke="#323232" stroke-linecap="round" stroke-linejoin="round" stroke-width="1.5" d="M11.75,9.432v4.135l3.25,1.982"></path><path stroke="#323232" stroke-linecap="round" stroke-linejoin="round" stroke-width="1.5" d="M7.514,3.1c-1.197,-0.34 -2.534,-0.055 -3.476,0.887c-0.811,0.812 -1.133,1.918 -0.993,2.975"></path><path stroke="#323232" stroke-linecap="round" stroke-linejoin="round" stroke-width="1.5" d="M16.499,3.1c1.197,-0.34 2.533,-0.055 3.475,0.887c0.812,0.812 1.134,1.918 0.994,2.975"></path></g></svg>