<?xml version="1.0" encoding="UTF-8"?><svg version="1.1" viewBox="0 0 24 24" xmlns="http://www.w3.org/2000/svg" xmlns:xlink="http://www.w3.org/1999/xlink"><!--Generated by IJSVG (https://github.com/iconjar/IJSVG)--><g fill="none"><path d="M24,0v24h-24v-24h24Z"></path><path d="M0,0v24h24v-24h-24Z"></path><path stroke="#323232" stroke-linecap="round" stroke-linejoin="round" stroke-width="1.5" d="M11.718,7.986v4.651l3.656,2.229"></path><path stroke="#323232" stroke-linecap="round" stroke-linejoin="round" stroke-width="1.5" d="M18.763,17.925c-1.283,1.463 -3.028,2.51 -5.013,2.902"></path><path stroke="#323232" stroke-linecap="round" stroke-linejoin="round" stroke-width="1.5" d="M5.237,6.075c1.283,-1.463 3.028,-2.51 5.013,-2.902"></path><path stroke="#323232" stroke-linecap="round" stroke-linejoin="round" stroke-width="1.5" d="M3.485,14.896c-0.31,-0.91 -0.485,-1.882 -0.485,-2.896c0,-1.014 0.175,-1.986 0.485,-2.896"></path><path stroke="#323232" stroke-linecap="round" stroke-linejoin="round" stroke-width="1.5" d="M20.515,14.896c0.31,-0.91 0.485,-1.882 0.485,-2.896c0,-1.014 -0.175,-1.986 -0.485,-2.896"></path><path stroke="#323232" stroke-linecap="round" stroke-linejoin="round" stroke-width="1.5" d="M5.237,17.925c1.283,1.463 3.028,2.51 5.013,2.902"></path><path stroke="#323232" stroke-linecap="round" stroke-linejoin="round" stroke-width="1.5" d="M13.75,3.173c1.985,0.391 3.729,1.438 5.013,2.902"></path></g></svg>