<?xml version="1.0" encoding="UTF-8"?><svg version="1.1" viewBox="0 0 24 24" xmlns="http://www.w3.org/2000/svg" xmlns:xlink="http://www.w3.org/1999/xlink"><!--Generated by IJSVG (https://github.com/iconjar/IJSVG)--><g stroke-linecap="round" stroke-width="1.5" stroke="#323232" fill="none" stroke-linejoin="round"><path d="M5.636,5.636c3.515,-3.515 9.213,-3.515 12.728,0c3.515,3.515 3.515,9.213 0,12.728c-3.515,3.515 -9.213,3.515 -12.728,0c-3.515,-3.515 -3.515,-9.213 -8.88178e-16,-12.728"></path><path d="M12.008,10c-1.112,0 -2.008,0.896 -2.008,2c0,1.104 0.896,2 2,2c1.104,0 2,-0.896 2,-2c0.008,-1.104 -0.888,-2 -1.992,-2"></path><path d="M17.518,10.982c0.066,0.33 0.107,0.668 0.107,1.018"></path><path d="M12,6.375c0.35,0 0.688,0.04 1.018,0.107"></path><path d="M6.375,12c0,-3.106 2.519,-5.625 5.625,-5.625"></path><path d="M13.42,10.58l2.56,-2.56"></path></g><path fill="none" d="M0,0h24v24h-24Z"></path></svg>