<?xml version="1.0" encoding="UTF-8"?><svg version="1.1" viewBox="0 0 24 24" xmlns="http://www.w3.org/2000/svg" xmlns:xlink="http://www.w3.org/1999/xlink"><!--Generated by IJSVG (https://github.com/iconjar/IJSVG)--><g fill="none"><path d="M0,0h24v24h-24Z"></path><path stroke="#323232" stroke-linecap="round" stroke-linejoin="round" stroke-width="1.5" d="M9,2h4"></path><path stroke="#323232" stroke-linecap="round" stroke-linejoin="round" stroke-width="1.5" d="M8.17,10.17l2.83,2.83"></path><path stroke="#323232" stroke-linecap="round" stroke-linejoin="round" stroke-width="1.5" d="M19,5l-2.34,2.34"></path><path stroke="#323232" stroke-linecap="round" stroke-linejoin="round" stroke-width="1.5" d="M18,4l2,2"></path><path stroke="#323232" stroke-linecap="round" stroke-linejoin="round" stroke-width="1.5" d="M22,15.5c0,-1.933 -1.612,-3.5 -3.6,-3.5c-1.988,0 -3.6,1.567 -3.6,3.5c0,2.625 3.6,5.5 3.6,5.5c0,0 3.6,-2.875 3.6,-5.5Z"></path><path stroke="#323232" stroke-linecap="round" stroke-linejoin="round" stroke-width="1.5" d="M18.399,15.5c-0.138,0 -0.25,0.112 -0.249,0.25c0,0.138 0.112,0.25 0.25,0.25c0.138,0 0.25,-0.112 0.25,-0.25c-3.55271e-15,-0.138 -0.112,-0.25 -0.251,-0.25"></path><path stroke="#323232" stroke-linecap="round" stroke-linejoin="round" stroke-width="1.5" d="M18.939,12.053c-0.469,-3.971 -3.842,-7.053 -7.939,-7.053c-4.418,0 -8,3.582 -8,8c0,4.418 3.582,8 8,8c2.061,0 3.934,-0.786 5.352,-2.066"></path></g></svg>