<?xml version="1.0" encoding="UTF-8"?><svg version="1.1" viewBox="0 0 24 24" xmlns="http://www.w3.org/2000/svg" xmlns:xlink="http://www.w3.org/1999/xlink"><!--Generated by IJSVG (https://github.com/iconjar/IJSVG)--><g fill="none"><path d="M0,0h24v24h-24Z"></path><path stroke="#323232" stroke-linecap="round" stroke-linejoin="round" stroke-width="1.5" d="M17.21,9.5v5"></path><path stroke="#323232" stroke-linecap="round" stroke-linejoin="round" stroke-width="1.5" d="M10.58,9.5v5"></path><path stroke="#323232" stroke-linecap="round" stroke-linejoin="round" stroke-width="1.5" d="M10.579,9.5h2.227c0.863,0 1.562,0.7 1.562,1.562v0c0,0.863 -0.7,1.562 -1.562,1.562h-2.227"></path><path stroke="#323232" stroke-linecap="round" stroke-linejoin="round" stroke-width="1.5" d="M7.737,14.5l-2.368,-5l-2.369,5"></path><path stroke="#323232" stroke-linecap="round" stroke-linejoin="round" stroke-width="1.5" d="M19.112,6.5c-0.23,-0.299 -0.474,-0.59 -0.748,-0.864c-3.515,-3.515 -9.213,-3.515 -12.728,0c-0.274,0.274 -0.517,0.565 -0.748,0.864"></path><path stroke="#323232" stroke-linecap="round" stroke-linejoin="round" stroke-width="1.5" d="M4.888,17.5c0.23,0.299 0.474,0.59 0.748,0.864c3.515,3.515 9.213,3.515 12.728,0c0.274,-0.274 0.517,-0.565 0.748,-0.864"></path><path stroke="#323232" stroke-linecap="round" stroke-linejoin="round" stroke-width="1.5" d="M17.211,9.5h2.227c0.862,0 1.562,0.7 1.562,1.562v0c0,0.863 -0.7,1.562 -1.562,1.562h-2.227"></path><path stroke="#323232" stroke-linecap="round" stroke-linejoin="round" stroke-width="1.5" d="M3.474,13.5h3.789"></path></g></svg>