<?xml version="1.0" encoding="UTF-8"?><svg version="1.1" viewBox="0 0 24 24" xmlns="http://www.w3.org/2000/svg" xmlns:xlink="http://www.w3.org/1999/xlink"><!--Generated by IJSVG (https://github.com/iconjar/IJSVG)--><g stroke-linecap="round" stroke-width="1.5" stroke="#323232" fill="none" stroke-linejoin="round"><path d="M18.364,5.63604c3.51472,3.51472 3.51472,9.2132 0,12.7279c-3.51472,3.51472 -9.2132,3.51472 -12.7279,0c-3.51472,-3.51472 -3.51472,-9.2132 -1.77636e-15,-12.7279c3.51472,-3.51472 9.2132,-3.51472 12.7279,-1.77636e-15"></path><path d="M11.021,12.981v0c0.976,0.976 2.558,0.976 3.533,0l1.602,-1.602c0.771,-0.771 0.771,-2.02 0,-2.79l-0.742,-0.742c-0.771,-0.771 -2.02,-0.771 -2.79,0v0"></path><path d="M12.979,11.019v0c-0.976,-0.976 -2.558,-0.976 -3.533,0l-1.602,1.602c-0.771,0.771 -0.771,2.02 0,2.79l0.742,0.742c0.771,0.771 2.02,0.771 2.79,0v0"></path></g><path fill="none" d="M0,0h24v24h-24Z"></path></svg>