<?xml version="1.0" encoding="UTF-8"?><svg version="1.1" viewBox="0 0 24 24" xmlns="http://www.w3.org/2000/svg" xmlns:xlink="http://www.w3.org/1999/xlink"><!--Generated by IJSVG (https://github.com/iconjar/IJSVG)--><g fill="none"><path d="M0,0h24v24h-24v-24Z"></path><path stroke="#323232" stroke-linecap="round" stroke-linejoin="round" stroke-width="1.5" d="M14.029,4.139l7.659,13.405c0.89,1.558 -0.235,3.497 -2.029,3.497h-15.318c-1.795,0 -2.92,-1.939 -2.029,-3.497l7.659,-13.405c0.897,-1.571 3.161,-1.571 4.058,8.88178e-16Z"></path><path stroke="#323232" stroke-linecap="round" stroke-linejoin="round" stroke-width="1.5" d="M11.444,12.802v0c-0.547,0.547 -1.468,0.397 -1.814,-0.294l-0.408,-0.818v0c-0.711,0.711 -1.111,1.676 -1.111,2.683v0.095c0,2.148 1.741,3.889 3.889,3.889c2.148,0 3.889,-1.741 3.889,-3.889v0c0,-1.054 -0.477,-2.051 -1.298,-2.712l-0.603,-0.486c-0.61,-0.492 -1.037,-1.175 -1.211,-1.939l-0.222,-0.974v0c-1.041,1.041 -1.493,2.534 -1.204,3.978l0.093,0.467Z"></path></g></svg>