<?xml version="1.0" encoding="UTF-8"?><svg version="1.1" viewBox="0 0 24 24" xmlns="http://www.w3.org/2000/svg" xmlns:xlink="http://www.w3.org/1999/xlink"><!--Generated by IJSVG (https://github.com/iconjar/IJSVG)--><g fill="none"><path d="M0,0h24v24h-24Z"></path><path stroke="#323232" stroke-linecap="round" stroke-linejoin="round" stroke-width="1.5" d="M7,10v4"></path><path stroke="#323232" stroke-linecap="round" stroke-linejoin="round" stroke-width="1.5" d="M11,10v4"></path><path stroke="#323232" stroke-linecap="round" stroke-linejoin="round" stroke-width="1.5" d="M15,10v4"></path><path fill-rule="evenodd" stroke="#323232" stroke-linecap="round" stroke-linejoin="round" stroke-width="1.5" d="M17,18h-12c-1.105,0 -2,-0.895 -2,-2v-8c0,-1.105 0.895,-2 2,-2h12c1.105,0 2,0.895 2,2v8c0,1.105 -0.895,2 -2,2Z"></path><path stroke="#323232" stroke-linecap="round" stroke-linejoin="round" stroke-width="1.5" d="M19,9h1.014c0.155,0 0.308,0.036 0.447,0.106l0.486,0.243c0.339,0.169 0.553,0.516 0.553,0.894v3.514c0,0.379 -0.214,0.725 -0.553,0.894l-0.486,0.243c-0.139,0.07 -0.292,0.106 -0.447,0.106h-1.014"></path></g></svg>