<?xml version="1.0" encoding="UTF-8"?><svg version="1.1" viewBox="0 0 24 24" xmlns="http://www.w3.org/2000/svg" xmlns:xlink="http://www.w3.org/1999/xlink"><!--Generated by IJSVG (https://github.com/iconjar/IJSVG)--><g stroke-linecap="round" stroke-width="1.5" stroke="#323232" fill="none" stroke-linejoin="round"><path d="M21,12v0c0,4.971 -4.029,9 -9,9v0c-4.971,0 -9,-4.029 -9,-9v0c0,-4.971 4.029,-9 9,-9v0c4.971,0 9,4.029 9,9Z"></path><path d="M11.608,6.5h0.785c1.606,0 2.908,1.302 2.908,2.908v0v2.592l1.331,0.95c0.131,0.094 0.209,0.245 0.209,0.407v1.443c0,0.276 -0.224,0.5 -0.5,0.5h-8.681c-0.276,0 -0.5,-0.224 -0.5,-0.5v-1.443c0,-0.161 0.078,-0.313 0.209,-0.407l1.331,-0.95v-2.592v0c0,-1.606 1.302,-2.908 2.908,-2.908Z"></path><path d="M10.9,17.5h2.2"></path></g><path fill="none" d="M0,0h24v24h-24Z"></path></svg>