<?xml version="1.0" encoding="UTF-8"?><svg version="1.1" viewBox="0 0 24 24" xmlns="http://www.w3.org/2000/svg" xmlns:xlink="http://www.w3.org/1999/xlink"><!--Generated by IJSVG (https://github.com/iconjar/IJSVG)--><g fill="none"><path d="M0,0h24v24h-24Z"></path><path stroke="#323232" stroke-linecap="round" stroke-linejoin="round" stroke-width="1.5" d="M13.6,20h-3.2"></path><path stroke="#323232" stroke-linecap="round" stroke-linejoin="round" stroke-width="1.5" d="M12,5v0c-2.761,0 -5,2.239 -5,5v0v0.032v2.472c0,0.324 -0.183,0.619 -0.472,0.764l-0.503,0.251c-0.628,0.315 -1.025,0.957 -1.025,1.659v0c0,1.024 0.83,1.854 1.854,1.854h10.292c1.024,0 1.854,-0.83 1.854,-1.854v0c0,-0.702 -0.397,-1.344 -1.025,-1.658l-0.503,-0.251c-0.289,-0.146 -0.472,-0.441 -0.472,-0.765v-2.472v-0.032v0"></path><path stroke="#323232" stroke-linecap="round" stroke-linejoin="round" stroke-width="1.5" d="M13.139,5.142c-0.367,-0.086 -0.745,-0.142 -1.139,-0.142"></path><path stroke="#323232" stroke-linecap="round" stroke-linejoin="round" stroke-width="1.5" d="M16.858,8.861c0.086,0.367 0.142,0.745 0.142,1.139"></path><path stroke="#323232" stroke-linecap="round" stroke-linejoin="round" stroke-width="1.5" d="M18.1213,3.87868c1.17157,1.17157 1.17157,3.07107 0,4.24264c-1.17157,1.17157 -3.07107,1.17157 -4.24264,0c-1.17157,-1.17157 -1.17157,-3.07107 0,-4.24264c1.17157,-1.17157 3.07107,-1.17157 4.24264,-8.88178e-16"></path></g></svg>