<?xml version="1.0" encoding="UTF-8"?><svg version="1.1" viewBox="0 0 24 24" xmlns="http://www.w3.org/2000/svg" xmlns:xlink="http://www.w3.org/1999/xlink"><!--Generated by IJSVG (https://github.com/iconjar/IJSVG)--><defs><path d="M24,0h-24v24h24v-24Z" id="a"></path></defs><g fill="none"><use xlink:href="#a"></use><use xlink:href="#a"></use><path stroke="#323232" stroke-linecap="round" stroke-linejoin="round" stroke-width="1.5" d="M9.16451,10.1455c0.143322,0.143322 0.143322,0.375694 0,0.519016c-0.143322,0.143322 -0.375694,0.143322 -0.519016,0c-0.143322,-0.143322 -0.143322,-0.375694 0,-0.519016c0.143322,-0.143322 0.375694,-0.143322 0.519016,0"></path><path stroke="#323232" stroke-linecap="round" stroke-linejoin="round" stroke-width="1.5" d="M11.71,6.29l7.21,7.21c0.772,0.772 0.772,2.024 0,2.796l-4.124,4.124c-0.772,0.772 -2.024,0.772 -2.796,0l-7.21,-7.21c-0.185,-0.185 -0.29,-0.437 -0.29,-0.699v-5.522c-3.55271e-15,-0.546 0.443,-0.989 0.989,-0.989h5.523c0.262,0 0.513,0.104 0.698,0.29Z"></path><path stroke="#323232" stroke-linecap="round" stroke-linejoin="round" stroke-width="1.5" d="M19.5,10l-6.506,-6.423c-0.375,-0.37 -0.879,-0.577 -1.405,-0.577h-4.089"></path></g></svg>