<?xml version="1.0" encoding="UTF-8"?><svg version="1.1" viewBox="0 0 24 24" xmlns="http://www.w3.org/2000/svg" xmlns:xlink="http://www.w3.org/1999/xlink"><!--Generated by IJSVG (https://github.com/iconjar/IJSVG)--><g fill="none"><path d="M0,0h24v24h-24v-24Z"></path><path stroke="#323232" stroke-linecap="round" stroke-linejoin="round" stroke-width="1.5" d="M8.31306,7.75894c0.151914,0.151914 0.151914,0.398215 0,0.550129c-0.151914,0.151914 -0.398215,0.151914 -0.550129,0c-0.151914,-0.151914 -0.151914,-0.398215 -8.88178e-16,-0.550129c0.151914,-0.151914 0.398215,-0.151914 0.550129,-8.88178e-16"></path><path stroke="#323232" stroke-linecap="round" stroke-linejoin="round" stroke-width="1.5" d="M7.244,3.025l2.849,-0.025c0.531,-0.005 1.042,0.205 1.418,0.58l8.904,8.908c0.781,0.781 0.781,2.048 0,2.829l-5.094,5.097c-0.781,0.782 -2.049,0.782 -2.83,0l-8.911,-8.914c-0.371,-0.371 -0.58,-0.875 -0.58,-1.401v-2.812c0,-0.526 0.209,-1.03 0.58,-1.401l2.28,-2.281c0.368,-0.368 0.865,-0.576 1.384,-0.58Z"></path></g></svg>