<?xml version="1.0" encoding="UTF-8"?><svg version="1.1" viewBox="0 0 24 24" xmlns="http://www.w3.org/2000/svg" xmlns:xlink="http://www.w3.org/1999/xlink"><!--Generated by IJSVG (https://github.com/iconjar/IJSVG)--><g stroke-linecap="round" stroke-width="1.5" stroke="#323232" fill="none" stroke-linejoin="round"><path d="M14.807,7.193c0.145,0.145 0.145,0.38 0,0.525c-0.145,0.145 -0.38,0.145 -0.525,0c-0.145,-0.145 -0.145,-0.38 0,-0.525c0.146,-0.145 0.38,-0.145 0.525,0"></path><path d="M15.5,21c-2.485,0 -4.5,-2.015 -4.5,-4.5c0,-2.434 2.07,-4.502 4.503,-4.5c2.484,0.002 4.497,2.016 4.497,4.5c0,2.485 -2.014,4.5 -4.5,4.5"></path><path d="M15.5,14.813v3.375"></path><path d="M17.188,16.5h-3.375"></path><path d="M17.074,12.284l1.309,-1.309c0.395,-0.396 0.617,-0.93 0.617,-1.488v-4.385c0,-1.161 -0.941,-2.102 -2.104,-2.102h-4.385c-0.557,0 -1.092,0.222 -1.485,0.616l-8.41,8.41c-0.821,0.821 -0.821,2.152 0,2.973l4.385,4.385c0.821,0.821 2.152,0.821 2.973,0l1.31,-1.31"></path></g><path fill="none" d="M0,0h24v24h-24v-24Z"></path></svg>