<?xml version="1.0" encoding="UTF-8"?><svg version="1.1" viewBox="0 0 24 24" xmlns="http://www.w3.org/2000/svg" xmlns:xlink="http://www.w3.org/1999/xlink"><!--Generated by IJSVG (https://github.com/iconjar/IJSVG)--><g stroke-linecap="round" stroke-width="1.5" stroke="#323232" fill="none" stroke-linejoin="round"><path d="M12,16.05c0.028,0 0.05,-0.022 0.05,-0.05c0,-0.028 -0.022,-0.05 -0.05,-0.05c-0.028,0 -0.05,0.022 -0.05,0.05c0,0.028 0.022,0.05 0.05,0.05"></path><path d="M12,8.05c0.028,0 0.05,-0.022 0.05,-0.05c0,-0.028 -0.022,-0.05 -0.05,-0.05c-0.028,0 -0.05,0.022 -0.05,0.05c0,0.028 0.022,0.05 0.05,0.05"></path><path d="M12,12.05c0.028,0 0.05,-0.022 0.05,-0.05c0,-0.028 -0.022,-0.05 -0.05,-0.05c-0.028,0 -0.05,0.022 -0.05,0.05c0,0.028 0.022,0.05 0.05,0.05"></path><path d="M7.95,12c0,0.028 0.022,0.05 0.05,0.05c0.028,0 0.05,-0.022 0.05,-0.05c0,-0.028 -0.022,-0.05 -0.05,-0.05c-0.028,0 -0.05,0.022 -0.05,0.05"></path><path d="M4,12.05c0.028,0 0.05,-0.022 0.05,-0.05c0,-0.028 -0.022,-0.05 -0.05,-0.05c-0.028,0 -0.05,0.022 -0.05,0.05c0,0.028 0.022,0.05 0.05,0.05"></path><path d="M15.95,12c0,0.028 0.022,0.05 0.05,0.05c0.028,0 0.05,-0.022 0.05,-0.05c0,-0.028 -0.022,-0.05 -0.05,-0.05c-0.028,0 -0.05,0.022 -0.05,0.05"></path><path d="M4,16.05c0.028,0 0.05,-0.022 0.05,-0.05c0,-0.028 -0.022,-0.05 -0.05,-0.05c-0.028,0 -0.05,0.022 -0.05,0.05c0,0.028 0.022,0.05 0.05,0.05"></path><path d="M4,8.05c0.028,0 0.05,-0.022 0.05,-0.05c0,-0.028 -0.022,-0.05 -0.05,-0.05c-0.028,0 -0.05,0.022 -0.05,0.05c0,0.028 0.022,0.05 0.05,0.05"></path><path d="M12,20.05c0.028,0 0.05,-0.022 0.05,-0.05c0,-0.028 -0.022,-0.05 -0.05,-0.05c-0.028,0 -0.05,0.022 -0.05,0.05c0,0.028 0.022,0.05 0.05,0.05"></path><path d="M7.95,20c0,0.028 0.022,0.05 0.05,0.05c0.028,0 0.05,-0.022 0.05,-0.05c0,-0.028 -0.022,-0.05 -0.05,-0.05c-0.028,0 -0.05,0.022 -0.05,0.05"></path><path d="M15.95,20c0,0.028 0.022,0.05 0.05,0.05c0.028,0 0.05,-0.022 0.05,-0.05c0,-0.028 -0.022,-0.05 -0.05,-0.05c-0.028,0 -0.05,0.022 -0.05,0.05"></path><path d="M4,20.05c0.028,0 0.05,-0.022 0.05,-0.05c0,-0.028 -0.022,-0.05 -0.05,-0.05c-0.028,0 -0.05,0.022 -0.05,0.05c0,0.028 0.022,0.05 0.05,0.05"></path><path d="M12,4.05c0.028,0 0.05,-0.022 0.05,-0.05c0,-0.028 -0.022,-0.05 -0.05,-0.05c-0.028,0 -0.05,0.022 -0.05,0.05c0,0.028 0.022,0.05 0.05,0.05"></path><path d="M7.95,4c0,0.028 0.022,0.05 0.05,0.05c0.028,0 0.05,-0.022 0.05,-0.05c0,-0.028 -0.022,-0.05 -0.05,-0.05c-0.028,0 -0.05,0.022 -0.05,0.05"></path><path d="M15.95,4c0,0.028 0.022,0.05 0.05,0.05c0.028,0 0.05,-0.022 0.05,-0.05c0,-0.028 -0.022,-0.05 -0.05,-0.05c-0.028,0 -0.05,0.022 -0.05,0.05"></path><path d="M4,4.05c0.028,0 0.05,-0.022 0.05,-0.05c0,-0.028 -0.022,-0.05 -0.05,-0.05c-0.028,0 -0.05,0.022 -0.05,0.05c0,0.028 0.022,0.05 0.05,0.05"></path><path d="M20,4v16"></path></g><path fill="none" d="M0,0h24v24h-24Z" transform="matrix(-1,-1.22465e-16,1.22465e-16,-1,24,24)"></path></svg>