<?xml version="1.0" encoding="UTF-8"?><svg version="1.1" viewBox="0 0 24 24" xmlns="http://www.w3.org/2000/svg" xmlns:xlink="http://www.w3.org/1999/xlink"><!--Generated by IJSVG (https://github.com/iconjar/IJSVG)--><g stroke-linecap="round" stroke-width="1.5" stroke="#323232" fill="none" stroke-linejoin="round"><path d="M12,7.95c-0.028,0 -0.05,0.022 -0.05,0.05c0,0.028 0.022,0.05 0.05,0.05c0.028,0 0.05,-0.022 0.05,-0.05c0,-0.028 -0.022,-0.05 -0.05,-0.05"></path><path d="M12,15.95c-0.028,0 -0.05,0.022 -0.05,0.05c0,0.028 0.022,0.05 0.05,0.05c0.028,0 0.05,-0.022 0.05,-0.05c0,-0.028 -0.022,-0.05 -0.05,-0.05"></path><path d="M12,11.95c-0.028,0 -0.05,0.022 -0.05,0.05c0,0.028 0.022,0.05 0.05,0.05c0.028,0 0.05,-0.022 0.05,-0.05c0,-0.028 -0.022,-0.05 -0.05,-0.05"></path><path d="M16.05,12c0,-0.028 -0.022,-0.05 -0.05,-0.05c-0.028,0 -0.05,0.022 -0.05,0.05c0,0.028 0.022,0.05 0.05,0.05c0.028,0 0.05,-0.022 0.05,-0.05"></path><path d="M20,11.95c-0.028,0 -0.05,0.022 -0.05,0.05c0,0.028 0.022,0.05 0.05,0.05c0.028,0 0.05,-0.022 0.05,-0.05c0,-0.028 -0.022,-0.05 -0.05,-0.05"></path><path d="M8.05,12c0,-0.028 -0.022,-0.05 -0.05,-0.05c-0.028,0 -0.05,0.022 -0.05,0.05c0,0.028 0.022,0.05 0.05,0.05c0.028,0 0.05,-0.022 0.05,-0.05"></path><path d="M20,7.95c-0.028,0 -0.05,0.022 -0.05,0.05c0,0.028 0.022,0.05 0.05,0.05c0.028,0 0.05,-0.022 0.05,-0.05c0,-0.028 -0.022,-0.05 -0.05,-0.05"></path><path d="M20,15.95c-0.028,0 -0.05,0.022 -0.05,0.05c0,0.028 0.022,0.05 0.05,0.05c0.028,0 0.05,-0.022 0.05,-0.05c0,-0.028 -0.022,-0.05 -0.05,-0.05"></path><path d="M12,3.95c-0.028,0 -0.05,0.022 -0.05,0.05c0,0.028 0.022,0.05 0.05,0.05c0.028,0 0.05,-0.022 0.05,-0.05c0,-0.028 -0.022,-0.05 -0.05,-0.05"></path><path d="M16.05,4c0,-0.028 -0.022,-0.05 -0.05,-0.05c-0.028,0 -0.05,0.022 -0.05,0.05c0,0.028 0.022,0.05 0.05,0.05c0.028,0 0.05,-0.022 0.05,-0.05"></path><path d="M8.05,4c0,-0.028 -0.022,-0.05 -0.05,-0.05c-0.028,0 -0.05,0.022 -0.05,0.05c0,0.028 0.022,0.05 0.05,0.05c0.028,0 0.05,-0.022 0.05,-0.05"></path><path d="M20,3.95c-0.028,0 -0.05,0.022 -0.05,0.05c0,0.028 0.022,0.05 0.05,0.05c0.028,0 0.05,-0.022 0.05,-0.05c0,-0.028 -0.022,-0.05 -0.05,-0.05"></path><path d="M12,19.95c-0.028,0 -0.05,0.022 -0.05,0.05c0,0.028 0.022,0.05 0.05,0.05c0.028,0 0.05,-0.022 0.05,-0.05c0,-0.028 -0.022,-0.05 -0.05,-0.05"></path><path d="M16.05,20c0,-0.028 -0.022,-0.05 -0.05,-0.05c-0.028,0 -0.05,0.022 -0.05,0.05c0,0.028 0.022,0.05 0.05,0.05c0.028,0 0.05,-0.022 0.05,-0.05"></path><path d="M8.05,20c0,-0.028 -0.022,-0.05 -0.05,-0.05c-0.028,0 -0.05,0.022 -0.05,0.05c0,0.028 0.022,0.05 0.05,0.05c0.028,0 0.05,-0.022 0.05,-0.05"></path><path d="M20,19.95c-0.028,0 -0.05,0.022 -0.05,0.05c0,0.028 0.022,0.05 0.05,0.05c0.028,0 0.05,-0.022 0.05,-0.05c0,-0.028 -0.022,-0.05 -0.05,-0.05"></path><path d="M4,20v-16"></path></g><path fill="none" d="M0,0h24v24h-24Z"></path></svg>