<?xml version="1.0" encoding="UTF-8"?><svg version="1.1" viewBox="0 0 24 24" xmlns="http://www.w3.org/2000/svg" xmlns:xlink="http://www.w3.org/1999/xlink"><!--Generated by IJSVG (https://github.com/iconjar/IJSVG)--><g fill="none"><path d="M0,0h24v24h-24Z"></path><path stroke="#323232" stroke-linecap="round" stroke-linejoin="round" stroke-width="1.5" d="M4,12h16"></path><path stroke="#323232" stroke-linecap="round" stroke-linejoin="round" stroke-width="1.5" d="M12,20v-16"></path><path stroke="#323232" stroke-linecap="round" stroke-linejoin="round" stroke-width="1.5" d="M20,7.95c-0.028,0 -0.05,0.022 -0.05,0.05c0,0.028 0.022,0.05 0.05,0.05c0.028,0 0.05,-0.022 0.05,-0.05c0,-0.028 -0.022,-0.05 -0.05,-0.05"></path><path stroke="#323232" stroke-linecap="round" stroke-linejoin="round" stroke-width="1.5" d="M4,7.95c-0.028,0 -0.05,0.022 -0.05,0.05c0,0.028 0.022,0.05 0.05,0.05c0.028,0 0.05,-0.022 0.05,-0.05c0,-0.028 -0.022,-0.05 -0.05,-0.05"></path><path stroke="#323232" stroke-linecap="round" stroke-linejoin="round" stroke-width="1.5" d="M16.05,4c0,-0.028 -0.022,-0.05 -0.05,-0.05c-0.028,0 -0.05,0.022 -0.05,0.05c0,0.028 0.022,0.05 0.05,0.05c0.028,0 0.05,-0.022 0.05,-0.05"></path><path stroke="#323232" stroke-linecap="round" stroke-linejoin="round" stroke-width="1.5" d="M8.05,4c0,-0.028 -0.022,-0.05 -0.05,-0.05c-0.028,0 -0.05,0.022 -0.05,0.05c0,0.028 0.022,0.05 0.05,0.05c0.028,0 0.05,-0.022 0.05,-0.05"></path><path stroke="#323232" stroke-linecap="round" stroke-linejoin="round" stroke-width="1.5" d="M20,3.95c-0.028,0 -0.05,0.022 -0.05,0.05c0,0.028 0.022,0.05 0.05,0.05c0.028,0 0.05,-0.022 0.05,-0.05c0,-0.028 -0.022,-0.05 -0.05,-0.05"></path><path stroke="#323232" stroke-linecap="round" stroke-linejoin="round" stroke-width="1.5" d="M4,3.95c-0.028,0 -0.05,0.022 -0.05,0.05c0,0.028 0.022,0.05 0.05,0.05c0.028,0 0.05,-0.022 0.05,-0.05c0,-0.028 -0.022,-0.05 -0.05,-0.05"></path><path stroke="#323232" stroke-linecap="round" stroke-linejoin="round" stroke-width="1.5" d="M20,15.95c-0.028,0 -0.05,0.022 -0.05,0.05c0,0.028 0.022,0.05 0.05,0.05c0.028,0 0.05,-0.022 0.05,-0.05c0,-0.028 -0.022,-0.05 -0.05,-0.05"></path><path stroke="#323232" stroke-linecap="round" stroke-linejoin="round" stroke-width="1.5" d="M4,15.95c-0.028,0 -0.05,0.022 -0.05,0.05c0,0.028 0.022,0.05 0.05,0.05c0.028,0 0.05,-0.022 0.05,-0.05c0,-0.028 -0.022,-0.05 -0.05,-0.05"></path><path stroke="#323232" stroke-linecap="round" stroke-linejoin="round" stroke-width="1.5" d="M16.05,20c0,-0.028 -0.022,-0.05 -0.05,-0.05c-0.028,0 -0.05,0.022 -0.05,0.05c0,0.028 0.022,0.05 0.05,0.05c0.028,0 0.05,-0.022 0.05,-0.05"></path><path stroke="#323232" stroke-linecap="round" stroke-linejoin="round" stroke-width="1.5" d="M8.05,20c0,-0.028 -0.022,-0.05 -0.05,-0.05c-0.028,0 -0.05,0.022 -0.05,0.05c0,0.028 0.022,0.05 0.05,0.05c0.028,0 0.05,-0.022 0.05,-0.05"></path><path stroke="#323232" stroke-linecap="round" stroke-linejoin="round" stroke-width="1.5" d="M20,19.95c-0.028,0 -0.05,0.022 -0.05,0.05c0,0.028 0.022,0.05 0.05,0.05c0.028,0 0.05,-0.022 0.05,-0.05c0,-0.028 -0.022,-0.05 -0.05,-0.05"></path><path stroke="#323232" stroke-linecap="round" stroke-linejoin="round" stroke-width="1.5" d="M4,19.95c-0.028,0 -0.05,0.022 -0.05,0.05c0,0.028 0.022,0.05 0.05,0.05c0.028,0 0.05,-0.022 0.05,-0.05c0,-0.028 -0.022,-0.05 -0.05,-0.05"></path></g></svg>