<?xml version="1.0" encoding="UTF-8"?><svg version="1.1" viewBox="0 0 24 24" xmlns="http://www.w3.org/2000/svg" xmlns:xlink="http://www.w3.org/1999/xlink"><!--Generated by IJSVG (https://github.com/iconjar/IJSVG)--><g fill="none"><path d="M0,0h24v24h-24Z"></path><path stroke="#323232" stroke-linecap="round" stroke-linejoin="round" stroke-width="1.5" d="M19,20.5h-14c-1.105,0 -2,-0.895 -2,-2v-9c0,-1.105 0.895,-2 2,-2h14c1.105,0 2,0.895 2,2v9c0,1.105 -0.895,2 -2,2Z"></path><path stroke="#323232" stroke-linecap="round" stroke-linejoin="round" stroke-width="1.5" d="M16.174,7.5v-2c0,-1.105 -0.895,-2 -2,-2h-4.348c-1.105,0 -2,0.895 -2,2v2"></path><path stroke="#323232" stroke-linecap="round" stroke-linejoin="round" stroke-width="1.5" d="M3,9.5l6.351,4.191c0.327,0.216 0.71,0.331 1.102,0.331h3.094c0.392,0 0.775,-0.115 1.102,-0.331l6.351,-4.191"></path></g></svg>