<?xml version="1.0" encoding="UTF-8"?><svg version="1.1" viewBox="0 0 24 24" xmlns="http://www.w3.org/2000/svg" xmlns:xlink="http://www.w3.org/1999/xlink"><!--Generated by IJSVG (https://github.com/iconjar/IJSVG)--><g stroke-linecap="round" stroke-width="1.5" stroke="#323232" fill="none" stroke-linejoin="round"><path d="M8.952,3.956c0.95,-0.36 1.976,-0.566 3.051,-0.566c4.027,0 7.398,2.767 8.343,6.5"></path><path d="M6.558,18.67c-0.786,-0.642 -1.478,-1.427 -2.016,-2.359c-2.013,-3.487 -1.302,-7.79 1.458,-10.475"></path><path d="M20.498,13.386c-0.163,1.002 -0.497,1.993 -1.035,2.925c-2.014,3.487 -6.096,5.024 -9.801,3.974"></path><path d="M10.586,13.414c0.781,0.781 2.047,0.781 2.828,0c0.781,-0.781 0.781,-2.047 0,-2.829c-0.781,-0.781 -2.047,-0.781 -2.828,0c-0.781,0.782 -0.781,2.048 0,2.829Z"></path><path d="M12,7.71v-0.71"></path><path d="M12,16.29v0.71"></path><path d="M15.54,8.46l-0.51,0.51"></path><path d="M8.97,15.03l-0.51,0.51"></path><path d="M8.46,8.46l0.51,0.51"></path><path d="M15.03,15.03l0.51,0.51"></path><path d="M7.71,12h-0.71"></path><path d="M17,12h-0.71"></path></g><path fill="none" d="M0,0h24v24h-24v-24Z"></path></svg>