<?xml version="1.0" encoding="UTF-8"?><svg version="1.1" viewBox="0 0 24 24" xmlns="http://www.w3.org/2000/svg" xmlns:xlink="http://www.w3.org/1999/xlink"><!--Generated by IJSVG (https://github.com/iconjar/IJSVG)--><g stroke-linecap="round" stroke-width="1.5" stroke="#323232" fill="none" stroke-linejoin="round"><path d="M19.5,21.014h-15c-1.105,0 -2,-0.895 -2,-2v-14c0,-1.105 0.895,-2 2,-2h15c1.105,0 2,0.895 2,2v14c0,1.105 -0.895,2 -2,2Z"></path><path d="M2.5,8.014h19"></path><path d="M5.505,5.504c-0.003,0 -0.005,0.002 -0.005,0.005c0,0.003 0.002,0.005 0.005,0.005c0.003,0 0.005,-0.002 0.005,-0.005c0,-0.003 -0.002,-0.005 -0.005,-0.005"></path><path d="M8.048,5.504c-0.003,0 -0.005,0.002 -0.005,0.005c0,0.003 0.002,0.005 0.005,0.005c0.003,0 0.005,-0.002 0.005,-0.005c0,-0.003 -0.002,-0.005 -0.005,-0.005"></path><path d="M10.588,5.504c-0.003,0 -0.005,0.002 -0.005,0.005c0,0.003 0.002,0.005 0.005,0.005c0.003,0 0.005,-0.002 0.005,-0.005c0,-0.003 -0.003,-0.005 -0.005,-0.005"></path><path d="M12,11.514v1"></path><path d="M12,16.514v1"></path><path d="M9.4,13.014l0.862,0.5"></path><path d="M13.738,15.514l0.862,0.5"></path><path d="M9.4,16.014l0.862,-0.5"></path><path d="M13.738,13.514l0.862,-0.5"></path><path d="M13.414,13.1c0.781,0.781 0.781,2.047 0,2.828c-0.781,0.781 -2.047,0.781 -2.828,0c-0.781,-0.781 -0.781,-2.047 0,-2.828c0.781,-0.781 2.047,-0.781 2.828,0"></path></g><path fill="none" d="M0,0.014h24v24h-24v-24Z"></path></svg>