<?xml version="1.0" encoding="UTF-8"?><svg version="1.1" viewBox="0 0 24 24" xmlns="http://www.w3.org/2000/svg" xmlns:xlink="http://www.w3.org/1999/xlink"><!--Generated by IJSVG (https://github.com/iconjar/IJSVG)--><g stroke-linecap="round" stroke-width="1.5" stroke="#323232" fill="none" stroke-linejoin="round"><path d="M14.292,16.663l-0.729,-0.781l-0.729,0.781"></path><path d="M18.834,19.405c-0.547,0.373 -1.205,0.595 -1.917,0.595c-1.89,0 -3.422,-1.532 -3.422,-3.422c0,-0.229 0.024,-0.453 0.067,-0.67"></path><path d="M19.542,16.564l0.729,0.78l0.729,-0.78"></path><path d="M14.999,13.822c0.547,-0.373 1.205,-0.594 1.917,-0.594c1.89,0 3.422,1.532 3.422,3.422c0,0.229 -0.024,0.452 -0.068,0.67"></path><path d="M15,3v2"></path><path d="M7,3v2"></path><path d="M3,8h16"></path><path d="M19,10v-4c0,-1.105 -0.895,-2 -2,-2h-12c-1.105,0 -2,0.895 -2,2v11c0,1.105 0.895,2 2,2h5"></path><path d="M6.999,10.75c-0.138,0 -0.25,0.112 -0.249,0.25c0,0.138 0.112,0.25 0.25,0.25c0.138,0 0.25,-0.112 0.25,-0.25c0,-0.138 -0.112,-0.25 -0.251,-0.25"></path><path d="M6.999,14.75c-0.138,0 -0.25,0.112 -0.249,0.25c0,0.138 0.112,0.25 0.25,0.25c0.138,0 0.25,-0.112 0.25,-0.25c0,-0.138 -0.112,-0.25 -0.251,-0.25"></path><path d="M10.75,11.001c0,0.138 0.112,0.25 0.25,0.249c0.138,0 0.25,-0.112 0.25,-0.25c0,-0.138 -0.112,-0.25 -0.25,-0.25c-0.138,0 -0.25,0.112 -0.25,0.251"></path></g><path fill="none" d="M0,0h24v24h-24Z"></path></svg>