<?xml version="1.0" encoding="UTF-8"?><svg version="1.1" viewBox="0 0 24 24" xmlns="http://www.w3.org/2000/svg" xmlns:xlink="http://www.w3.org/1999/xlink"><!--Generated by IJSVG (https://github.com/iconjar/IJSVG)--><g stroke-linecap="round" stroke-width="1.5" stroke="#323232" fill="none" stroke-linejoin="round"><path d="M16,2v4"></path><path d="M8,2v4"></path><path d="M3,9h18"></path><path d="M19,4h-14c-1.105,0 -2,0.895 -2,2v13c0,1.105 0.895,2 2,2h14c1.105,0 2,-0.895 2,-2v-13c0,-1.105 -0.895,-2 -2,-2Z"></path><path d="M12.013,12.729c-0.138,0 -0.25,0.112 -0.249,0.25c0,0.138 0.112,0.25 0.25,0.25c0.138,0 0.25,-0.112 0.25,-0.25c0,-0.138 -0.112,-0.25 -0.251,-0.25"></path><path d="M17.013,12.729c-0.138,0 -0.25,0.112 -0.249,0.25c0,0.138 0.112,0.25 0.25,0.25c0.138,0 0.25,-0.112 0.25,-0.25c-3.55271e-15,-0.138 -0.112,-0.25 -0.251,-0.25"></path><path d="M7.013,16.729c-0.138,0 -0.25,0.112 -0.249,0.25c0,0.138 0.112,0.25 0.25,0.25c0.138,0 0.25,-0.112 0.25,-0.25c0,-0.138 -0.112,-0.25 -0.251,-0.25"></path><path d="M12.013,16.729c-0.138,0 -0.25,0.112 -0.249,0.25c0,0.138 0.112,0.25 0.25,0.25c0.138,0 0.25,-0.112 0.25,-0.25c0,-0.138 -0.112,-0.25 -0.251,-0.25"></path></g><path fill="none" d="M0,0h24v24h-24Z"></path></svg>