<?xml version="1.0" encoding="UTF-8"?><svg version="1.1" viewBox="0 0 24 24" xmlns="http://www.w3.org/2000/svg" xmlns:xlink="http://www.w3.org/1999/xlink"><!--Generated by IJSVG (https://github.com/iconjar/IJSVG)--><g stroke-linecap="round" stroke-width="1.5" stroke="#323232" fill="none" stroke-linejoin="round"><path d="M7,7h10"></path><path d="M12,16.163l1.504,0.79c0.293,0.154 0.635,-0.095 0.579,-0.421l-0.287,-1.675l1.217,-1.185c0.237,-0.231 0.106,-0.633 -0.221,-0.681l-1.682,-0.244l-0.752,-1.525c-0.146,-0.297 -0.57,-0.297 -0.716,0l-0.752,1.525l-1.682,0.245c-0.327,0.047 -0.458,0.45 -0.221,0.681l1.217,1.185l-0.287,1.675c-0.056,0.326 0.286,0.575 0.579,0.421l1.504,-0.791"></path><path d="M19,3.156h-14c-1.105,0 -2,0.895 -2,2v13.844c0,1.105 0.895,2 2,2h14c1.105,0 2,-0.895 2,-2v-13.844c0,-1.105 -0.895,-2 -2,-2Z"></path></g><path fill="none" d="M0,0h24v24h-24v-24Z"></path></svg>