<?xml version="1.0" encoding="UTF-8"?><svg version="1.1" viewBox="0 0 24 24" xmlns="http://www.w3.org/2000/svg" xmlns:xlink="http://www.w3.org/1999/xlink"><!--Generated by IJSVG (https://github.com/iconjar/IJSVG)--><g fill="none"><path d="M0,0h24v24h-24v-24Z"></path><path stroke="#323232" stroke-linecap="round" stroke-linejoin="round" stroke-width="1.5" d="M15.5,2.5h4c1.105,0 2,0.895 2,2v4c0,1.105 -0.895,2 -2,2h-4c-1.105,0 -2,-0.895 -2,-2v-4c0,-1.105 0.895,-2 2,-2Z"></path><path stroke="#323232" stroke-linecap="round" stroke-linejoin="round" stroke-width="1.5" d="M17.5,10.5v-8"></path><path stroke="#323232" stroke-linecap="round" stroke-linejoin="round" stroke-width="1.5" d="M4.5,13.5h4c1.105,0 2,0.895 2,2v4c0,1.105 -0.895,2 -2,2h-4c-1.105,0 -2,-0.895 -2,-2v-4c0,-1.105 0.895,-2 2,-2Z"></path><path stroke="#323232" stroke-linecap="round" stroke-linejoin="round" stroke-width="1.5" d="M9.91,14.09l-6.82,6.82"></path><path stroke="#323232" stroke-linecap="round" stroke-linejoin="round" stroke-width="1.5" d="M17.327,17.328c-0.095,0.095 -0.095,0.25 0.001,0.344c0.095,0.095 0.25,0.095 0.345,0c0.095,-0.095 0.095,-0.25 0,-0.345c-0.095,-0.095 -0.25,-0.095 -0.346,0.001"></path><path stroke="#323232" stroke-linecap="round" stroke-linejoin="round" stroke-width="1.5" d="M2.5,8.5v-4c0,-1.105 0.895,-2 2,-2h4c1.105,0 2,0.895 2,2v4c0,1.105 -0.895,2 -2,2h-4c-1.105,0 -2,-0.895 -2,-2Z"></path><path stroke="#323232" stroke-linecap="round" stroke-linejoin="round" stroke-width="1.5" d="M13.5,19.5v-4c0,-1.105 0.895,-2 2,-2h4c1.105,0 2,0.895 2,2v4c0,1.105 -0.895,2 -2,2h-4c-1.105,0 -2,-0.895 -2,-2Z"></path><path d="M0,0h24v24h-24Z"></path></g></svg>