<?xml version="1.0" encoding="UTF-8"?><svg version="1.1" viewBox="0 0 24 24" xmlns="http://www.w3.org/2000/svg" xmlns:xlink="http://www.w3.org/1999/xlink"><!--Generated by IJSVG (https://github.com/iconjar/IJSVG)--><g fill="none"><path d="M0,0h24v24h-24v-24Z"></path><path stroke="#323232" stroke-linecap="round" stroke-linejoin="round" stroke-width="1.5" d="M17.657,7.343c3.124,3.124 3.124,8.19 0,11.314c-3.124,3.124 -8.19,3.124 -11.314,0c-3.124,-3.124 -3.124,-8.19 0,-11.314c3.124,-3.124 8.19,-3.124 11.314,0"></path><path stroke="#323232" stroke-linecap="round" stroke-linejoin="round" stroke-width="1.5" d="M12.5,12.998c0,-0.276 -0.224,-0.499 -0.5,-0.498c-0.276,0.001 -0.5,0.225 -0.5,0.501c0,0.276 0.223,0.499 0.499,0.499c0.276,0 0.5,-0.224 0.501,-0.501"></path><path stroke="#323232" stroke-linecap="round" stroke-linejoin="round" stroke-width="1.5" d="M12,9v4"></path><path stroke="#323232" stroke-linecap="round" stroke-linejoin="round" stroke-width="1.5" d="M10,2h4"></path><path stroke="#323232" stroke-linecap="round" stroke-linejoin="round" stroke-width="1.5" d="M21,6l-2,-2l1,1l-2.343,2.343"></path></g></svg>