<?xml version="1.0" encoding="UTF-8"?><svg version="1.1" viewBox="0 0 24 24" xmlns="http://www.w3.org/2000/svg" xmlns:xlink="http://www.w3.org/1999/xlink"><!--Generated by IJSVG (https://github.com/iconjar/IJSVG)--><g stroke-linecap="round" stroke-width="1.5" stroke="#323232" fill="none" stroke-linejoin="round"><path d="M17,21c-2.209,0 -4,-1.791 -4,-4c0,-2.164 1.84,-4.002 4.003,-4c2.208,0.002 3.997,1.792 3.997,4c0,2.209 -1.79,4 -4,4"></path><path d="M17,15.5v3"></path><path d="M18.5,17h-3"></path><path d="M9,2h4"></path><path d="M8.17,10.17l2.83,2.83"></path><path d="M19,5l-2.34,2.34"></path><path d="M18,4l2,2"></path><path d="M19,13.535v-0.535c0,-4.418 -3.582,-8 -8,-8c-4.418,0 -8,3.582 -8,8c0,4.418 3.582,8 8,8c1.276,0 2.477,-0.307 3.547,-0.838"></path></g><path fill="none" fill-rule="evenodd" d="M0,0h24v24h-24Z"></path></svg>