<?xml version="1.0" encoding="UTF-8"?><svg version="1.1" viewBox="0 0 24 24" xmlns="http://www.w3.org/2000/svg" xmlns:xlink="http://www.w3.org/1999/xlink"><!--Generated by IJSVG (https://github.com/iconjar/IJSVG)--><g stroke-linecap="round" stroke-width="1.5" stroke="#323232" fill="none" stroke-linejoin="round"><path d="M10,2h4"></path><path d="M17.6569,7.34315c3.12419,3.12419 3.12419,8.18951 0,11.3137c-3.12419,3.12419 -8.18951,3.12419 -11.3137,0c-3.12419,-3.12419 -3.12419,-8.18951 -1.77636e-15,-11.3137c3.12419,-3.12419 8.18951,-3.12419 11.3137,-1.77636e-15"></path><path d="M11.998,12.5c-0.276,0 -0.5,0.224 -0.498,0.5c0,0.276 0.224,0.5 0.5,0.5c0.276,0 0.5,-0.224 0.5,-0.5c0,-0.276 -0.224,-0.5 -0.502,-0.5"></path><path d="M15.536,16.536c-0.905,0.904 -2.155,1.464 -3.536,1.464c-2.761,0 -5,-2.239 -5,-5c0,-0.311 0.036,-0.612 0.095,-0.905"></path><path d="M8.46,9.46l3.19,3.19"></path><path d="M20,5l-2.34,2.34"></path><path d="M19,4l2,2"></path></g><path fill="none" d="M0,0h24v24h-24Z"></path></svg>