<?xml version="1.0" encoding="UTF-8"?><svg version="1.1" viewBox="0 0 24 24" xmlns="http://www.w3.org/2000/svg" xmlns:xlink="http://www.w3.org/1999/xlink"><!--Generated by IJSVG (https://github.com/iconjar/IJSVG)--><g stroke-linecap="round" stroke-width="1.5" stroke="#323232" fill="none" stroke-linejoin="round"><path d="M10,2h4"></path><path d="M17.6569,7.34315c3.12419,3.12419 3.12419,8.18951 0,11.3137c-3.12419,3.12419 -8.18951,3.12419 -11.3137,0c-3.12419,-3.12419 -3.12419,-8.18951 -1.77636e-15,-11.3137c3.12419,-3.12419 8.18951,-3.12419 11.3137,-1.77636e-15"></path><path stroke-width="1.625" d="M11.999,8c-0.135,0 -0.244,0.109 -0.243,0.244c0,0.135 0.109,0.244 0.244,0.244c0.135,0 0.244,-0.109 0.244,-0.244c0,-0.135 -0.109,-0.244 -0.245,-0.244"></path><path stroke-width="1.625" d="M11.999,17.512c-0.135,0 -0.244,0.109 -0.243,0.244c0,0.135 0.109,0.244 0.244,0.244c0.135,0 0.244,-0.109 0.244,-0.244c0,-0.135 -0.109,-0.244 -0.245,-0.244"></path><path stroke-width="1.625" d="M17,12.999c0,-0.135 -0.109,-0.244 -0.244,-0.243c-0.135,0 -0.244,0.109 -0.244,0.244c0,0.135 0.109,0.244 0.244,0.244c0.135,0 0.244,-0.109 0.244,-0.245"></path><path stroke-width="1.625" d="M7.488,12.999c0,-0.135 -0.109,-0.244 -0.244,-0.243c-0.135,0 -0.244,0.109 -0.244,0.244c0,0.135 0.109,0.244 0.244,0.244c0.135,0 0.244,-0.109 0.244,-0.245"></path><path stroke-width="1.625" d="M15.535,9.464c-0.095,-0.095 -0.25,-0.095 -0.344,0.001c-0.095,0.095 -0.095,0.25 0,0.345c0.095,0.095 0.25,0.095 0.345,0c0.095,-0.096 0.095,-0.25 -0.001,-0.346"></path><path stroke-width="1.625" d="M8.809,16.19c-0.095,-0.095 -0.25,-0.095 -0.344,0.001c-0.095,0.095 -0.095,0.25 0,0.345c0.095,0.095 0.25,0.095 0.345,0c0.095,-0.095 0.095,-0.25 -0.001,-0.346"></path><path stroke-width="1.625" d="M15.536,16.535c0.095,-0.095 0.095,-0.25 -0.001,-0.344c-0.095,-0.095 -0.25,-0.095 -0.345,0c-0.095,0.095 -0.095,0.25 0,0.345c0.096,0.095 0.25,0.095 0.346,-0.001"></path><path stroke-width="1.625" d="M8.81,9.809c0.095,-0.095 0.095,-0.25 -0.001,-0.344c-0.095,-0.095 -0.25,-0.095 -0.345,0c-0.095,0.095 -0.095,0.25 0,0.345c0.095,0.095 0.25,0.095 0.346,-0.001"></path></g><path fill="none" d="M0,0h24v24h-24Z"></path></svg>