<?xml version="1.0" encoding="UTF-8"?><svg version="1.1" viewBox="0 0 24 24" xmlns="http://www.w3.org/2000/svg" xmlns:xlink="http://www.w3.org/1999/xlink"><!--Generated by IJSVG (https://github.com/iconjar/IJSVG)--><g stroke-linecap="round" stroke-width="1.5" stroke="#323232" fill="none" stroke-linejoin="round"><path d="M10,2h4"></path><path d="M17.6569,7.34315c3.12419,3.12419 3.12419,8.18951 0,11.3137c-3.12419,3.12419 -8.18951,3.12419 -11.3137,0c-3.12419,-3.12419 -3.12419,-8.18951 -1.77636e-15,-11.3137c3.12419,-3.12419 8.18951,-3.12419 11.3137,-1.77636e-15"></path><path d="M20,5l-2.34,2.34"></path><path d="M19,4l2,2"></path><path d="M11.998,12.5c-0.276,0 -0.5,0.224 -0.498,0.5c0,0.276 0.224,0.5 0.5,0.5c0.276,0 0.5,-0.224 0.5,-0.5c0,-0.276 -0.224,-0.5 -0.502,-0.5"></path><path d="M12,18v-4.5"></path><path d="M13.913,8.383c1.811,0.751 3.087,2.534 3.087,4.617c0,1.631 -0.792,3.065 -2,3.977"></path></g><path fill="none" d="M0,0h24v24h-24Z"></path></svg>