<?xml version="1.0" encoding="UTF-8"?><svg version="1.1" viewBox="0 0 24 24" xmlns="http://www.w3.org/2000/svg" xmlns:xlink="http://www.w3.org/1999/xlink"><!--Generated by IJSVG (https://github.com/iconjar/IJSVG)--><g fill="none"><path d="M4,4h16v16h-16v-16Z"></path><path stroke="#323232" stroke-linecap="round" stroke-linejoin="round" stroke-width="1.5" d="M10.333,10.333h-1.666c-0.921,0 -1.667,-0.746 -1.667,-1.666v0c0,-0.921 0.746,-1.667 1.667,-1.667v0c0.921,0 1.667,0.746 1.667,1.667v1.666Z"></path><path stroke="#323232" stroke-linecap="round" stroke-linejoin="round" stroke-width="1.5" d="M10.333,10.333h3.333v3.333h-3.333v-3.333Z"></path><path stroke="#323232" stroke-linecap="round" stroke-linejoin="round" stroke-width="1.5" d="M8.667,17v0c-0.921,0 -1.667,-0.746 -1.667,-1.667v0c0,-0.921 0.746,-1.667 1.667,-1.667h1.667v1.667c-0.001,0.921 -0.747,1.667 -1.667,1.667Z"></path><path stroke="#323232" stroke-linecap="round" stroke-linejoin="round" stroke-width="1.5" d="M13.667,13.667h1.667c0.921,0 1.667,0.746 1.667,1.667v0c-0.001,0.92 -0.747,1.666 -1.668,1.666v0c-0.921,0 -1.667,-0.746 -1.667,-1.667v-1.666Z"></path><path stroke="#323232" stroke-linecap="round" stroke-linejoin="round" stroke-width="1.5" d="M19,21h-14c-1.105,0 -2,-0.895 -2,-2v-14c0,-1.105 0.895,-2 2,-2h14c1.105,0 2,0.895 2,2v14c0,1.105 -0.895,2 -2,2Z"></path><path stroke="#323232" stroke-linecap="round" stroke-linejoin="round" stroke-width="1.5" d="M15.333,7v0c0.921,0 1.667,0.746 1.667,1.667v0c0,0.921 -0.746,1.667 -1.667,1.667h-1.667v-1.667c0.001,-0.921 0.747,-1.667 1.667,-1.667Z"></path><path d="M0,0h24v24h-24v-24Z"></path></g></svg>