<?xml version="1.0" encoding="UTF-8"?><svg version="1.1" viewBox="0 0 24 24" xmlns="http://www.w3.org/2000/svg" xmlns:xlink="http://www.w3.org/1999/xlink"><!--Generated by IJSVG (https://github.com/iconjar/IJSVG)--><g stroke-linecap="round" stroke-width="1.5" stroke="#323232" fill="none" stroke-linejoin="round"><path d="M16.747,6.18703c2.91604,2.91604 2.91604,7.64389 0,10.5599c-2.91604,2.91604 -7.64389,2.91604 -10.5599,0c-2.91604,-2.91604 -2.91604,-7.64389 -8.88178e-16,-10.5599c2.91604,-2.91604 7.64389,-2.91604 10.5599,-8.88178e-16"></path><path d="M17.04,17.04l2.96,2.96"></path><path d="M11.93,10l-0.93,3"></path><path d="M14.35,13l1.65,-1.5"></path><path d="M14.35,10l1.65,1.5"></path><path d="M11,13l0.93,-3"></path><path d="M8.58,10l-1.65,1.5"></path><path d="M8.58,13l-1.65,-1.5"></path></g><path fill="none" d="M0,0h24v24h-24Z"></path></svg>