<?xml version="1.0" encoding="UTF-8"?><svg version="1.1" viewBox="0 0 24 24" xmlns="http://www.w3.org/2000/svg" xmlns:xlink="http://www.w3.org/1999/xlink"><!--Generated by IJSVG (https://github.com/iconjar/IJSVG)--><g fill="none"><path d="M0,0h24v24h-24v-24Z"></path><path stroke="#323232" stroke-linecap="round" stroke-linejoin="round" stroke-width="1.5" d="M5.636,5.636v0c3.515,-3.515 9.213,-3.515 12.728,0v0c3.515,3.515 3.515,9.213 0,12.728v0c-3.515,3.515 -9.213,3.515 -12.728,0v0c-3.515,-3.515 -3.515,-9.213 -8.88178e-16,-12.728Z"></path><path stroke="#323232" stroke-linecap="round" stroke-linejoin="round" stroke-width="1.5" d="M12.8839,11.1161c0.488155,0.488155 0.488155,1.27961 0,1.76777c-0.488155,0.488155 -1.27961,0.488155 -1.76777,0c-0.488155,-0.488155 -0.488155,-1.27961 0,-1.76777c0.488155,-0.488155 1.27961,-0.488155 1.76777,0"></path><path stroke="#323232" stroke-linecap="round" stroke-linejoin="round" stroke-width="1.5" d="M7.811,15.645l0.578,-6.35c0.044,-0.481 0.425,-0.862 0.905,-0.905l6.35,-0.577c0.311,-0.028 0.571,0.232 0.543,0.543l-0.577,6.35c-0.044,0.481 -0.425,0.862 -0.905,0.905l-6.351,0.577c-0.31,0.028 -0.571,-0.232 -0.543,-0.543Z"></path></g></svg>