<?xml version="1.0" encoding="UTF-8"?><svg version="1.1" viewBox="0 0 24 24" xmlns="http://www.w3.org/2000/svg" xmlns:xlink="http://www.w3.org/1999/xlink"><!--Generated by IJSVG (https://github.com/iconjar/IJSVG)--><g stroke-linecap="round" stroke-width="1.5" stroke="#323232" fill="none" stroke-linejoin="round"><path d="M18.994,9.958l1.601,-1.6c1.439,3.399 0.779,7.476 -1.992,10.246c-3.367,3.367 -8.661,3.618 -12.324,0.768"></path><path d="M17.721,4.628c-3.664,-2.85 -8.958,-2.599 -12.324,0.768c-2.77,2.77 -3.431,6.847 -1.992,10.246l1.601,-1.601"></path><path d="M15,15h-6v-6"></path><path d="M15,17v-2h2"></path><path d="M9,7v2h-2"></path><path d="M12,9h3v3"></path></g><path fill="none" d="M0,0h24v24h-24Z" transform="matrix(6.12323e-17,-1,1,6.12323e-17,0,24)"></path></svg>