<?xml version="1.0" encoding="UTF-8"?><svg version="1.1" viewBox="0 0 24 24" xmlns="http://www.w3.org/2000/svg" xmlns:xlink="http://www.w3.org/1999/xlink"><!--Generated by IJSVG (https://github.com/iconjar/IJSVG)--><g fill="none"><path d="M0,0h24v24h-24Z"></path><path stroke="#323232" stroke-linecap="round" stroke-linejoin="round" stroke-width="1.5" d="M15.97,9.97l-1,1"></path><path stroke="#323232" stroke-linecap="round" stroke-linejoin="round" stroke-width="1.5" d="M12,8v1"></path><path stroke="#323232" stroke-linecap="round" stroke-linejoin="round" stroke-width="1.5" d="M8.03,9.97l1,1"></path><path stroke="#323232" stroke-linecap="round" stroke-linejoin="round" stroke-width="1.5" d="M17.95,13.95h-1"></path><path stroke="#323232" stroke-linecap="round" stroke-linejoin="round" stroke-width="1.5" d="M6.05,13.95h1"></path><path stroke="#323232" stroke-linecap="round" stroke-linejoin="round" stroke-width="1.5" d="M19.482,18c1.138,-1.7 1.714,-3.807 1.457,-6.058c-0.469,-4.106 -3.815,-7.436 -7.923,-7.886c-5.425,-0.595 -10.016,3.638 -10.016,8.944c0,1.851 0.56,3.57 1.518,5"></path><path stroke="#323232" stroke-linecap="round" stroke-linejoin="round" stroke-width="1.4991" d="M10,16v0c0,1.102 0.894,1.996 1.998,1.996h0.005c1.103,-0.001 1.997,-0.894 1.997,-1.996v0l-0.001,-0.004h0.001c0,-1.116 -1.086,-2.31 -1.657,-2.861c-0.193,-0.186 -0.492,-0.186 -0.685,0c-0.572,0.551 -1.658,1.745 -1.658,2.86"></path></g></svg>