<?xml version="1.0" encoding="UTF-8"?><svg version="1.1" viewBox="0 0 24 24" xmlns="http://www.w3.org/2000/svg" xmlns:xlink="http://www.w3.org/1999/xlink"><!--Generated by IJSVG (https://github.com/iconjar/IJSVG)--><defs><path d="M12,5v2" id="a"></path><path d="M13.4142,11.5858c0.781049,0.781049 0.781049,2.04738 0,2.82843c-0.781049,0.781049 -2.04738,0.781049 -2.82843,0c-0.781049,-0.781049 -0.781049,-2.04738 0,-2.82843c0.781049,-0.781049 2.04738,-0.781049 2.82843,0" id="b"></path></defs><g stroke-linecap="round" stroke-width="1.5" stroke="#323232" fill="none" stroke-linejoin="round"><use xlink:href="#a"></use><path d="M19,14h2"></path><path d="M3,14h2"></path><use xlink:href="#b"></use><use xlink:href="#a"></use><path d="M21,14h-2"></path><path d="M5,14h-2"></path><path d="M15.41,9.59l-2,2"></path><use xlink:href="#b"></use><path d="M18.319,19h-12.64c-0.75,0 -1.456,-0.409 -1.782,-1.084c-0.716,-1.478 -1.041,-3.182 -0.835,-4.976c0.47,-4.106 3.817,-7.436 7.925,-7.885c5.424,-0.592 10.013,3.64 10.013,8.945c0,1.399 -0.32,2.723 -0.89,3.903c-0.328,0.681 -1.036,1.097 -1.791,1.097Z"></path></g><path fill="none" d="M0,0h24v24h-24Z"></path></svg>