<?xml version="1.0" encoding="UTF-8"?><svg version="1.1" viewBox="0 0 24 24" xmlns="http://www.w3.org/2000/svg" xmlns:xlink="http://www.w3.org/1999/xlink"><!--Generated by IJSVG (https://github.com/iconjar/IJSVG)--><g fill="none"><path d="M0,0h24v24h-24Z"></path><path stroke="#323232" stroke-linecap="round" stroke-linejoin="round" stroke-width="1.5" d="M7.414,20.414l-3.828,-3.828c-0.375,-0.375 -0.586,-0.884 -0.586,-1.414v-6.344c0,-0.53 0.211,-1.039 0.586,-1.414l3.828,-3.828c0.375,-0.375 0.884,-0.586 1.414,-0.586h6.343c0.53,0 1.039,0.211 1.414,0.586l3.828,3.828c0.376,0.375 0.587,0.884 0.587,1.414v6.343c0,0.53 -0.211,1.039 -0.586,1.414l-4.414,4.415h-7.172c-0.53,0 -1.039,-0.211 -1.414,-0.586Z"></path><path stroke="#323232" stroke-linecap="round" stroke-linejoin="round" stroke-width="1.5" d="M9,15l6,-6"></path><path stroke="#323232" stroke-linecap="round" stroke-linejoin="round" stroke-width="1.5" d="M15,15l-6,-6"></path></g></svg>