<?xml version="1.0" encoding="UTF-8"?><svg version="1.1" viewBox="0 0 24 24" xmlns="http://www.w3.org/2000/svg" xmlns:xlink="http://www.w3.org/1999/xlink"><!--Generated by IJSVG (https://github.com/iconjar/IJSVG)--><g fill="none"><path d="M0,0h24v24h-24v-24Z"></path><path stroke="#323232" stroke-linecap="round" stroke-linejoin="round" stroke-width="1.5" d="M18.293,20.707l3.414,-3.414c0.391,-0.391 0.391,-1.024 0,-1.414l-1.586,-1.586c-0.391,-0.391 -1.024,-0.391 -1.414,0l-3.414,3.414c-0.188,0.188 -0.293,0.442 -0.293,0.707v2.586h2.586c0.265,0 0.519,-0.105 0.707,-0.293Z"></path><path stroke="#323232" stroke-linecap="round" stroke-linejoin="round" stroke-width="1.5" d="M7,14h4"></path><path stroke="#323232" stroke-linecap="round" stroke-linejoin="round" stroke-width="1.5" d="M7,9h8"></path><path stroke="#323232" stroke-linecap="round" stroke-linejoin="round" stroke-width="1.5" d="M19,10v-3c0,-1.657 -1.343,-3 -3,-3h-10c-1.657,0 -3,1.343 -3,3v9c0,1.657 1.343,3 3,3h5"></path></g></svg>