<?xml version="1.0" encoding="UTF-8"?><svg version="1.1" viewBox="0 0 24 24" xmlns="http://www.w3.org/2000/svg" xmlns:xlink="http://www.w3.org/1999/xlink"><!--Generated by IJSVG (https://github.com/iconjar/IJSVG)--><g fill="none"><path d="M0,0h24v24h-24v-24Z"></path><path stroke="#323232" stroke-linecap="round" stroke-linejoin="round" stroke-width="1.5" d="M12,17v-6"></path><path stroke="#323232" stroke-linecap="round" stroke-linejoin="round" stroke-width="1.5" d="M12,6.885c-0.07,0 -0.125,0.055 -0.125,0.125c0,0.07 0.055,0.125 0.125,0.125c0.07,0 0.125,-0.055 0.125,-0.125c0,-0.07 -0.055,-0.125 -0.125,-0.125"></path><path stroke="#323232" stroke-linecap="round" stroke-linejoin="round" stroke-width="1.5" d="M12,2.9c-0.07,0 -0.125,0.055 -0.125,0.125c0,0.07 0.055,0.125 0.125,0.125c0.07,0 0.125,-0.055 0.125,-0.125c0,-0.07 -0.055,-0.125 -0.125,-0.125"></path><path stroke="#323232" stroke-linecap="round" stroke-linejoin="round" stroke-width="1.5" d="M20,21h-16"></path><path stroke="#323232" stroke-linecap="round" stroke-linejoin="round" stroke-width="1.5" d="M16,13l-4.001,4.001l-4,-4.001"></path></g></svg>