<?xml version="1.0" encoding="UTF-8"?><svg version="1.1" viewBox="0 0 24 24" xmlns="http://www.w3.org/2000/svg" xmlns:xlink="http://www.w3.org/1999/xlink"><!--Generated by IJSVG (https://github.com/iconjar/IJSVG)--><g fill="none"><path d="M0,0h24v24h-24Z"></path><path stroke="#323232" stroke-linecap="round" stroke-linejoin="round" stroke-width="1.5" d="M13.914,16.62c-0.627,0.259 -1.276,0.38 -1.914,0.38c-2.761,0 -5,-2.239 -5,-5c0,-2.761 2.239,-5 5,-5c2.761,0 5,2.239 5,5v0.833c0,0.863 -0.7,1.562 -1.562,1.562c-0.862,0 -1.562,-0.7 -1.562,-1.562v-0.833c0,-1.036 -0.839,-1.875 -1.875,-1.875v0c-1.036,0 -1.875,0.839 -1.875,1.875c0,1.036 0.839,1.875 1.875,1.875c1.036,0 1.875,-0.839 1.875,-1.875"></path><path stroke="#323232" stroke-linecap="round" stroke-linejoin="round" stroke-width="1.5" d="M5,3h14c1.105,0 2,0.895 2,2v14c0,1.105 -0.895,2 -2,2h-14c-1.105,0 -2,-0.895 -2,-2v-14c0,-1.105 0.895,-2 2,-2Z"></path></g></svg>