<?xml version="1.0" encoding="UTF-8"?><svg version="1.1" viewBox="0 0 24 24" xmlns="http://www.w3.org/2000/svg" xmlns:xlink="http://www.w3.org/1999/xlink"><!--Generated by IJSVG (https://github.com/iconjar/IJSVG)--><g fill="none"><path d="M0,0h24v24h-24Z"></path><path stroke="#323232" stroke-linecap="round" stroke-linejoin="round" stroke-width="1.5" d="M14.163,21l4.444,-0.988c0.814,-0.18 1.393,-0.902 1.393,-1.735v-12.511c0,-0.833 -0.579,-1.555 -1.392,-1.735l-4.444,-0.988c-1.111,-0.247 -2.164,0.598 -2.164,1.736v14.486c0,1.137 1.053,1.982 2.163,1.735Z"></path><path stroke="#323232" stroke-linecap="round" stroke-linejoin="round" stroke-width="1.5" d="M15,10.98v2"></path><path stroke="#323232" stroke-linecap="round" stroke-linejoin="round" stroke-width="1.5" d="M4,16v2.042c0,1.105 0.895,2 2,2h3"></path><path stroke="#323232" stroke-linecap="round" stroke-linejoin="round" stroke-width="1.5" d="M4,8v-2c0,-1.105 0.895,-2 2,-2h3"></path><path stroke="#323232" stroke-linecap="round" stroke-linejoin="round" stroke-width="1.5" d="M4,12h5"></path><path stroke="#323232" stroke-linecap="round" stroke-linejoin="round" stroke-width="1.5" d="M7,14l2,-2l-2,-2"></path></g></svg>