<?xml version="1.0" encoding="UTF-8"?><svg version="1.1" viewBox="0 0 24 24" xmlns="http://www.w3.org/2000/svg" xmlns:xlink="http://www.w3.org/1999/xlink"><!--Generated by IJSVG (https://github.com/iconjar/IJSVG)--><g fill="none"><path d="M0,0h24v24h-24Z"></path><path stroke="#323232" stroke-linecap="round" stroke-linejoin="round" stroke-width="1.5" d="M3.118,12.467c-0.157,-0.291 -0.157,-0.644 0,-0.935c1.892,-3.499 5.387,-6.532 8.882,-6.532c3.495,0 6.99,3.033 8.882,6.533c0.157,0.291 0.157,0.644 0,0.935c-1.892,3.499 -5.387,6.532 -8.882,6.532c-3.495,0 -6.99,-3.033 -8.882,-6.533Z"></path><path stroke="#323232" stroke-linecap="round" stroke-linejoin="round" stroke-width="1.4286" d="M14.1213,9.87868c1.17157,1.17157 1.17157,3.07107 0,4.24264c-1.17157,1.17157 -3.07107,1.17157 -4.24264,0c-1.17157,-1.17157 -1.17157,-3.07107 0,-4.24264c1.17157,-1.17157 3.07107,-1.17157 4.24264,0"></path></g></svg>