<?xml version="1.0" encoding="UTF-8"?><svg version="1.1" viewBox="0 0 24 24" xmlns="http://www.w3.org/2000/svg" xmlns:xlink="http://www.w3.org/1999/xlink"><!--Generated by IJSVG (https://github.com/iconjar/IJSVG)--><g stroke-linecap="round" stroke-width="1.5" stroke="#323232" fill="none" stroke-linejoin="round"><path d="M18.364,5.63604c3.51472,3.51472 3.51472,9.2132 0,12.7279c-3.51472,3.51472 -9.2132,3.51472 -12.7279,0c-3.51472,-3.51472 -3.51472,-9.2132 -1.77636e-15,-12.7279c3.51472,-3.51472 9.2132,-3.51472 12.7279,-1.77636e-15"></path><path d="M6.536,13.073c-0.427,-0.646 -0.427,-1.5 0,-2.146c1.32,-1.995 3.392,-3.594 5.464,-3.594c2.072,0 4.144,1.599 5.464,3.593c0.428,0.646 0.428,1.501 0,2.146c-1.321,1.995 -3.392,3.593 -5.464,3.593c-2.072,0.002 -4.144,-1.597 -5.464,-3.592Z"></path><path d="M13.2374,10.7626c0.683418,0.683418 0.683418,1.79146 0,2.47487c-0.683418,0.683418 -1.79146,0.683418 -2.47487,0c-0.683418,-0.683418 -0.683418,-1.79146 0,-2.47487c0.683418,-0.683418 1.79146,-0.683418 2.47487,0"></path></g><path fill="none" d="M0,0h24v24h-24Z"></path></svg>