<?xml version="1.0" encoding="UTF-8"?><svg version="1.1" viewBox="0 0 24 24" xmlns="http://www.w3.org/2000/svg" xmlns:xlink="http://www.w3.org/1999/xlink"><!--Generated by IJSVG (https://github.com/iconjar/IJSVG)--><g fill="none"><path d="M0,0h24v24h-24Z"></path><path stroke="#323232" stroke-linecap="round" stroke-linejoin="round" stroke-width="1.5" d="M12,19c-0.842,0 -1.685,-0.178 -2.504,-0.495"></path><path stroke="#323232" stroke-linecap="round" stroke-linejoin="round" stroke-width="1.5" d="M20.882,12.468c-1.892,3.499 -5.387,6.532 -8.882,6.532"></path><path stroke="#323232" stroke-linecap="round" stroke-linejoin="round" stroke-width="1.5" d="M19.079,8.921c0.691,0.809 1.305,1.691 1.803,2.612c0.157,0.291 0.157,0.644 0,0.935"></path><path stroke="#323232" stroke-linecap="round" stroke-linejoin="round" stroke-width="1.5" d="M5,19l14,-14"></path><path stroke="#323232" stroke-linecap="round" stroke-linejoin="round" stroke-width="1.5" d="M9.773,14.227c-1.23,-1.23 -1.23,-3.225 0,-4.455c1.23,-1.23 3.225,-1.23 4.455,0"></path><path stroke="#323232" stroke-linecap="round" stroke-linejoin="round" stroke-width="1.5" d="M17.044,6.956c-1.547,-1.197 -3.296,-1.956 -5.044,-1.956c-3.495,0 -6.99,3.033 -8.882,6.533c-0.157,0.291 -0.157,0.644 0,0.935c0.946,1.749 2.292,3.381 3.838,4.577"></path></g></svg>