<?xml version="1.0" encoding="UTF-8"?><svg version="1.1" viewBox="0 0 24 24" xmlns="http://www.w3.org/2000/svg" xmlns:xlink="http://www.w3.org/1999/xlink"><!--Generated by IJSVG (https://github.com/iconjar/IJSVG)--><g stroke-linecap="round" stroke-width="1.5" stroke="#323232" fill="none" stroke-linejoin="round"><path d="M3.135,14.998c-0.181,-0.305 -0.181,-0.691 0,-0.996c1.905,-3.223 5.385,-6.002 8.865,-6.002c3.48,0 6.959,2.779 8.864,6.001c0.181,0.306 0.181,0.693 0,0.999c-1.905,3.221 -5.384,6 -8.864,6c-3.48,0 -6.96,-2.779 -8.865,-6.002Z"></path><path stroke-width="1.4286" d="M14.121,12.379c1.172,1.172 1.172,3.071 0,4.243c-1.172,1.172 -3.071,1.172 -4.243,0c-1.172,-1.172 -1.172,-3.071 0,-4.243c1.172,-1.172 3.072,-1.172 4.243,0"></path><path d="M12,2.5v2.5"></path><path d="M5,4.5l1.68,2"></path><path d="M19,4.5l-1.68,2"></path></g><path fill="none" d="M0,0h24v24h-24v-24Z"></path></svg>