<?xml version="1.0" encoding="UTF-8"?><svg version="1.1" viewBox="0 0 24 24" xmlns="http://www.w3.org/2000/svg" xmlns:xlink="http://www.w3.org/1999/xlink"><!--Generated by IJSVG (https://github.com/iconjar/IJSVG)--><g fill="none"><path d="M0,0h24v24h-24Z"></path><path stroke="#323232" stroke-linecap="round" stroke-linejoin="round" stroke-width="1.5" d="M6.079,12.312c-0.105,-0.194 -0.105,-0.43 0,-0.623c1.261,-2.334 3.591,-4.356 5.921,-4.356c2.33,0 4.66,2.022 5.921,4.355c0.105,0.194 0.105,0.43 0,0.623c-1.261,2.334 -3.591,4.356 -5.921,4.356c-2.33,0 -4.66,-2.022 -5.921,-4.355Z"></path><path stroke="#323232" stroke-linecap="round" stroke-linejoin="round" stroke-width="1.5" d="M13.2374,10.7626c0.683418,0.683418 0.683418,1.79146 0,2.47487c-0.683418,0.683418 -1.79146,0.683418 -2.47487,0c-0.683418,-0.683418 -0.683418,-1.79146 0,-2.47487c0.683418,-0.683418 1.79146,-0.683418 2.47487,0"></path><path stroke="#323232" stroke-linecap="round" stroke-linejoin="round" stroke-width="1.5" d="M7.5,3h-2.25c-1.243,0 -2.25,1.007 -2.25,2.25v2.25"></path><path stroke="#323232" stroke-linecap="round" stroke-linejoin="round" stroke-width="1.5" d="M3,16.5v2.25c0,1.243 1.007,2.25 2.25,2.25h2.25"></path><path stroke="#323232" stroke-linecap="round" stroke-linejoin="round" stroke-width="1.5" d="M16.5,21h2.25c1.243,0 2.25,-1.007 2.25,-2.25v-2.25"></path><path stroke="#323232" stroke-linecap="round" stroke-linejoin="round" stroke-width="1.5" d="M21,7.5v-2.25c0,-1.243 -1.007,-2.25 -2.25,-2.25h-2.25"></path></g></svg>