<?xml version="1.0" encoding="UTF-8"?><svg version="1.1" viewBox="0 0 24 24" xmlns="http://www.w3.org/2000/svg" xmlns:xlink="http://www.w3.org/1999/xlink"><!--Generated by IJSVG (https://github.com/iconjar/IJSVG)--><g stroke-linecap="round" stroke-width="1.5" stroke="#323232" fill="none" stroke-linejoin="round"><path d="M3,15h4.382c0.379,0 0.725,0.214 0.894,0.553l0.447,0.894c0.17,0.339 0.516,0.553 0.895,0.553h4.764c0.379,0 0.725,-0.214 0.894,-0.553l0.447,-0.894c0.17,-0.339 0.516,-0.553 0.895,-0.553h4.382"></path><path d="M17,3h2c1.105,0 2,0.895 2,2v14c0,1.105 -0.895,2 -2,2h-14c-1.105,0 -2,-0.895 -2,-2v-14c0,-1.105 0.895,-2 2,-2h2"></path><path d="M12.01,3v9"></path><path d="M8.409,8.409l3.591,3.591l3.591,-3.591"></path></g><path fill="none" d="M0,0h24v24h-24Z"></path></svg>