<?xml version="1.0" encoding="UTF-8"?><svg version="1.1" viewBox="0 0 24 24" xmlns="http://www.w3.org/2000/svg" xmlns:xlink="http://www.w3.org/1999/xlink"><!--Generated by IJSVG (https://github.com/iconjar/IJSVG)--><g fill="none"><path d="M0,0h24v24h-24v-24Z"></path><path stroke="#323232" stroke-linecap="round" stroke-linejoin="round" stroke-width="1.5" d="M10.199,13.333v3.416c0,0.743 0.782,1.227 1.447,0.894l1.602,-0.801c0.339,-0.169 0.553,-0.516 0.553,-0.894v-2.615l2.31,-1.782c0.245,-0.189 0.389,-0.482 0.389,-0.792v-1.509c0,-0.552 -0.448,-1 -1,-1h-7c-0.552,0 -1,0.448 -1,1v1.509c0,0.31 0.144,0.602 0.389,0.792l2.31,1.782Z"></path><path stroke="#323232" stroke-linecap="round" stroke-linejoin="round" stroke-width="1.5" d="M12,21v0c-4.971,0 -9,-4.029 -9,-9v0c0,-4.971 4.029,-9 9,-9v0c4.971,0 9,4.029 9,9v0c0,4.971 -4.029,9 -9,9Z"></path></g></svg>