<?xml version="1.0" encoding="UTF-8"?><svg version="1.1" viewBox="0 0 24 24" xmlns="http://www.w3.org/2000/svg" xmlns:xlink="http://www.w3.org/1999/xlink"><!--Generated by IJSVG (https://github.com/iconjar/IJSVG)--><g fill="none"><path d="M0,0h24v24h-24v-24Z"></path><path stroke="#323232" stroke-linecap="round" stroke-linejoin="round" stroke-width="1.5" d="M19,14v0c-1.105,0 -2,-0.895 -2,-2v0c0,-1.105 0.895,-2 2,-2v0c1.105,0 2,0.895 2,2v0c0,1.105 -0.895,2 -2,2Z"></path><path stroke="#323232" stroke-linecap="round" stroke-linejoin="round" stroke-width="1.5" d="M14,19v0c0,1.105 -0.895,2 -2,2v0c-1.105,0 -2,-0.895 -2,-2v0c0,-1.105 0.895,-2 2,-2v0c1.105,0 2,0.895 2,2Z"></path><path stroke="#323232" stroke-linecap="round" stroke-linejoin="round" stroke-width="1.5" d="M19,21v0c-1.105,0 -2,-0.895 -2,-2v0c0,-1.105 0.895,-2 2,-2v0c1.105,0 2,0.895 2,2v0c0,1.105 -0.895,2 -2,2Z"></path><path stroke="#323232" stroke-linecap="round" stroke-linejoin="round" stroke-width="1.5" d="M12,7v0c-1.105,0 -2,-0.895 -2,-2v0c0,-1.105 0.895,-2 2,-2v0c1.105,0 2,0.895 2,2v0c0,1.105 -0.895,2 -2,2Z"></path><path stroke="#323232" stroke-linecap="round" stroke-linejoin="round" stroke-width="1.5" d="M17,5v0c0,-1.105 0.895,-2 2,-2v0c1.105,0 2,0.895 2,2v0c0,1.105 -0.895,2 -2,2v0c-1.105,0 -2,-0.895 -2,-2Z"></path><path stroke="#323232" stroke-linecap="round" stroke-linejoin="round" stroke-width="1.5" d="M13.41,17.59l4.18,-4.18"></path><path stroke="#323232" stroke-linecap="round" stroke-linejoin="round" stroke-width="1.5" d="M6.41,17.59l4.18,-4.18"></path><path stroke="#323232" stroke-linecap="round" stroke-linejoin="round" stroke-width="1.5" d="M13.41,10.59l4.18,-4.18"></path><path stroke="#323232" stroke-linecap="round" stroke-linejoin="round" stroke-width="1.5" d="M10,12v0c0,-1.105 0.895,-2 2,-2v0c1.105,0 2,0.895 2,2v0c0,1.105 -0.895,2 -2,2v0c-1.105,0 -2,-0.895 -2,-2Z"></path><path stroke="#323232" stroke-linecap="round" stroke-linejoin="round" stroke-width="1.5" d="M6.41,10.59l4.18,-4.18"></path><path stroke="#323232" stroke-linecap="round" stroke-linejoin="round" stroke-width="1.5" d="M5,14v0c-1.105,0 -2,-0.895 -2,-2v0c0,-1.105 0.895,-2 2,-2v0c1.105,0 2,0.895 2,2v0c0,1.105 -0.895,2 -2,2Z"></path><path stroke="#323232" stroke-linecap="round" stroke-linejoin="round" stroke-width="1.5" d="M7,19v0c0,1.105 -0.895,2 -2,2v0c-1.105,0 -2,-0.895 -2,-2v0c0,-1.105 0.895,-2 2,-2v0c1.105,0 2,0.895 2,2Z"></path><path stroke="#323232" stroke-linecap="round" stroke-linejoin="round" stroke-width="1.5" d="M5,7v0c-1.105,0 -2,-0.895 -2,-2v0c0,-1.105 0.895,-2 2,-2v0c1.105,0 2,0.895 2,2v0c0,1.105 -0.895,2 -2,2Z"></path></g></svg>