<?xml version="1.0" encoding="UTF-8"?><svg version="1.1" viewBox="0 0 24 24" xmlns="http://www.w3.org/2000/svg" xmlns:xlink="http://www.w3.org/1999/xlink"><!--Generated by IJSVG (https://github.com/iconjar/IJSVG)--><g stroke-linecap="round" stroke-width="1.5" stroke="#323232" fill="none" stroke-linejoin="round"><path d="M5.703,6.379c0.851,-0.833 1.98,-1.379 3.303,-1.379c1.719,0 2.843,0.853 3.494,1.603c0.652,-0.75 1.776,-1.603 3.494,-1.603c2.994,0 5.006,2.794 5.006,5.4c0,2.392 -1.717,4.583 -3.606,6.269"></path><path d="M4.198,8.967c-0.129,0.472 -0.198,0.955 -0.198,1.433c0,5.278 8.349,9.6 8.5,9.6c0.052,0 1.097,-0.528 2.429,-1.426"></path><path d="M21,20l-18,-16"></path></g><path fill="none" d="M0,0h24v24h-24v-24Z"></path></svg>