<?xml version="1.0" encoding="UTF-8"?><svg version="1.1" viewBox="0 0 24 24" xmlns="http://www.w3.org/2000/svg" xmlns:xlink="http://www.w3.org/1999/xlink"><!--Generated by IJSVG (https://github.com/iconjar/IJSVG)--><g stroke-linecap="round" stroke-width="1.5" stroke="#323232" fill="none" stroke-linejoin="round"><path d="M19.8284,11.6856c1.5621,1.5621 1.5621,4.09476 0,5.65685c-1.5621,1.5621 -4.09476,1.5621 -5.65685,0c-1.5621,-1.5621 -1.5621,-4.09476 -1.77636e-15,-5.65685c1.5621,-1.5621 4.09476,-1.5621 5.65685,-1.77636e-15"></path><path d="M17,13.18v2.67"></path><path d="M18.33,14.51h-2.66"></path></g><path fill="none" d="M24,24h-24v-24h24v24Z"></path><path d="M14.507,17.636c-1.62,1.174 -2.994,1.878 -3.054,1.878c-0.15,0 -8.453,-4.33 -8.453,-9.618c0,-2.611 2.001,-5.41 4.978,-5.41c1.709,0 2.827,0.855 3.475,1.606c0.648,-0.751 1.766,-1.606 3.475,-1.606c2.977,0 4.978,2.799 4.978,5.41c0,0.55 -0.107,1.086 -0.269,1.611" stroke-linecap="round" stroke-width="1.5" stroke="#323232" fill="none" stroke-linejoin="round"></path></svg>