<?xml version="1.0" encoding="UTF-8"?><svg version="1.1" viewBox="0 0 24 24" xmlns="http://www.w3.org/2000/svg" xmlns:xlink="http://www.w3.org/1999/xlink"><!--Generated by IJSVG (https://github.com/iconjar/IJSVG)--><g stroke-linecap="round" stroke-width="1.5" stroke="#323232" fill="none" stroke-linejoin="round"><path d="M3,13.8v-3.6"></path><path d="M5.88,10.2v3.6"></path><path d="M5.88,12h-2.88"></path><path d="M10.92,10.2h-2.88"></path><path d="M9.48,10.2v3.6"></path><path d="M18.12,10.2v3.6"></path><path d="M15.96,10.2h-2.88"></path><path d="M14.52,10.2v3.6"></path><path d="M18.12,10.2h1.755c0.621,0 1.125,0.504 1.125,1.125v0c0,0.621 -0.504,1.125 -1.125,1.125h-1.755"></path><path d="M3,7v-2c0,-1.105 0.895,-2 2,-2h14c1.105,0 2,0.895 2,2v2"></path><path d="M21,17v2c0,1.105 -0.895,2 -2,2h-14c-1.105,0 -2,-0.895 -2,-2v-2"></path></g><path fill="none" d="M0,0h24v24h-24v-24Z"></path></svg>