<?xml version="1.0" encoding="UTF-8"?><svg version="1.1" viewBox="0 0 24 24" xmlns="http://www.w3.org/2000/svg" xmlns:xlink="http://www.w3.org/1999/xlink"><!--Generated by IJSVG (https://github.com/iconjar/IJSVG)--><g fill="none"><path d="M0,0h24v24h-24Z"></path><path stroke="#323232" stroke-linecap="round" stroke-linejoin="round" stroke-width="1.5" d="M16,21h-8c-2.761,0 -5,-2.239 -5,-5v-8c0,-2.761 2.239,-5 5,-5h8c2.761,0 5,2.239 5,5v8c0,2.761 -2.239,5 -5,5Z"></path><path stroke="#323232" stroke-linecap="round" stroke-linejoin="round" stroke-width="1.5" d="M6.55,9.3c-0.028,0 -0.05,0.022 -0.05,0.05c0,0.028 0.022,0.05 0.05,0.05c0.028,0 0.05,-0.022 0.05,-0.05c0,-0.028 -0.022,-0.05 -0.05,-0.05"></path><path stroke="#323232" stroke-linecap="round" stroke-linejoin="round" stroke-width="1.5" d="M11.094,14.525h-0.488c-0.694,0 -1.256,-0.562 -1.256,-1.256v-2.588c0,-0.694 0.562,-1.256 1.256,-1.256h0.488c0.694,0 1.256,0.562 1.256,1.256v2.588c0,0.694 -0.562,1.256 -1.256,1.256Z"></path><path stroke="#323232" stroke-linecap="round" stroke-linejoin="round" stroke-width="1.5" d="M14.941,13.902c0.215,0.354 0.584,0.598 1.03,0.598h1c0.552,0 1,-0.448 1,-1v-0.279c0,-0.43 -0.275,-0.813 -0.684,-0.949l-1.632,-0.544c-0.408,-0.136 -0.684,-0.518 -0.684,-0.949v-0.279c0,-0.552 0.448,-1 1,-1h1c0.444,0 0.812,0.243 1.027,0.595"></path><path stroke="#323232" stroke-linecap="round" stroke-linejoin="round" stroke-width="1.5" d="M6.55,11.9v2.5"></path></g></svg>