<?xml version="1.0" encoding="UTF-8"?><svg version="1.1" viewBox="0 0 24 24" xmlns="http://www.w3.org/2000/svg" xmlns:xlink="http://www.w3.org/1999/xlink"><!--Generated by IJSVG (https://github.com/iconjar/IJSVG)--><g stroke-linecap="round" stroke-width="1.5" stroke="#323232" fill="none" stroke-linejoin="round"><path d="M13.464,10.793c0.138,0 0.249,-0.112 0.249,-0.25c0,-0.138 -0.113,-0.25 -0.25,-0.25c-0.138,0 -0.25,0.112 -0.25,0.25c-1.77636e-15,0.138 0.112,0.25 0.251,0.25"></path><path d="M9.831,11.696c-0.417,-1.321 -0.122,-2.82 0.921,-3.869c1.495,-1.498 3.918,-1.499 5.414,-0.002c1.496,1.496 1.499,3.926 0.007,5.426c-1.049,1.051 -2.55,1.349 -3.872,0.926l-0.008,0.007l-2.593,2.598c-0.684,0.685 -1.794,0.685 -2.478,0c-0.682,-0.683 -0.682,-1.789 0,-2.473l2.593,-2.598"></path><path d="M19,21h-14c-1.105,0 -2,-0.895 -2,-2v-14c0,-1.105 0.895,-2 2,-2h14c1.105,0 2,0.895 2,2v14c0,1.105 -0.895,2 -2,2Z"></path></g><path fill="none" d="M0,0h24v24h-24v-24Z"></path></svg>