<?xml version="1.0" encoding="UTF-8"?><svg version="1.1" viewBox="0 0 24 24" xmlns="http://www.w3.org/2000/svg" xmlns:xlink="http://www.w3.org/1999/xlink"><!--Generated by IJSVG (https://github.com/iconjar/IJSVG)--><g stroke-linecap="round" stroke-width="1.5" stroke="#323232" fill="none" stroke-linejoin="round"><path d="M15.031,9.342c0,-0.207 -0.168,-0.374 -0.375,-0.374c-0.207,0.001 -0.375,0.169 -0.375,0.376c0,0.207 0.168,0.375 0.375,0.374c0.207,0 0.375,-0.168 0.375,-0.375"></path><path d="M3.5,17.195l5.723,-5.736c-0.806,-2.094 -0.374,-4.556 1.311,-6.245c2.28,-2.285 5.977,-2.285 8.256,0c2.28,2.285 2.28,5.99 0,8.276c-1.701,1.705 -4.189,2.134 -6.291,1.296l-5.701,5.714h-3.298c0,0 0,-3.305 0,-3.305Z"></path></g><path fill="none" d="M0,0h24v24h-24Z"></path></svg>