<?xml version="1.0" encoding="UTF-8"?><svg version="1.1" viewBox="0 0 24 24" xmlns="http://www.w3.org/2000/svg" xmlns:xlink="http://www.w3.org/1999/xlink"><!--Generated by IJSVG (https://github.com/iconjar/IJSVG)--><g stroke-linecap="round" stroke-width="1.5" stroke="#323232" fill="none" stroke-linejoin="round"><path d="M9.418,17.373v-1.414h1.768l1.501,-1.501l2.072,0.88c0.751,0.319 1.62,0.15 2.196,-0.427l2.943,-2.943c0.577,-0.577 0.745,-1.446 0.427,-2.196l-1.502,-3.536c-0.202,-0.477 -0.582,-0.856 -1.059,-1.059l-3.536,-1.502c-0.751,-0.319 -1.619,-0.15 -2.196,0.427l-2.943,2.943c-0.576,0.576 -0.745,1.445 -0.426,2.196l0.857,2.019l-6.024,6.024v3.182h3.182l1.326,-1.326v-1.768h1.414Z"></path><path d="M14.376,8.894c-0.239,0.001 -0.433,0.195 -0.432,0.434c0,0.239 0.195,0.433 0.434,0.432c0.239,0 0.433,-0.194 0.433,-0.433c0,-0.239 -0.194,-0.433 -0.433,-0.433"></path></g><path fill="none" d="M0,0h24v24h-24Z"></path></svg>