<?xml version="1.0" encoding="UTF-8"?><svg version="1.1" viewBox="0 0 24 24" xmlns="http://www.w3.org/2000/svg" xmlns:xlink="http://www.w3.org/1999/xlink"><!--Generated by IJSVG (https://github.com/iconjar/IJSVG)--><g stroke-linecap="round" stroke-width="1.5" stroke="#323232" fill="none" stroke-linejoin="round"><path d="M17,13.86v-1.86"></path><path d="M14,13.86v-1.86"></path><path d="M10.4142,10.5858c0.781049,0.781049 0.781049,2.04738 0,2.82843c-0.781049,0.781049 -2.04738,0.781049 -2.82843,0c-0.781049,-0.781049 -0.781049,-2.04738 -8.88178e-16,-2.82843c0.781049,-0.781049 2.04738,-0.781049 2.82843,0"></path><path d="M10.476,20.875c6.159,1.01 11.409,-4.239 10.399,-10.399c-0.612,-3.73 -3.62,-6.739 -7.35,-7.351c-6.16,-1.011 -11.41,4.24 -10.399,10.399c0.611,3.731 3.62,6.739 7.35,7.351Z"></path><path d="M17,12h-6"></path></g><path fill="none" d="M0,0h24v24h-24Z"></path></svg>