<?xml version="1.0" encoding="UTF-8"?><svg version="1.1" viewBox="0 0 24 24" xmlns="http://www.w3.org/2000/svg" xmlns:xlink="http://www.w3.org/1999/xlink"><!--Generated by IJSVG (https://github.com/iconjar/IJSVG)--><g stroke-linecap="round" stroke-width="1.5" stroke="#323232" fill="none" stroke-linejoin="round"><path d="M10.074,2.5h3.852c1.145,0 2.074,0.929 2.074,2.074v3.852c0,1.145 -0.929,2.074 -2.074,2.074h-3.852c-1.145,0 -2.074,-0.929 -2.074,-2.074v-3.852c0,-1.145 0.929,-2.074 2.074,-2.074Z"></path><path d="M12,5v3"></path><path d="M13.5,6.5l-1.5,-1.5l-1.5,1.5"></path><path d="M22,15.574v3.852c0,1.145 -0.929,2.074 -2.074,2.074h-3.852c-1.145,0 -2.074,-0.929 -2.074,-2.074v-3.852c0,-1.145 0.929,-2.074 2.074,-2.074h3.852c1.145,1.77636e-15 2.074,0.929 2.074,2.074Z"></path><path d="M19.5,17.5h-3"></path><path d="M18,19l1.5,-1.5l-1.5,-1.5"></path><path d="M2,19.426v-3.852c0,-1.145 0.929,-2.074 2.074,-2.074h3.852c1.145,0 2.074,0.929 2.074,2.074v3.852c0,1.145 -0.929,2.074 -2.074,2.074h-3.852c-1.145,0 -2.074,-0.929 -2.074,-2.074Z"></path><path d="M4.5,17.5h3"></path><path d="M6,16l-1.5,1.5l1.5,1.5"></path></g><path fill="none" d="M0,0h24v24h-24Z"></path></svg>