<?xml version="1.0" encoding="UTF-8"?><svg version="1.1" viewBox="0 0 24 24" xmlns="http://www.w3.org/2000/svg" xmlns:xlink="http://www.w3.org/1999/xlink"><!--Generated by IJSVG (https://github.com/iconjar/IJSVG)--><g stroke-linecap="round" stroke-width="1.5" stroke="#323232" fill="none" stroke-linejoin="round"><path d="M8,5l3.99,-2h0.01l4,2"></path><path d="M9.005,12.833c-0.092,0 -0.167,0.075 -0.166,0.167c0,0.092 0.075,0.167 0.167,0.167c0.092,0 0.166,-0.075 0.166,-0.167c0,-0.092 -0.074,-0.167 -0.167,-0.167"></path><path d="M6.022,12.772c-0.092,0 -0.167,0.075 -0.166,0.167c0,0.092 0.075,0.167 0.167,0.167c0.092,0 0.167,-0.075 0.167,-0.167c0,-0.092 -0.075,-0.167 -0.168,-0.167"></path><path d="M15.01,16l-6,0.05"></path><path d="M18.672,20h-13.339c-1.287,0 -2.331,-1.043 -2.331,-2.331v-6.339c0.001,-1.287 1.044,-2.33 2.331,-2.33h13.339c1.287,0 2.331,1.043 2.331,2.331v6.339c0,1.287 -1.044,2.33 -2.331,2.33Z"></path><path d="M6.022,15.833c-0.092,0 -0.167,0.075 -0.166,0.167c0,0.092 0.075,0.167 0.167,0.167c0.092,0 0.167,-0.075 0.167,-0.167c-0.001,-0.092 -0.075,-0.167 -0.168,-0.167"></path><path d="M11.988,12.894c-0.092,0 -0.167,0.075 -0.166,0.167c0,0.092 0.075,0.167 0.167,0.167c0.092,0 0.167,-0.075 0.167,-0.167c0,-0.092 -0.076,-0.167 -0.168,-0.167"></path><path d="M14.97,12.955c-0.092,0 -0.167,0.075 -0.166,0.167c0,0.092 0.075,0.167 0.167,0.167c0.092,0 0.167,-0.075 0.167,-0.167c0,-0.092 -0.075,-0.167 -0.168,-0.167"></path><path d="M17.989,16.26c0.092,0 0.167,-0.075 0.166,-0.167c0,-0.092 -0.075,-0.167 -0.167,-0.167c-0.092,0 -0.167,0.075 -0.167,0.167c0.001,0.092 0.075,0.167 0.168,0.167"></path><path d="M17.953,13.016c-0.092,0 -0.167,0.075 -0.166,0.167c0,0.092 0.075,0.167 0.167,0.167c0.092,0 0.167,-0.075 0.167,-0.167c-0.001,-0.092 -0.075,-0.167 -0.168,-0.167"></path></g><path fill="none" d="M24,24h-24v-24h24v24Z"></path></svg>