<?xml version="1.0" encoding="UTF-8"?><svg version="1.1" viewBox="0 0 24 24" xmlns="http://www.w3.org/2000/svg" xmlns:xlink="http://www.w3.org/1999/xlink"><!--Generated by IJSVG (https://github.com/iconjar/IJSVG)--><g fill="none"><path d="M0,0h24v24h-24Z"></path><path stroke="#323232" stroke-linecap="round" stroke-linejoin="round" stroke-width="1.5" d="M17.919,18h-11.838c-1.287,0 -2.331,-1.043 -2.331,-2.331v-7.338c-4.44089e-16,-1.288 1.043,-2.331 2.331,-2.331h11.839c1.287,0 2.331,1.043 2.331,2.331v7.339c-0.001,1.287 -1.044,2.33 -2.332,2.33Z"></path><path stroke="#323232" stroke-linecap="round" stroke-linejoin="round" stroke-width="1.5" d="M16.91,10.545c0.1,0 0.182,-0.081 0.181,-0.182c0,-0.1 -0.081,-0.182 -0.182,-0.182c-0.101,0 -0.182,0.081 -0.182,0.182c-3.55271e-15,0.101 0.082,0.182 0.183,0.182"></path><path stroke="#323232" stroke-linecap="round" stroke-linejoin="round" stroke-width="1.5" d="M16.91,13.818c0.1,0 0.182,-0.081 0.181,-0.182c0,-0.1 -0.081,-0.182 -0.182,-0.182c-0.101,0 -0.182,0.081 -0.182,0.182c0,0.101 0.082,0.182 0.183,0.182"></path><path stroke="#323232" stroke-linecap="round" stroke-linejoin="round" stroke-width="1.5" d="M10.23,13.64h3.54"></path><path stroke="#323232" stroke-linecap="round" stroke-linejoin="round" stroke-width="1.5" d="M13.637,10.545c0.1,0 0.182,-0.081 0.181,-0.182c0,-0.1 -0.081,-0.182 -0.182,-0.182c-0.1,0 -0.182,0.081 -0.182,0.182c0.001,0.101 0.082,0.182 0.183,0.182"></path><path stroke="#323232" stroke-linecap="round" stroke-linejoin="round" stroke-width="1.5" d="M10.364,10.545c0.1,0 0.182,-0.081 0.181,-0.182c0,-0.1 -0.081,-0.182 -0.182,-0.182c-0.1,0 -0.182,0.081 -0.182,0.182c0.001,0.101 0.082,0.182 0.183,0.182"></path><path stroke="#323232" stroke-linecap="round" stroke-linejoin="round" stroke-width="1.5" d="M7.092,10.545c0.1,0 0.182,-0.081 0.181,-0.182c0,-0.1 -0.081,-0.182 -0.182,-0.182c-0.101,0 -0.182,0.081 -0.182,0.182c8.88178e-16,0.101 0.082,0.182 0.183,0.182"></path><path stroke="#323232" stroke-linecap="round" stroke-linejoin="round" stroke-width="1.5" d="M7.092,13.818c0.1,0 0.182,-0.081 0.181,-0.182c0,-0.1 -0.081,-0.182 -0.182,-0.182c-0.101,0 -0.182,0.081 -0.182,0.182c0,0.101 0.082,0.182 0.183,0.182"></path></g></svg>