<?xml version="1.0" encoding="UTF-8"?><svg version="1.1" viewBox="0 0 24 24" xmlns="http://www.w3.org/2000/svg" xmlns:xlink="http://www.w3.org/1999/xlink"><!--Generated by IJSVG (https://github.com/iconjar/IJSVG)--><g fill="none"><path d="M0,0h24v24h-24Z"></path><path stroke="#323232" stroke-linecap="round" stroke-linejoin="round" stroke-width="1.5" d="M6.49,6.538l-3.071,4.3c-0.497,0.695 -0.497,1.63 0,2.325l3.071,4.3c0.375,0.525 0.981,0.837 1.627,0.837h10.883c1.105,0 2,-0.895 2,-2v-8.6c0,-1.105 -0.895,-2 -2,-2h-10.883c-0.646,0 -1.252,0.312 -1.627,0.838Z"></path><path fill-rule="evenodd" stroke="#323232" stroke-linecap="round" stroke-linejoin="round" stroke-width="1.5" d="M10.5728,10.7272c0.702944,0.702944 0.702944,1.84264 0,2.54558c-0.702944,0.702944 -1.84264,0.702944 -2.54558,0c-0.702944,-0.702944 -0.702944,-1.84264 0,-2.54558c0.702944,-0.702944 1.84264,-0.702944 2.54558,0"></path></g></svg>