<?xml version="1.0" encoding="UTF-8"?><svg version="1.1" viewBox="0 0 24 24" xmlns="http://www.w3.org/2000/svg" xmlns:xlink="http://www.w3.org/1999/xlink"><!--Generated by IJSVG (https://github.com/iconjar/IJSVG)--><g stroke-linecap="round" stroke-width="1.5" stroke="#323232" fill="none" stroke-linejoin="round"><path d="M15,15.19h-6"></path><path d="M8.541,14.896c-1.776,-1.255 -2.841,-3.446 -2.466,-5.858c0.406,-2.607 2.579,-4.688 5.2,-4.995c3.638,-0.427 6.725,2.405 6.725,5.957c0,2.025 -1.006,3.812 -2.543,4.898c-0.276,0.195 -0.457,0.497 -0.457,0.835v2.767c0,1.381 -1.119,2.5 -2.5,2.5h-1c-1.381,0 -2.5,-1.119 -2.5,-2.5v-2.763c0,-0.341 -0.182,-0.645 -0.459,-0.841Z"></path><path d="M20,5l1.19,-1.19"></path><path d="M4,15l-1.19,1.19"></path><path d="M5,4l-1.19,-1.19"></path><path d="M20,15l1.19,1.19"></path><path d="M21,10h1.69"></path><path d="M1.31,10h1.69"></path><path d="M9,18h5.87"></path></g><path fill="none" d="M0,0h24v24h-24v-24Z"></path></svg>