<?xml version="1.0" encoding="UTF-8"?><svg version="1.1" viewBox="0 0 24 24" xmlns="http://www.w3.org/2000/svg" xmlns:xlink="http://www.w3.org/1999/xlink"><!--Generated by IJSVG (https://github.com/iconjar/IJSVG)--><g stroke-linecap="round" stroke-width="1.5" stroke="#323232" fill="none" stroke-linejoin="round"><path d="M13.86,13.83h-3.72"></path><path d="M9.965,13.659c-1.045,-0.738 -1.671,-2.027 -1.451,-3.446c0.239,-1.534 1.517,-2.758 3.059,-2.938c2.14,-0.251 3.956,1.415 3.956,3.504c0,1.191 -0.592,2.242 -1.496,2.881c-0.162,0.115 -0.269,0.292 -0.269,0.491v1.628c0,0.812 -0.658,1.471 -1.471,1.471h-0.588c-0.812,0 -1.471,-0.658 -1.471,-1.471v-1.625c0.001,-0.201 -0.106,-0.379 -0.269,-0.495Z"></path><path d="M18.364,5.63604c3.51472,3.51472 3.51472,9.2132 0,12.7279c-3.51472,3.51472 -9.2132,3.51472 -12.7279,0c-3.51472,-3.51472 -3.51472,-9.2132 -1.77636e-15,-12.7279c3.51472,-3.51472 9.2132,-3.51472 12.7279,-1.77636e-15"></path></g><path fill="none" d="M24,24h-24v-24h24v24Z"></path></svg>