<?xml version="1.0" encoding="UTF-8"?><svg version="1.1" viewBox="0 0 24 24" xmlns="http://www.w3.org/2000/svg" xmlns:xlink="http://www.w3.org/1999/xlink"><!--Generated by IJSVG (https://github.com/iconjar/IJSVG)--><g stroke-width="1.5123" fill="none" stroke="#323232"><path d="M15.0147,3.73928c0.885709,0.885709 0.885709,2.32173 0,3.20744c-0.885709,0.885709 -2.32173,0.885709 -3.20744,0c-0.885709,-0.885709 -0.885709,-2.32173 0,-3.20744c0.885709,-0.885709 2.32173,-0.885709 3.20744,-4.44089e-16"></path><path d="M20.2617,10.2953c1.06301,1.06301 1.06301,2.78648 0,3.84949c-1.06301,1.06301 -2.78648,1.06301 -3.84949,1.77636e-15c-1.06301,-1.06301 -1.06301,-2.78648 0,-3.84949c1.06301,-1.06301 2.78648,-1.06301 3.84949,-1.77636e-15"></path><path d="M6.56337,15.3496c0.531504,0.531504 0.531504,1.39324 0,1.92474c-0.531504,0.531504 -1.39324,0.531504 -1.92474,0c-0.531504,-0.531504 -0.531504,-1.39324 -8.88178e-16,-1.92474c0.531504,-0.531504 1.39324,-0.531504 1.92474,0"></path><path d="M6.9974,7.0886c0.708802,0.708802 0.708802,1.858 0,2.5668c-0.708802,0.708802 -1.858,0.708802 -2.5668,0c-0.708802,-0.708802 -0.708802,-1.858 0,-2.5668c0.708802,-0.708802 1.858,-0.708802 2.5668,0"></path><path stroke-linecap="round" stroke-linejoin="round" stroke-width="1.5" d="M11.995,20.167c-0.25,0 -0.453,0.203 -0.452,0.453c0,0.25 0.203,0.453 0.453,0.453c0.25,0 0.453,-0.203 0.453,-0.453c0.001,-0.25 -0.202,-0.453 -0.454,-0.453"></path></g><path fill="none" d="M0,0h24v24h-24Z"></path></svg>