<?xml version="1.0" encoding="UTF-8"?><svg version="1.1" viewBox="0 0 24 24" xmlns="http://www.w3.org/2000/svg" xmlns:xlink="http://www.w3.org/1999/xlink"><!--Generated by IJSVG (https://github.com/iconjar/IJSVG)--><g stroke-linecap="round" stroke-width="1.5" stroke="#323232" fill="none" stroke-linejoin="round"><path d="M6.722,19.278c-0.576,-0.417 -1.101,-0.898 -1.562,-1.438"></path><path d="M3.523,9c0.561,-1.583 1.545,-2.965 2.826,-4"></path><path d="M3,12c0,1.054 0.19,2.06 0.523,3"></path><path d="M19.559,4.407c0.659,0.659 0.659,1.728 0,2.387c-0.659,0.659 -1.728,0.659 -2.387,0c-0.659,-0.659 -0.659,-1.728 0,-2.387c0.659,-0.659 1.728,-0.659 2.387,0"></path><path d="M12,21c4.971,0 9,-4.029 9,-9c0,-0.543 -0.056,-1.072 -0.148,-1.588"></path><path d="M17.053,4.553c-1.441,-0.98 -3.18,-1.553 -5.053,-1.553c-0.912,0 -1.791,0.138 -2.62,0.39"></path><path d="M14.995,9.005c1.654,1.654 1.654,4.336 0,5.99c-1.654,1.654 -4.336,1.654 -5.99,0c-1.654,-1.654 -1.654,-4.336 0,-5.99c1.654,-1.654 4.336,-1.654 5.99,0"></path></g><path fill="none" d="M0,0h24v24h-24v-24Z"></path></svg>