<?xml version="1.0" encoding="UTF-8"?><svg version="1.1" viewBox="0 0 24 24" xmlns="http://www.w3.org/2000/svg" xmlns:xlink="http://www.w3.org/1999/xlink"><!--Generated by IJSVG (https://github.com/iconjar/IJSVG)--><defs><path d="M0,0h24v24h-24Z" id="a"></path></defs><g fill="none"><use xlink:href="#a"></use><path stroke="#323232" stroke-linecap="round" stroke-linejoin="round" stroke-width="1.5" d="M15.311,21.445c1.189,-0.419 2.274,-1.057 3.209,-1.865c0.512,-0.442 0.409,-1.268 -0.176,-1.607l-2.841,-1.64c-0.667,-0.385 -1.501,0.096 -1.501,0.867v3.29c0,0.679 0.668,1.181 1.309,0.955Z"></path><path stroke="#323232" stroke-linecap="round" stroke-linejoin="round" stroke-width="1.5" d="M8.69,2.555c-1.19,0.418 -2.275,1.057 -3.21,1.865c-0.512,0.442 -0.409,1.268 0.177,1.606l2.841,1.64c0.666,0.386 1.5,-0.096 1.5,-0.866v-3.29c0,-0.679 -0.668,-1.181 -1.308,-0.955Z"></path><path stroke="#323232" stroke-linecap="round" stroke-linejoin="round" stroke-width="1.5" d="M21.835,13.856c0.232,-1.239 0.221,-2.498 -0.011,-3.712c-0.127,-0.665 -0.894,-0.989 -1.48,-0.65l-2.841,1.64c-0.667,0.385 -0.667,1.348 0,1.733l2.849,1.645c0.589,0.339 1.358,0.011 1.483,-0.656Z"></path><path stroke="#323232" stroke-linecap="round" stroke-linejoin="round" stroke-width="1.5" d="M2.165,10.144c-0.232,1.239 -0.221,2.498 0.011,3.712c0.127,0.665 0.894,0.989 1.48,0.65l2.841,-1.64c0.667,-0.385 0.667,-1.348 0,-1.733l-2.85,-1.645c-0.588,-0.339 -1.357,-0.011 -1.482,0.656Z"></path><path stroke="#323232" stroke-linecap="round" stroke-linejoin="round" stroke-width="1.5" d="M18.525,4.41c-0.957,-0.821 -2.053,-1.441 -3.22,-1.847c-0.639,-0.222 -1.303,0.28 -1.303,0.956v3.28c0,0.77 0.834,1.252 1.501,0.867l2.849,-1.645c0.588,-0.339 0.688,-1.169 0.173,-1.611Z"></path><path stroke="#323232" stroke-linecap="round" stroke-linejoin="round" stroke-width="1.5" d="M5.475,19.59c0.957,0.821 2.053,1.441 3.22,1.847c0.639,0.222 1.303,-0.28 1.303,-0.956v-3.28c0,-0.77 -0.834,-1.252 -1.501,-0.867l-2.849,1.645c-0.588,0.339 -0.688,1.169 -0.173,1.611Z"></path><use xlink:href="#a"></use></g></svg>