<?xml version="1.0" encoding="UTF-8"?><svg version="1.1" viewBox="0 0 24 24" xmlns="http://www.w3.org/2000/svg" xmlns:xlink="http://www.w3.org/1999/xlink"><!--Generated by IJSVG (https://github.com/iconjar/IJSVG)--><g stroke-linecap="round" stroke-width="1.5" stroke="#323232" fill="none" stroke-linejoin="round"><path d="M18.364,5.63604c3.51472,3.51472 3.51472,9.2132 0,12.7279c-3.51472,3.51472 -9.2132,3.51472 -12.7279,0c-3.51472,-3.51472 -3.51472,-9.2132 -1.77636e-15,-12.7279c3.51472,-3.51472 9.2132,-3.51472 12.7279,-1.77636e-15"></path><path d="M12,3v0c2.254,0 4.124,1.742 4.285,3.99v0.003c0.129,1.805 -0.887,3.497 -2.54,4.232l-3.49,1.551c-1.653,0.735 -2.669,2.427 -2.54,4.232v0.003c0.161,2.247 2.031,3.989 4.285,3.989v0"></path><path d="M4.206,7.5v0c1.127,-1.952 3.571,-2.701 5.598,-1.716l0.003,0.001c1.627,0.791 2.585,2.516 2.395,4.316l-0.402,3.798c-0.19,1.799 0.767,3.525 2.395,4.316l0.003,0.001c2.027,0.985 4.471,0.236 5.598,-1.716v0"></path><path d="M4.206,16.5v0c-1.127,-1.952 -0.554,-4.443 1.313,-5.706l0.002,-0.002c1.499,-1.014 3.472,-0.98 4.935,0.084l3.088,2.247c1.463,1.064 3.436,1.098 4.935,0.084l0.002,-0.002c1.867,-1.263 2.44,-3.754 1.313,-5.706v0"></path></g><path fill="none" d="M0,0h24v24h-24v-24Z"></path></svg>