<?xml version="1.0" encoding="UTF-8"?><svg version="1.1" viewBox="0 0 24 24" xmlns="http://www.w3.org/2000/svg" xmlns:xlink="http://www.w3.org/1999/xlink"><!--Generated by IJSVG (https://github.com/iconjar/IJSVG)--><path d="M19.026,21h-14.052c-1.09,0 -1.974,-0.884 -1.974,-1.974v-14.052c0,-1.09 0.884,-1.974 1.974,-1.974h14.051c1.091,0 1.975,0.884 1.975,1.974v14.051c0,1.091 -0.884,1.975 -1.974,1.975Z" stroke-linecap="round" stroke-width="1.5" stroke="#323232" fill="none" stroke-dasharray="0.4035 3.0261" stroke-linejoin="round"></path><path fill="none" stroke="#323232" stroke-linecap="round" stroke-linejoin="round" stroke-width="1.5" d="M10.316,11v-1.316c0,-0.93 0.754,-1.684 1.684,-1.684c0.93,0 1.684,0.754 1.684,1.684v1.316"></path><path d="M14,16h-4c-0.552,0 -1,-0.448 -1,-1v-3c0,-0.552 0.448,-1 1,-1h4c0.552,0 1,0.448 1,1v3c0,0.552 -0.448,1 -1,1Z" stroke-linecap="round" stroke-width="1.5" stroke="#323232" fill="none" stroke-linejoin="round"></path><path fill="none" d="M0,0h24v24h-24Z"></path></svg>