<?xml version="1.0" encoding="UTF-8"?><svg version="1.1" viewBox="0 0 24 24" xmlns="http://www.w3.org/2000/svg" xmlns:xlink="http://www.w3.org/1999/xlink"><!--Generated by IJSVG (https://github.com/iconjar/IJSVG)--><g fill="none"><path d="M0,0h24v24h-24v-24Z"></path><path d="M0,24h24v-24h-24v24Z"></path><path stroke="#323232" stroke-linecap="round" stroke-linejoin="round" stroke-width="1.5" d="M17.925,5.237c1.463,1.283 2.51,3.028 2.902,5.013"></path><path stroke="#323232" stroke-linecap="round" stroke-linejoin="round" stroke-width="1.5" d="M6.075,18.763c-1.463,-1.283 -2.51,-3.028 -2.902,-5.013"></path><path stroke="#323232" stroke-linecap="round" stroke-linejoin="round" stroke-width="1.5" d="M14.896,20.515c-0.91,0.31 -1.882,0.485 -2.896,0.485c-1.014,0 -1.986,-0.175 -2.896,-0.485"></path><path stroke="#323232" stroke-linecap="round" stroke-linejoin="round" stroke-width="1.5" d="M14.896,3.485c-0.91,-0.31 -1.882,-0.485 -2.896,-0.485c-1.014,0 -1.986,0.175 -2.896,0.485"></path><path stroke="#323232" stroke-linecap="round" stroke-linejoin="round" stroke-width="1.5" d="M17.925,18.763c1.463,-1.283 2.51,-3.028 2.902,-5.013"></path><path stroke="#323232" stroke-linecap="round" stroke-linejoin="round" stroke-width="1.5" d="M3.173,10.25c0.391,-1.985 1.438,-3.729 2.902,-5.013"></path><path stroke="#323232" stroke-linecap="round" stroke-linejoin="round" stroke-width="1.5" d="M10.316,10.75v-1.316c0,-0.93 0.754,-1.684 1.684,-1.684c0.93,0 1.684,0.754 1.684,1.684v1.316"></path><path stroke="#323232" stroke-linecap="round" stroke-linejoin="round" stroke-width="1.5" d="M14,15.75h-4c-0.552,0 -1,-0.448 -1,-1v-3c0,-0.552 0.448,-1 1,-1h4c0.552,0 1,0.448 1,1v3c0,0.552 -0.448,1 -1,1Z"></path></g></svg>