<?xml version="1.0" encoding="UTF-8"?><svg version="1.1" viewBox="0 0 24 24" xmlns="http://www.w3.org/2000/svg" xmlns:xlink="http://www.w3.org/1999/xlink"><!--Generated by IJSVG (https://github.com/iconjar/IJSVG)--><g stroke-linecap="round" stroke-width="1.5" stroke="#323232" fill="none" stroke-linejoin="round"><path d="M18.315,12.521l1.565,1.565l1.564,-1.565"></path><path d="M18.044,17.215c-1.529,1.906 -3.874,3.129 -6.507,3.129c-4.608,0 -8.343,-3.735 -8.343,-8.343c0,-4.608 3.735,-8.343 8.343,-8.343c4.608,0 8.343,3.734 8.343,8.342v2.086"></path><path d="M9.816,10.75v-1.316c0,-0.93 0.754,-1.684 1.684,-1.684c0.93,0 1.684,0.754 1.684,1.684v1.316"></path><path d="M13.5,15.75h-4c-0.552,0 -1,-0.448 -1,-1v-3c0,-0.552 0.448,-1 1,-1h4c0.552,0 1,0.448 1,1v3c0,0.552 -0.448,1 -1,1Z"></path></g><path fill="none" d="M0,0h24v24h-24Z"></path></svg>