<?xml version="1.0" encoding="UTF-8"?><svg version="1.1" viewBox="0 0 24 24" xmlns="http://www.w3.org/2000/svg" xmlns:xlink="http://www.w3.org/1999/xlink"><!--Generated by IJSVG (https://github.com/iconjar/IJSVG)--><g stroke-linecap="round" stroke-width="1.5" stroke="#323232" fill="none" stroke-linejoin="round"><path d="M10,9.056c-0.906,-1.238 -2.348,-2.056 -4,-2.056v0c-2.761,0 -5,2.239 -5,5v0c0,2.761 2.239,5 5,5v0v0c1.861,0 3.586,-0.977 4.543,-2.572l1.457,-2.428l1.457,-2.428c0.957,-1.595 2.682,-2.572 4.543,-2.572v0v0c2.761,0 5,2.239 5,5v0c0,2.761 -2.239,5 -5,5v0c-1.652,0 -3.094,-0.818 -4,-2.056"></path><path d="M9.93,6.028l0.521,2.954l-2.954,0.521"></path></g><path fill="none" d="M0,0h24v24h-24Z"></path></svg>