<?xml version="1.0" encoding="UTF-8"?><svg version="1.1" viewBox="0 0 24 24" xmlns="http://www.w3.org/2000/svg" xmlns:xlink="http://www.w3.org/1999/xlink"><!--Generated by IJSVG (https://github.com/iconjar/IJSVG)--><g stroke-linecap="round" stroke-width="1.5" stroke="#323232" fill="none" stroke-linejoin="round"><path d="M11.617,14.408l1.5,1.5l-1.5,1.5"></path><path d="M9.598,11.617l-1.5,1.5l-1.5,-1.5"></path><path d="M8.369,15.643c0.569,3.719 1.981,6.357 3.636,6.357c2.158,0 3.908,-4.477 3.908,-10c0,-5.523 -1.75,-10 -3.908,-10c-2.158,0 -3.907,4.477 -3.907,10v1.117"></path><path d="M13.117,15.908h-1.117c-5.523,0 -10,-1.75 -10,-3.908c0,-2.158 4.477,-3.908 10,-3.908c5.523,0 10,1.75 10,3.908c0,1.655 -2.638,3.067 -6.357,3.636"></path></g><path fill="none" d="M0,0h24v24h-24v-24Z"></path></svg>