<?xml version="1.0" encoding="UTF-8"?><svg version="1.1" viewBox="0 0 24 24" xmlns="http://www.w3.org/2000/svg" xmlns:xlink="http://www.w3.org/1999/xlink"><!--Generated by IJSVG (https://github.com/iconjar/IJSVG)--><g fill="none"><path d="M0,0h24v24h-24Z"></path><path fill-rule="evenodd" stroke="#323232" stroke-linecap="round" stroke-linejoin="round" stroke-width="1.5" d="M8,18h11c1.105,0 2,-0.895 2,-2v-11c0,-1.105 -0.895,-2 -2,-2h-11c-1.105,0 -2,0.895 -2,2v11c0,1.105 0.895,2 2,2Z"></path><path stroke="#323232" stroke-linecap="round" stroke-linejoin="round" stroke-width="1.5" d="M21,13h-3.434c-0.351,0 -0.677,0.184 -0.857,0.486l-0.417,0.696c-0.181,0.301 -0.506,0.486 -0.857,0.486h-3.868c-0.351,0 -0.677,-0.184 -0.857,-0.486l-0.417,-0.696c-0.182,-0.302 -0.508,-0.486 -0.859,-0.486h-3.434"></path><path fill-rule="evenodd" stroke="#323232" stroke-linecap="round" stroke-linejoin="round" stroke-width="1.5" d="M3,7v12c0,1.105 0.895,2 2,2h12"></path></g></svg>