<?xml version="1.0" encoding="UTF-8"?><svg version="1.1" viewBox="0 0 24 24" xmlns="http://www.w3.org/2000/svg" xmlns:xlink="http://www.w3.org/1999/xlink"><!--Generated by IJSVG (https://github.com/iconjar/IJSVG)--><g fill="none"><path d="M0,0.014h24v24h-24v-24Z"></path><path stroke="#323232" stroke-linecap="round" stroke-linejoin="round" stroke-width="1.5" d="M15,11.014l-2,-2l2,-2"></path><path stroke="#323232" stroke-linecap="round" stroke-linejoin="round" stroke-width="1.5" d="M21,12.014v7c0,1.105 -0.895,2 -2,2h-14c-1.105,0 -2,-0.895 -2,-2v-14c0,-1.105 0.895,-2 2,-2h13c1.657,0 3,1.343 3,3v0c0,1.657 -1.343,3 -3,3h-5"></path><path stroke="#323232" stroke-linecap="round" stroke-linejoin="round" stroke-width="1.5" d="M3,15.014h4.382c0.379,0 0.725,0.214 0.894,0.553l0.447,0.894c0.17,0.339 0.516,0.553 0.895,0.553h4.764c0.379,0 0.725,-0.214 0.894,-0.553l0.447,-0.894c0.17,-0.339 0.516,-0.553 0.895,-0.553h4.382"></path></g></svg>