<?xml version="1.0" encoding="UTF-8"?><svg version="1.1" viewBox="0 0 24 24" xmlns="http://www.w3.org/2000/svg" xmlns:xlink="http://www.w3.org/1999/xlink"><!--Generated by IJSVG (https://github.com/iconjar/IJSVG)--><g fill="none"><path d="M0,0h24v24h-24Z"></path><path stroke="#323232" stroke-linecap="round" stroke-linejoin="round" stroke-width="1.4468" d="M5.127,10.045v-0.172c0,-3.796 3.077,-6.873 6.873,-6.873v0c3.796,0 6.873,3.077 6.873,6.873v0.172c0,3.461 -4.382,8.671 -6.148,10.631c-0.389,0.432 -1.061,0.432 -1.45,0c-1.766,-1.96 -6.148,-7.17 -6.148,-10.631Z"></path><path stroke="#323232" stroke-linecap="round" stroke-linejoin="round" stroke-width="1.4468" d="M10,9.955c0,1.105 0.895,2 2,2v0c1.105,0 2,-0.895 2,-2v-0.037c0,-1.105 -0.895,-2 -2,-2v0c-1.105,0 -2,0.895 -2,2"></path></g></svg>