<?xml version="1.0" encoding="UTF-8"?><svg version="1.1" viewBox="0 0 24 24" xmlns="http://www.w3.org/2000/svg" xmlns:xlink="http://www.w3.org/1999/xlink"><!--Generated by IJSVG (https://github.com/iconjar/IJSVG)--><g stroke-linecap="round" stroke-width="1.5" stroke="#323232" fill="none" stroke-linejoin="round"><path d="M12,21v0c-4.971,0 -9,-4.029 -9,-9v0c0,-4.971 4.029,-9 9,-9v0c4.971,0 9,4.029 9,9v0c0,4.971 -4.029,9 -9,9Z"></path><path d="M11.999,11.625c-0.207,0 -0.375,0.168 -0.373,0.375c0,0.207 0.168,0.375 0.375,0.375c0.207,0 0.375,-0.168 0.375,-0.375c-0.001,-0.207 -0.169,-0.375 -0.377,-0.375"></path><path d="M15.999,11.625c-0.207,0 -0.375,0.168 -0.373,0.375c0,0.207 0.168,0.375 0.375,0.375c0.207,0 0.375,-0.168 0.375,-0.375c-0.001,-0.207 -0.169,-0.375 -0.377,-0.375"></path><path d="M7.999,11.625c-0.207,0 -0.375,0.168 -0.373,0.375c0,0.207 0.168,0.375 0.375,0.375c0.207,0 0.375,-0.168 0.375,-0.375c-0.001,-0.207 -0.169,-0.375 -0.377,-0.375"></path></g><path fill="none" d="M0,0h24v24h-24Z"></path></svg>