<?xml version="1.0" encoding="UTF-8"?><svg version="1.1" viewBox="0 0 24 24" xmlns="http://www.w3.org/2000/svg" xmlns:xlink="http://www.w3.org/1999/xlink"><!--Generated by IJSVG (https://github.com/iconjar/IJSVG)--><g stroke-linecap="round" stroke-width="1.5" stroke="#323232" fill="none" stroke-linejoin="round"><path d="M6.051,13.101l4.051,-4.051c-0.001,-2.236 -1.814,-4.05 -4.051,-4.05c-2.237,0 -4.051,1.814 -4.051,4.051c0,2.237 1.814,4.05 4.051,4.05Z"></path><path d="M9.865,9.287l5.061,6.694c0.278,0.368 0.242,0.884 -0.084,1.21l-0.652,0.652c-0.326,0.326 -0.842,0.361 -1.21,0.084l-6.694,-5.061"></path><path d="M22,11l-1.746,-1.746c-0.951,-0.951 -2.492,-0.951 -3.443,0v0c-0.951,0.951 -0.951,2.492 0,3.443l1.262,1.262l1.205,1.205c0.982,0.982 0.982,2.575 0,3.557v0c-0.982,0.982 -2.575,0.982 -3.557,0l-1.205,-1.205"></path></g><path fill="none" d="M0,0h24v24h-24Z"></path></svg>