<?xml version="1.0" encoding="UTF-8"?><svg version="1.1" viewBox="0 0 24 24" xmlns="http://www.w3.org/2000/svg" xmlns:xlink="http://www.w3.org/1999/xlink"><!--Generated by IJSVG (https://github.com/iconjar/IJSVG)--><g stroke-linecap="round" stroke-width="1.5" stroke="#323232" fill="none" stroke-linejoin="round"><path d="M21,7.542c0,-2.508 -2.034,-4.542 -4.542,-4.542c-2.508,0 -4.54,2.034 -4.542,4.54l4.542,4.542c2.508,0 4.542,-2.032 4.542,-4.54Z"></path><path d="M19,20l-16,-16"></path><path d="M7.912,13.455l-1.403,1.856c-0.312,0.413 -0.271,0.991 0.094,1.357l0.731,0.731c0.365,0.366 0.944,0.405 1.357,0.094l1.856,-1.403"></path><path d="M16.19,11.82l-3.06,2.31"></path><path d="M12.18,7.81l-2.31,3.06"></path><path d="M6.968,17.032l-2.411,2.411"></path></g><path fill="none" d="M24,24h-24v-24h24v24Z"></path></svg>