<?xml version="1.0" encoding="UTF-8"?><svg version="1.1" viewBox="0 0 24 24" xmlns="http://www.w3.org/2000/svg" xmlns:xlink="http://www.w3.org/1999/xlink"><!--Generated by IJSVG (https://github.com/iconjar/IJSVG)--><g stroke-linecap="round" stroke-width="1.5" stroke="#323232" fill="none" stroke-linejoin="round"><path d="M18.364,5.63604c3.51472,3.51472 3.51472,9.2132 0,12.7279c-3.51472,3.51472 -9.2132,3.51472 -12.7279,0c-3.51472,-3.51472 -3.51472,-9.2132 -1.77636e-15,-12.7279c3.51472,-3.51472 9.2132,-3.51472 12.7279,-1.77636e-15"></path><path d="M15.627,12.665c0.189,-0.089 0.391,0.097 0.338,0.299c-0.18,0.688 -0.533,1.343 -1.077,1.887c-1.615,1.615 -4.199,1.649 -5.773,0.076c-1.574,-1.573 -1.539,-4.158 0.076,-5.773c0.544,-0.544 1.198,-0.897 1.887,-1.077c0.202,-0.053 0.388,0.149 0.299,0.338c-0.573,1.225 -0.385,2.692 0.586,3.663c0.972,0.972 2.44,1.16 3.664,0.587Z"></path></g><path fill="none" d="M0,0h24v24h-24Z"></path></svg>