<?xml version="1.0" encoding="UTF-8"?><svg version="1.1" viewBox="0 0 24 24" xmlns="http://www.w3.org/2000/svg" xmlns:xlink="http://www.w3.org/1999/xlink"><!--Generated by IJSVG (https://github.com/iconjar/IJSVG)--><g fill="none"><path d="M0,0h24v24h-24Z"></path><path stroke="#323232" stroke-linecap="round" stroke-linejoin="round" stroke-width="1.5" d="M7,9h2"></path><path stroke="#323232" stroke-linecap="round" stroke-linejoin="round" stroke-width="1.5" d="M7,13h4"></path><path stroke="#323232" stroke-linecap="round" stroke-linejoin="round" stroke-width="1.5" d="M7,17h9"></path><path stroke="#323232" stroke-linecap="round" stroke-linejoin="round" stroke-width="1.5" d="M17.005,12c-2.761,0 -5,-2.238 -5,-5c0,-2.704 2.3,-5.003 5.004,-5c2.76,0.002 4.996,2.24 4.996,5c-3.55271e-15,2.761 -2.239,5 -5,5"></path><path stroke="#323232" stroke-linecap="round" stroke-linejoin="round" stroke-width="1.5" d="M17,7.25v2"></path><path stroke="#323232" stroke-linecap="round" stroke-linejoin="round" stroke-width="1.5" d="M17.004,4.778c-0.077,0 -0.139,0.062 -0.138,0.139c0,0.077 0.062,0.139 0.139,0.139c0.077,0 0.139,-0.062 0.139,-0.139c-0.001,-0.077 -0.063,-0.139 -0.14,-0.139"></path><path stroke="#323232" stroke-linecap="round" stroke-linejoin="round" stroke-width="1.5" d="M19,11.585v7.415c0,1.105 -0.895,2 -2,2h-11c-1.105,0 -2,-0.895 -2,-2v-12c0,-1.105 0.895,-2 2,-2h6.441"></path></g></svg>