<?xml version="1.0" encoding="UTF-8"?><svg version="1.1" viewBox="0 0 24 24" xmlns="http://www.w3.org/2000/svg" xmlns:xlink="http://www.w3.org/1999/xlink"><!--Generated by IJSVG (https://github.com/iconjar/IJSVG)--><g stroke-linecap="round" stroke-width="1.5" stroke="#323232" fill="none" stroke-linejoin="round"><path d="M9.45,15h-1.2c-0.663,0 -1.2,-0.537 -1.2,-1.2v-3.6c0,-0.663 0.537,-1.2 1.2,-1.2h1.2c0.663,0 1.2,0.537 1.2,1.2v3.6c1.77636e-15,0.663 -0.537,1.2 -1.2,1.2Z"></path><path d="M16.95,10.2v0c0,-0.663 -0.537,-1.2 -1.2,-1.2h-1.2c-0.663,0 -1.2,0.537 -1.2,1.2v0.335c0,0.517 0.331,0.975 0.821,1.138l1.959,0.653c0.49,0.163 0.821,0.622 0.821,1.138v0.336c0,0.663 -0.537,1.2 -1.2,1.2h-1.2c-0.663,0 -1.2,-0.537 -1.2,-1.2v0"></path><path d="M14,21h-4c-3.866,0 -7,-3.134 -7,-7v-4c0,-3.866 3.134,-7 7,-7h4c3.866,0 7,3.134 7,7v4c0,3.866 -3.134,7 -7,7Z"></path></g><path fill="none" d="M0,0h24v24h-24Z"></path></svg>