<?xml version="1.0" encoding="UTF-8"?><svg version="1.1" viewBox="0 0 24 24" xmlns="http://www.w3.org/2000/svg" xmlns:xlink="http://www.w3.org/1999/xlink"><!--Generated by IJSVG (https://github.com/iconjar/IJSVG)--><g fill="none"><path d="M0,0h24v24h-24v-24Z"></path><path stroke="#323232" stroke-linecap="round" stroke-linejoin="round" stroke-width="1.5" d="M18,13v6c0,1.105 -0.895,2 -2,2h-11c-1.105,0 -2,-0.895 -2,-2v-11c0,-1.105 0.895,-2 2,-2h4"></path><path stroke="#323232" stroke-linecap="round" stroke-linejoin="round" stroke-width="1.5" d="M8,15l3.15,-0.389c0.221,-0.027 0.427,-0.128 0.585,-0.285l7.631,-7.631c0.845,-0.845 0.845,-2.215 0,-3.061v0c-0.845,-0.845 -2.215,-0.845 -3.061,0l-7.56,7.56c-0.153,0.153 -0.252,0.351 -0.283,0.566l-0.462,3.24Z"></path></g></svg>