<?xml version="1.0" encoding="UTF-8"?><svg version="1.1" viewBox="0 0 24 24" xmlns="http://www.w3.org/2000/svg" xmlns:xlink="http://www.w3.org/1999/xlink"><!--Generated by IJSVG (https://github.com/iconjar/IJSVG)--><g fill="none"><path d="M0,0h24v24h-24v-24Z"></path><path stroke="#323232" stroke-linecap="round" stroke-linejoin="round" stroke-width="1.5" d="M11.159,15.427h-2.586v-2.586c0,-0.265 0.105,-0.52 0.293,-0.707l4,-4c0.391,-0.391 1.024,-0.391 1.414,0l1.586,1.586c0.391,0.391 0.391,1.024 0,1.414l-4,4c-0.187,0.187 -0.442,0.293 -0.707,0.293Z"></path><path stroke="#323232" stroke-linecap="round" stroke-linejoin="round" stroke-width="1.5" d="M14,21h-4c-3.866,0 -7,-3.134 -7,-7v-4c0,-3.866 3.134,-7 7,-7h4c3.866,0 7,3.134 7,7v4c0,3.866 -3.134,7 -7,7Z"></path></g></svg>