<?xml version="1.0" encoding="UTF-8"?><svg version="1.1" viewBox="0 0 24 24" xmlns="http://www.w3.org/2000/svg" xmlns:xlink="http://www.w3.org/1999/xlink"><!--Generated by IJSVG (https://github.com/iconjar/IJSVG)--><g fill="none"><path d="M0,0h24v24h-24Z"></path><path stroke="#323232" stroke-linecap="round" stroke-linejoin="round" stroke-width="1.5" d="M5.636,18.364c1.629,1.629 3.879,2.636 6.364,2.636c4.971,0 9,-4.029 9,-9v0c0,-4.971 -4.029,-9 -9,-9v0c-4.971,0 -9,4.029 -9,9"></path><path stroke="#323232" stroke-linecap="round" stroke-linejoin="round" stroke-width="1.5" d="M11,10l3,3"></path><path stroke="#323232" stroke-linecap="round" stroke-linejoin="round" stroke-width="1.5" d="M6.163,14.837l5.751,-5.751c0.828,-0.828 2.172,-0.828 3,0v0c0.828,0.828 0.828,2.172 0,3l-5.751,5.751c-0.168,0.168 -0.389,0.27 -0.625,0.29l-2.902,0.238l0.238,-2.902c0.019,-0.237 0.122,-0.459 0.289,-0.626Z"></path></g></svg>