<?xml version="1.0" encoding="UTF-8"?><svg version="1.1" viewBox="0 0 24 24" xmlns="http://www.w3.org/2000/svg" xmlns:xlink="http://www.w3.org/1999/xlink"><!--Generated by IJSVG (https://github.com/iconjar/IJSVG)--><g stroke-linecap="round" stroke-width="1.5" stroke="#323232" fill="none" stroke-linejoin="round"><path d="M19,12h1c0.552,0 1,0.448 1,1v6c0,0.552 -0.448,1 -1,1h-16c-0.552,0 -1,-0.448 -1,-1v-6c0,-0.552 0.448,-1 1,-1h1"></path><path d="M15,6l3,3"></path><path d="M16.707,4.293l-7.466,7.466c-0.188,0.188 -0.293,0.442 -0.293,0.707v2.534h2.637c0.265,0 0.52,-0.105 0.707,-0.293l7.414,-7.414c0.391,-0.391 0.391,-1.024 0,-1.414l-1.586,-1.586c-0.389,-0.391 -1.022,-0.391 -1.413,-8.88178e-16Z"></path></g><path fill="none" d="M0,0h24v24h-24Z"></path></svg>