<?xml version="1.0" encoding="UTF-8"?><svg version="1.1" viewBox="0 0 24 24" xmlns="http://www.w3.org/2000/svg" xmlns:xlink="http://www.w3.org/1999/xlink"><!--Generated by IJSVG (https://github.com/iconjar/IJSVG)--><g fill="none"><path d="M0,0h24v24h-24Z"></path><path stroke="#323232" stroke-linecap="round" stroke-linejoin="round" stroke-width="1.5" d="M16.396,8c0.218,-0.001 0.394,-0.178 0.394,-0.395c0,-0.218 -0.177,-0.394 -0.395,-0.394c-0.218,0 -0.395,0.176 -0.395,0.394c0,0.218 0.177,0.395 0.395,0.395"></path><path stroke="#323232" stroke-linecap="round" stroke-linejoin="round" stroke-width="1.5" d="M16.396,3.77c0.207,-0.001 0.374,-0.169 0.374,-0.376c0,-0.207 -0.168,-0.374 -0.375,-0.374c-0.207,0 -0.375,0.168 -0.375,0.375c0,0.207 0.168,0.375 0.376,0.375"></path><path stroke="#323232" stroke-linecap="round" stroke-linejoin="round" stroke-width="1.5" d="M20.98,7.604c0,-0.207 -0.168,-0.374 -0.375,-0.374c-0.207,0 -0.374,0.168 -0.374,0.375c0,0.207 0.168,0.375 0.375,0.375c0.206,0 0.374,-0.168 0.374,-0.376"></path><path stroke="#323232" stroke-linecap="round" stroke-linejoin="round" stroke-width="1.5" d="M12,21v-18c-4.971,0 -9,4.029 -9,9c0,4.971 4.029,9 9,9c4.971,0 9,-4.029 9,-9h-9"></path></g></svg>