<?xml version="1.0" encoding="UTF-8"?><svg version="1.1" viewBox="0 0 24 24" xmlns="http://www.w3.org/2000/svg" xmlns:xlink="http://www.w3.org/1999/xlink"><!--Generated by IJSVG (https://github.com/iconjar/IJSVG)--><g fill="none"><path d="M0,0.014h24v24h-24Z"></path><path stroke="#323232" stroke-linecap="round" stroke-linejoin="round" stroke-width="1.5" d="M18.364,5.65004c3.51472,3.51472 3.51472,9.2132 0,12.7279c-3.51472,3.51472 -9.2132,3.51472 -12.7279,0c-3.51472,-3.51472 -3.51472,-9.2132 -1.77636e-15,-12.7279c3.51472,-3.51472 9.2132,-3.51472 12.7279,-1.77636e-15"></path><path stroke="#323232" stroke-linecap="round" stroke-linejoin="round" stroke-width="1.5" d="M17.296,11.009c0.186,0.186 0.186,0.487 0,0.673l-0.416,0.416c-0.113,0.113 -0.274,0.161 -0.43,0.13l-1.837,-0.368l-1.515,1.515l0.368,1.837c0.031,0.156 -0.018,0.318 -0.13,0.43l-0.416,0.416c-0.186,0.186 -0.487,0.186 -0.673,0l-4.041,-4.041c-0.186,-0.186 -0.186,-0.487 0,-0.673l0.416,-0.416c0.113,-0.113 0.274,-0.161 0.43,-0.13l1.837,0.368l1.515,-1.515l-0.368,-1.837c-0.031,-0.156 0.018,-0.318 0.13,-0.43l0.416,-0.416c0.186,-0.186 0.487,-0.186 0.673,0l4.041,4.041"></path><path stroke="#323232" stroke-linecap="round" stroke-linejoin="round" stroke-width="1.5" d="M8.204,16.06l2.02,-2.02"></path></g></svg>