<?xml version="1.0" encoding="UTF-8"?><svg version="1.1" viewBox="0 0 24 24" xmlns="http://www.w3.org/2000/svg" xmlns:xlink="http://www.w3.org/1999/xlink"><!--Generated by IJSVG (https://github.com/iconjar/IJSVG)--><g stroke-linecap="round" stroke-width="1.5" stroke="#323232" fill="none" stroke-linejoin="round"><path d="M3.5,20l4.37,-4.37"></path><path d="M4.956,11.294c-0.391,0.391 -0.391,1.024 0,1.414l2.918,2.918l2.918,2.918c0.391,0.391 1.024,0.391 1.414,0l1.175,-1.175c0.188,-0.188 0.293,-0.442 0.293,-0.707v-3.936l2.9,-2.9l2.309,0.123c0.283,0.015 0.56,-0.091 0.76,-0.291l0.574,-0.574c0.391,-0.391 0.391,-1.024 0,-1.414l-4.386,-4.386c-0.391,-0.391 -1.024,-0.391 -1.414,0l-0.574,0.574c-0.201,0.201 -0.307,0.477 -0.291,0.76l0.123,2.309l-2.9,2.9h-3.937c-0.265,0 -0.52,0.105 -0.707,0.293l-1.175,1.174Z"></path><path d="M16.57,9.83l-2.9,-2.9"></path></g><path fill="none" d="M0,0h24v24h-24Z"></path></svg>