<?xml version="1.0" encoding="UTF-8"?><svg version="1.1" viewBox="0 0 24 24" xmlns="http://www.w3.org/2000/svg" xmlns:xlink="http://www.w3.org/1999/xlink"><!--Generated by IJSVG (https://github.com/iconjar/IJSVG)--><g fill="none"><path d="M0,0h24v24h-24Z"></path><path stroke="#323232" stroke-linecap="round" stroke-linejoin="round" stroke-width="1.5" d="M12,20v-5"></path><path stroke="#323232" stroke-linecap="round" stroke-linejoin="round" stroke-width="1.5" d="M6.99,15h10.02c0.547,0 0.99,-0.443 0.99,-0.99v0c0,-0.32 -0.154,-0.62 -0.415,-0.806l-3.085,-2.204v-3l2.555,-1.703c0.278,-0.186 0.445,-0.498 0.445,-0.832v-0.465c0,-0.552 -0.448,-1 -1,-1h-9c-0.552,0 -1,0.448 -1,1v0.465c0,0.334 0.167,0.647 0.445,0.832l2.555,1.703v3l-3.085,2.204c-0.261,0.186 -0.415,0.486 -0.415,0.806v0c0,0.547 0.443,0.99 0.99,0.99Z"></path></g></svg>