<?xml version="1.0" encoding="UTF-8"?><svg version="1.1" viewBox="0 0 24 24" xmlns="http://www.w3.org/2000/svg" xmlns:xlink="http://www.w3.org/1999/xlink"><!--Generated by IJSVG (https://github.com/iconjar/IJSVG)--><defs><path d="M0,0h24v24h-24Z" id="a"></path></defs><g fill="none"><use xlink:href="#a"></use><path stroke="#323232" stroke-linecap="round" stroke-linejoin="round" stroke-width="1.5" d="M5.29,18.96l4.24,-4.24"></path><path stroke="#323232" stroke-linecap="round" stroke-linejoin="round" stroke-width="1.5" d="M17.487,9.414l2.072,0.11c0.283,0.015 0.56,-0.091 0.76,-0.291l0.437,-0.437c0.391,-0.391 0.391,-1.024 0,-1.414l-3.887,-3.887c-0.391,-0.391 -1.024,-0.391 -1.414,0l-0.326,0.325c-0.188,0.188 -0.293,0.442 -0.293,0.707v2.236l-2.651,2.651h-3.561c-0.265,0 -0.52,0.105 -0.707,0.293l-0.988,0.988c-0.391,0.391 -0.391,1.024 0,1.414l2.606,2.606l2.606,2.606c0.391,0.391 1.024,0.391 1.414,0l0.988,-0.988c0.188,-0.188 0.293,-0.442 0.293,-0.707v-3.562l2.651,-2.65Z"></path><path stroke="#323232" stroke-linecap="round" stroke-linejoin="round" stroke-width="1.5" d="M17.49,9.41l-2.65,-2.65"></path><path stroke="#323232" stroke-linecap="round" stroke-linejoin="round" stroke-width="1.5" d="M7.54,21.21l-4.5,-4.5"></path><use xlink:href="#a"></use></g></svg>