<?xml version="1.0" encoding="UTF-8"?><svg version="1.1" viewBox="0 0 24 24" xmlns="http://www.w3.org/2000/svg" xmlns:xlink="http://www.w3.org/1999/xlink"><!--Generated by IJSVG (https://github.com/iconjar/IJSVG)--><g fill="none"><path d="M0,0h24v24h-24v-24Z"></path><path stroke="#323232" stroke-linecap="round" stroke-linejoin="round" stroke-width="1.5" d="M11.999,20.75c-0.069,0 -0.125,0.056 -0.125,0.125c0.001,0.069 0.057,0.125 0.126,0.125c0.069,0 0.125,-0.056 0.125,-0.125c0,-0.069 -0.056,-0.125 -0.126,-0.125"></path></g><path fill="#323232" stroke="#323232" stroke-linecap="round" stroke-linejoin="round" stroke-width="1.5" d="M16.088,20.787c0.049,0.049 0.049,0.128 0,0.177c-0.049,0.049 -0.128,0.049 -0.177,0c-0.049,-0.049 -0.049,-0.128 0,-0.177c0.049,-0.049 0.129,-0.049 0.177,0"></path><g stroke-linecap="round" stroke-width="1.5" stroke="#323232" fill="#323232" stroke-linejoin="round"><path d="M8.088,20.787c0.049,0.049 0.049,0.128 0,0.177c-0.049,0.049 -0.128,0.049 -0.177,0c-0.049,-0.049 -0.049,-0.128 0,-0.177c0.049,-0.049 0.129,-0.049 0.177,0"></path><path fill="none" d="M12,4v6"></path><path fill="none" d="M16.244,5.755c2.343,2.344 2.343,6.144 0,8.488c-2.343,2.344 -6.142,2.344 -8.485,0c-2.343,-2.344 -2.343,-6.144 0,-8.488"></path></g></svg>