<?xml version="1.0" encoding="UTF-8"?><svg version="1.1" viewBox="0 0 24 24" xmlns="http://www.w3.org/2000/svg" xmlns:xlink="http://www.w3.org/1999/xlink"><!--Generated by IJSVG (https://github.com/iconjar/IJSVG)--><path d="M13,3h-10c-0.552,0 -1,0.448 -1,1v16c0,0.552 0.448,1 1,1h10c0.552,0 1,-0.448 1,-1v-16c0,-0.552 -0.448,-1 -1,-1Z" stroke-linecap="round" stroke-width="1.5" fill-rule="evenodd" stroke="#323232" fill="none" stroke-linejoin="round"></path><path fill="none" stroke="#323232" stroke-linecap="round" stroke-linejoin="round" stroke-width="1.5" d="M18,18l1.991,2.982c0.008,0 0.01,0 0.018,0l1.991,-2.982v-13c0,-1.105 -0.895,-2 -2,-2v0c-1.105,0 -2,0.895 -2,2v13Z"></path><path d="M18,7h4" stroke-linecap="round" stroke-width="1.5" stroke="#323232" fill="none" stroke-linejoin="round"></path><path fill="none" d="M0,0h24v24h-24Z"></path></svg>