<?xml version="1.0" encoding="UTF-8"?><svg version="1.1" viewBox="0 0 24 24" xmlns="http://www.w3.org/2000/svg" xmlns:xlink="http://www.w3.org/1999/xlink"><!--Generated by IJSVG (https://github.com/iconjar/IJSVG)--><g stroke-linecap="round" stroke-width="1.5" stroke="#323232" fill="none" stroke-linejoin="round"><path d="M12,13.042v-0.202c0,-0.66 0.408,-1.018 0.817,-1.292c0.399,-0.269 0.799,-0.619 0.799,-1.266c0,-0.892 -0.723,-1.615 -1.615,-1.615c-0.892,0 -1.615,0.723 -1.615,1.615"></path><path d="M11.999,15.315c-0.083,0 -0.15,0.067 -0.149,0.15c0,0.083 0.067,0.15 0.15,0.15c0.083,0 0.15,-0.067 0.15,-0.15c0,-0.083 -0.067,-0.15 -0.151,-0.15"></path><path d="M10.586,20.87l-7.456,-7.456c-0.781,-0.781 -0.781,-2.047 0,-2.828l7.455,-7.455c0.781,-0.781 2.047,-0.781 2.828,0l7.455,7.455c0.781,0.781 0.781,2.047 0,2.828l-7.455,7.455c-0.78,0.782 -2.046,0.782 -2.827,0.001Z"></path></g><path fill="none" d="M0,0h24v24h-24Z"></path></svg>