<?xml version="1.0" encoding="UTF-8"?><svg version="1.1" viewBox="0 0 24 24" xmlns="http://www.w3.org/2000/svg" xmlns:xlink="http://www.w3.org/1999/xlink"><!--Generated by IJSVG (https://github.com/iconjar/IJSVG)--><g stroke-linecap="round" stroke-width="1.5" stroke="#323232" fill="none" stroke-linejoin="round"><path d="M14,13.5h5c0.552,0 1,0.448 1,1v4c0,0.552 -0.448,1 -1,1h-4c-0.552,0 -1,-0.448 -1,-1v-5c0,-6 1,-7 4,-9"></path><path d="M4,13.5h5c0.552,0 1,0.448 1,1v4c0,0.552 -0.448,1 -1,1h-4c-0.552,0 -1,-0.448 -1,-1v-5c0,-6 1,-7 4,-9"></path></g><path fill="none" d="M0,0h24v24h-24Z"></path></svg>