<?xml version="1.0" encoding="UTF-8"?><svg version="1.1" viewBox="0 0 24 24" xmlns="http://www.w3.org/2000/svg" xmlns:xlink="http://www.w3.org/1999/xlink"><!--Generated by IJSVG (https://github.com/iconjar/IJSVG)--><g fill="none"><path d="M0,0h24v24h-24Z"></path><path stroke="#323232" stroke-linecap="round" stroke-linejoin="round" stroke-width="1.5" d="M16,7h-8"></path><path stroke="#323232" stroke-linecap="round" stroke-linejoin="round" stroke-width="1.5" d="M16.13,11h-8.13"></path><path stroke="#323232" stroke-linecap="round" stroke-linejoin="round" stroke-width="1.5" d="M4,19.191v-15.191c0,-0.552 0.448,-1 1,-1h14c0.552,0 1,0.448 1,1v15.191c0,0.372 -0.391,0.613 -0.724,0.447l-1.943,-0.972l-2.443,1.222c-0.141,0.07 -0.306,0.07 -0.447,0l-2.443,-1.221l-2.443,1.222c-0.141,0.07 -0.306,0.07 -0.447,0l-2.443,-1.222l-1.943,0.972c-0.333,0.165 -0.724,-0.076 -0.724,-0.448Z"></path><path stroke="#323232" stroke-linecap="round" stroke-linejoin="round" stroke-width="1.5" d="M13,15h-5"></path></g></svg>