<?xml version="1.0" encoding="UTF-8"?><svg version="1.1" viewBox="0 0 24 24" xmlns="http://www.w3.org/2000/svg" xmlns:xlink="http://www.w3.org/1999/xlink"><!--Generated by IJSVG (https://github.com/iconjar/IJSVG)--><g stroke-linecap="round" stroke-width="1.5" stroke="#323232" fill="none" stroke-linejoin="round"><path d="M12,8.456l-1.181,-1.181l1.181,-1.181"></path><path d="M18.364,5.63604c3.51472,3.51472 3.51472,9.2132 0,12.7279c-3.51472,3.51472 -9.2132,3.51472 -12.7279,0c-3.51472,-3.51472 -3.51472,-9.2132 -1.77636e-15,-12.7279c3.51472,-3.51472 9.2132,-3.51472 12.7279,-1.77636e-15"></path><path d="M13.051,16.595c-0.339,0.078 -0.688,0.127 -1.051,0.127c-2.608,0 -4.722,-2.114 -4.722,-4.722c0,-1.063 0.364,-2.033 0.956,-2.822"></path><path d="M15.766,14.822c0.592,-0.789 0.956,-1.759 0.956,-2.822c0,-2.608 -2.114,-4.722 -4.722,-4.722c-0.363,0 -0.712,0.049 -1.051,0.127"></path><path d="M12,15.544l1.181,1.181l-1.181,1.181"></path></g><path fill="none" d="M24,0v24h-24v-24h24Z"></path><path d="M0,0h24v24h-24Z" fill="none"></path></svg>