<?xml version="1.0" encoding="UTF-8"?><svg version="1.1" viewBox="0 0 24 24" xmlns="http://www.w3.org/2000/svg" xmlns:xlink="http://www.w3.org/1999/xlink"><!--Generated by IJSVG (https://github.com/iconjar/IJSVG)--><g stroke-linecap="round" stroke-width="1.5" stroke="#323232" fill="none" stroke-linejoin="round"><path d="M18.364,5.63604c3.51472,3.51472 3.51472,9.2132 0,12.7279c-3.51472,3.51472 -9.2132,3.51472 -12.7279,0c-3.51472,-3.51472 -3.51472,-9.2132 -1.77636e-15,-12.7279c3.51472,-3.51472 9.2132,-3.51472 12.7279,-1.77636e-15"></path><path d="M8.008,14.506c0.185,0.295 0.397,0.576 0.653,0.833c1.844,1.844 4.834,1.844 6.678,0c0.752,-0.752 1.18,-1.695 1.319,-2.671"></path><path d="M7.342,11.332c0.139,-0.977 0.568,-1.92 1.319,-2.671c1.844,-1.844 4.834,-1.844 6.678,0c0.257,0.257 0.469,0.538 0.653,0.833"></path><path d="M7.824,16.176v-1.67h1.67"></path><path d="M16.176,7.824v1.67h-1.67"></path></g><path fill="none" d="M0,0h24v24h-24Z"></path></svg>