<?xml version="1.0" encoding="UTF-8"?><svg version="1.1" viewBox="0 0 24 24" xmlns="http://www.w3.org/2000/svg" xmlns:xlink="http://www.w3.org/1999/xlink"><!--Generated by IJSVG (https://github.com/iconjar/IJSVG)--><g fill="none"><path d="M0,0h24v24h-24v-24Z"></path><path stroke="#323232" stroke-linecap="round" stroke-linejoin="round" stroke-width="1.5" d="M6.722,19.278c-0.576,-0.417 -1.101,-0.898 -1.562,-1.438"></path><path stroke="#323232" stroke-linecap="round" stroke-linejoin="round" stroke-width="1.5" d="M3.523,9c0.561,-1.583 1.545,-2.965 2.826,-4"></path><path stroke="#323232" stroke-linecap="round" stroke-linejoin="round" stroke-width="1.5" d="M3,12c0,1.054 0.19,2.06 0.523,3"></path><path stroke="#323232" stroke-linecap="round" stroke-linejoin="round" stroke-width="1.5" d="M14.828,9.172c1.562,1.562 1.562,4.095 0,5.657c-1.562,1.562 -4.095,1.562 -5.657,0c-1.562,-1.562 -1.562,-4.095 0,-5.657c1.562,-1.562 4.095,-1.563 5.657,0"></path><path stroke="#323232" stroke-linecap="round" stroke-linejoin="round" stroke-width="1.5" d="M20.424,4.803v2.893h-2.893h2.893"></path><path stroke="#323232" stroke-linecap="round" stroke-linejoin="round" stroke-width="1.5" d="M19.905,7.696c-1.526,-2.797 -4.493,-4.696 -7.905,-4.696c-0.912,0 -1.791,0.138 -2.62,0.39"></path><path stroke="#323232" stroke-linecap="round" stroke-linejoin="round" stroke-width="1.5" d="M21,12c0,4.97 -4.029,9 -9,9c-0.779,0 -1.527,-0.119 -2.247,-0.306"></path></g></svg>