<?xml version="1.0" encoding="UTF-8"?><svg version="1.1" viewBox="0 0 24 24" xmlns="http://www.w3.org/2000/svg" xmlns:xlink="http://www.w3.org/1999/xlink"><!--Generated by IJSVG (https://github.com/iconjar/IJSVG)--><g fill="none"><path d="M0,0h24v24h-24Z" transform="matrix(-1,-4.48687e-11,4.48687e-11,-1,24,24)"></path><path stroke="#323232" stroke-linecap="round" stroke-linejoin="round" stroke-width="1.5" d="M19.332,6.793c-1.631,-2.293 -4.304,-3.793 -7.332,-3.793c-4.971,0 -9,4.029 -9,9c0,0.539 0.056,1.064 0.147,1.576"></path><path stroke="#323232" stroke-linecap="round" stroke-linejoin="round" stroke-width="1.5" d="M4.424,19.594v-2.387h2.389"></path><path stroke="#323232" stroke-linecap="round" stroke-linejoin="round" stroke-width="1.5" d="M4.668,17.207c1.631,2.293 4.304,3.793 7.332,3.793c4.971,0 9,-4.029 9,-9c0,-0.539 -0.056,-1.064 -0.147,-1.576"></path><path stroke="#323232" stroke-linecap="round" stroke-linejoin="round" stroke-width="1.5" d="M19.576,4.406v2.387h-2.389"></path></g></svg>