<?xml version="1.0" encoding="UTF-8"?><svg version="1.1" viewBox="0 0 24 24" xmlns="http://www.w3.org/2000/svg" xmlns:xlink="http://www.w3.org/1999/xlink"><!--Generated by IJSVG (https://github.com/iconjar/IJSVG)--><g fill="none"><path d="M0,0h24v24h-24v-24Z"></path><path d="M0,0h24v24h-24Z"></path><path stroke="#323232" stroke-linecap="round" stroke-linejoin="round" stroke-width="1.5" d="M8,3.947c-2.961,1.473 -5,4.521 -5,8.053c0,4.971 4.029,9 9,9l-1,-2"></path><path stroke="#323232" stroke-linecap="round" stroke-linejoin="round" stroke-width="1.5" d="M13,5l-1,-2c4.971,0 9,4.029 9,9c0,3.532 -2.039,6.58 -5,8.053"></path><path stroke="#323232" stroke-linecap="round" stroke-linejoin="round" stroke-width="1.5" d="M15.5,9.47h-3.5l-0.702,-1.033c-0.187,-0.273 -0.496,-0.437 -0.827,-0.437h-1.971c-0.552,0 -1,0.448 -1,1v6c0,0.552 0.448,1 1,1h7c0.552,0 1,-0.448 1,-1v-4.53c0,-0.552 -0.448,-1 -1,-1Z"></path></g></svg>