<?xml version="1.0" encoding="UTF-8"?><svg version="1.1" viewBox="0 0 24 24" xmlns="http://www.w3.org/2000/svg" xmlns:xlink="http://www.w3.org/1999/xlink"><!--Generated by IJSVG (https://github.com/iconjar/IJSVG)--><g fill="none"><path d="M0,0h24v24h-24Z"></path><path stroke="#323232" stroke-linecap="round" stroke-linejoin="round" stroke-width="1.5" d="M8,3.947c-2.961,1.473 -5,4.521 -5,8.053c0,4.971 4.029,9 9,9l-1,-2"></path><path stroke="#323232" stroke-linecap="round" stroke-linejoin="round" stroke-width="1.5" d="M13,5l-1,-2c4.971,0 9,4.029 9,9c0,3.532 -2.039,6.58 -5,8.053"></path><path stroke="#323232" stroke-linecap="round" stroke-linejoin="round" stroke-width="1.5" d="M9.128,10.267c-1.234,0.168 -2.188,1.215 -2.188,2.495c0,1.397 1.133,2.53 2.53,2.53h5.565c1.118,0 2.024,-0.906 2.024,-2.024c0,-1.118 -0.906,-2.024 -2.024,-2.024c0,-1.677 -1.359,-3.036 -3.036,-3.036c-1.333,0 -2.464,0.862 -2.871,2.059Z"></path></g></svg>