<?xml version="1.0" encoding="UTF-8"?><svg version="1.1" viewBox="0 0 24 24" xmlns="http://www.w3.org/2000/svg" xmlns:xlink="http://www.w3.org/1999/xlink"><!--Generated by IJSVG (https://github.com/iconjar/IJSVG)--><g stroke-linecap="round" stroke-width="1.5" stroke="#323232" fill="none" stroke-linejoin="round"><path d="M18.364,5.63604c3.51472,3.51472 3.51472,9.2132 0,12.7279c-3.51472,3.51472 -9.2132,3.51472 -12.7279,0c-3.51472,-3.51472 -3.51472,-9.2132 -1.77636e-15,-12.7279c3.51472,-3.51472 9.2132,-3.51472 12.7279,-1.77636e-15"></path><path d="M15.15,11.898l0.875,0.937l0.875,-0.937"></path><path d="M9.699,8.608c0.657,-0.448 1.446,-0.714 2.301,-0.714c2.268,0 4.106,1.838 4.106,4.106c0,0.275 -0.029,0.543 -0.081,0.804"></path><path d="M8.85,12.017l-0.875,-0.936l-0.875,0.936"></path><path d="M14.301,15.308c-0.656,0.448 -1.446,0.713 -2.301,0.713c-2.268,0 -4.106,-1.838 -4.106,-4.106c0,-0.275 0.029,-0.543 0.081,-0.804"></path></g><path fill="none" d="M0,0h24v24h-24Z"></path></svg>