<?xml version="1.0" encoding="UTF-8"?><svg version="1.1" viewBox="0 0 24 24" xmlns="http://www.w3.org/2000/svg" xmlns:xlink="http://www.w3.org/1999/xlink"><!--Generated by IJSVG (https://github.com/iconjar/IJSVG)--><g fill="none"><path d="M0,0h24v24h-24v-24Z"></path><path stroke="#323232" stroke-linecap="round" stroke-linejoin="round" stroke-width="1.5" d="M18.364,5.63604c3.51472,3.51472 3.51472,9.2132 0,12.7279c-3.51472,3.51472 -9.2132,3.51472 -12.7279,0c-3.51472,-3.51472 -3.51472,-9.2132 -1.77636e-15,-12.7279c3.51472,-3.51472 9.2132,-3.51472 12.7279,-1.77636e-15"></path><path stroke="#323232" stroke-linecap="round" stroke-linejoin="round" stroke-width="1.5" d="M12.314,9.45c-2.767,0 -5.064,2.073 -5.064,5.521v0.694c0.936,-2.264 2.88,-3.092 5.064,-3.092v1.886c0,0.533 0.633,0.813 1.028,0.455l3.706,-3.36c0.276,-0.249 0.268,-0.684 -0.015,-0.924l-3.706,-3.146c-0.4,-0.339 -1.013,-0.056 -1.013,0.468v1.498Z"></path><path d="M0,0h24v24h-24Z"></path></g></svg>