<?xml version="1.0" encoding="UTF-8"?><svg version="1.1" viewBox="0 0 24 24" xmlns="http://www.w3.org/2000/svg" xmlns:xlink="http://www.w3.org/1999/xlink"><!--Generated by IJSVG (https://github.com/iconjar/IJSVG)--><g fill="none"><path d="M0,0h24v24h-24Z"></path><path stroke="#323232" stroke-linecap="round" stroke-linejoin="round" stroke-width="1.5" d="M19.911,9.962c-0.889,-3.517 -4.066,-6.124 -7.859,-6.124c-1.014,0 -1.98,0.194 -2.874,0.534"></path><path stroke="#323232" stroke-linecap="round" stroke-linejoin="round" stroke-width="1.5" d="M6.398,6.143c-2.601,2.529 -3.271,6.583 -1.374,9.868c0.507,0.878 1.158,1.617 1.899,2.222"></path><path stroke="#323232" stroke-linecap="round" stroke-linejoin="round" stroke-width="1.5" d="M10.953,5.689l-2.198,-1.631l2.198,-1.996"></path><path stroke="#323232" stroke-linecap="round" stroke-linejoin="round" stroke-width="1.5" d="M7.176,16.038l-0.313,2.719l-2.828,-0.905"></path><path stroke="#323232" stroke-linecap="round" stroke-linejoin="round" stroke-width="1.5" d="M18.028,14.134l2.511,-1.088l0.63,2.902"></path><path stroke="#323232" stroke-linecap="round" stroke-linejoin="round" stroke-width="1.5" d="M9.848,19.756c3.491,0.989 7.336,-0.459 9.233,-3.744c0.507,-0.878 0.822,-1.811 0.975,-2.756"></path></g></svg>