<?xml version="1.0" encoding="UTF-8"?><svg version="1.1" viewBox="0 0 24 24" xmlns="http://www.w3.org/2000/svg" xmlns:xlink="http://www.w3.org/1999/xlink"><!--Generated by IJSVG (https://github.com/iconjar/IJSVG)--><g stroke-linecap="round" stroke-width="1.5" stroke="#323232" fill="none" stroke-linejoin="round"><path d="M2,11.471l1.578,-1.577l1.577,1.577"></path><path d="M22,12.529l-1.578,1.577l-1.577,-1.577"></path><path d="M17.957,6.047c1.523,1.524 2.466,3.629 2.466,5.955c0,0.64 -0.078,1.26 -0.212,1.859"></path><path d="M11.471,22l-1.577,-1.578l1.577,-1.577"></path><path d="M10.139,20.21c0.599,0.135 1.219,0.212 1.859,0.212c2.326,0 4.431,-0.943 5.955,-2.466"></path><path d="M12.529,2l1.577,1.578l-1.577,1.577"></path><path d="M13.861,3.79c-0.599,-0.135 -1.219,-0.212 -1.859,-0.212c-2.326,0 -4.431,0.943 -5.955,2.466"></path><path d="M6.043,17.957c-1.523,-1.524 -2.466,-3.629 -2.466,-5.955v-0.004c0,-0.64 0.078,-1.26 0.212,-1.859"></path></g><path fill="none" d="M0,0h24v24h-24Z"></path></svg>