<?xml version="1.0" encoding="UTF-8"?><svg version="1.1" viewBox="0 0 24 24" xmlns="http://www.w3.org/2000/svg" xmlns:xlink="http://www.w3.org/1999/xlink"><!--Generated by IJSVG (https://github.com/iconjar/IJSVG)--><g stroke-linecap="round" stroke-width="1.5" stroke="#323232" fill="none" stroke-linejoin="round"><path d="M10.836,5.354l-1.884,-1.398c0.95,-0.36 1.976,-0.566 3.051,-0.566c4.027,0 7.398,2.767 8.343,6.5"></path><path d="M6.827,16.339l-0.269,2.331c-0.786,-0.642 -1.478,-1.427 -2.016,-2.359c-2.013,-3.487 -1.302,-7.79 1.458,-10.475"></path><path d="M18.345,14.319l2.153,-0.933c-0.163,1.002 -0.497,1.993 -1.035,2.925c-2.014,3.487 -6.096,5.024 -9.801,3.974"></path><path d="M14.5307,9.46926c1.39769,1.39769 1.39769,3.66378 0,5.06147c-1.39769,1.39769 -3.66378,1.39769 -5.06147,0c-1.39769,-1.39769 -1.39769,-3.66378 -1.77636e-15,-5.06147c1.39769,-1.39769 3.66378,-1.39769 5.06147,-1.77636e-15"></path></g><path fill="none" d="M0,0h24v24h-24Z"></path></svg>