<?xml version="1.0" encoding="UTF-8"?><svg version="1.1" viewBox="0 0 24 24" xmlns="http://www.w3.org/2000/svg" xmlns:xlink="http://www.w3.org/1999/xlink"><!--Generated by IJSVG (https://github.com/iconjar/IJSVG)--><g fill="none"><path d="M0,0h24v24h-24Z"></path><path stroke="#323232" stroke-linecap="round" stroke-linejoin="round" stroke-width="1.5" d="M3.125,4c0,-0.07 -0.055,-0.125 -0.125,-0.125c-0.07,0 -0.125,0.055 -0.125,0.125c0,0.07 0.055,0.125 0.125,0.125c0.07,0 0.125,-0.055 0.125,-0.125"></path><path stroke="#323232" stroke-linecap="round" stroke-linejoin="round" stroke-width="1.5" d="M7.125,4c0,-0.07 -0.055,-0.125 -0.125,-0.125c-0.07,0 -0.125,0.055 -0.125,0.125c0,0.07 0.055,0.125 0.125,0.125c0.07,0 0.125,-0.055 0.125,-0.125"></path><path stroke="#323232" stroke-linecap="round" stroke-linejoin="round" stroke-width="1.5" d="M5,9v3c0,4.418 3.582,8 8,8c4.418,0 8,-3.582 8,-8c0,-4.418 -3.582,-8 -8,-8h-2"></path><path stroke="#323232" stroke-linecap="round" stroke-linejoin="round" stroke-width="1.5" d="M3,11l2,-2l2,2"></path></g></svg>