<?xml version="1.0" encoding="UTF-8"?><svg version="1.1" viewBox="0 0 24 24" xmlns="http://www.w3.org/2000/svg" xmlns:xlink="http://www.w3.org/1999/xlink"><!--Generated by IJSVG (https://github.com/iconjar/IJSVG)--><g fill="none"><path d="M0,0h24v24h-24Z" transform="matrix(6.12323e-17,-1,1,6.12323e-17,0,24)"></path><path stroke="#323232" stroke-linecap="round" stroke-linejoin="round" stroke-width="1.5" d="M9.525,9.525h4.95v4.951h-4.95Z" transform="matrix(0.7071,-0.7071,0.7071,0.7071,-4.9706,11.9999)"></path><path stroke="#323232" stroke-linecap="round" stroke-linejoin="round" stroke-width="1.5" d="M5,12.25l-2,2l-2,-2"></path><path stroke="#323232" stroke-linecap="round" stroke-linejoin="round" stroke-width="1.5" d="M19,11.75l2,-2l2,2"></path><path stroke="#323232" stroke-linecap="round" stroke-linejoin="round" stroke-width="1.5" d="M19.371,6.845c-1.627,-2.323 -4.319,-3.845 -7.371,-3.845c-4.971,0 -9,4.029 -9,9c0,0.694 0.086,1.366 0.235,2.015"></path><path stroke="#323232" stroke-linecap="round" stroke-linejoin="round" stroke-width="1.5" d="M4.629,17.155c1.627,2.323 4.319,3.845 7.371,3.845c4.971,0 9,-4.029 9,-9c0,-0.694 -0.086,-1.366 -0.235,-2.015"></path></g></svg>