<?xml version="1.0" encoding="UTF-8"?><svg version="1.1" viewBox="0 0 24 24" xmlns="http://www.w3.org/2000/svg" xmlns:xlink="http://www.w3.org/1999/xlink"><!--Generated by IJSVG (https://github.com/iconjar/IJSVG)--><g fill="none"><path d="M0,0.014h24v24h-24Z"></path><path stroke="#323232" stroke-linecap="round" stroke-linejoin="round" stroke-width="1.5" d="M18.364,5.65004c3.51472,3.51472 3.51472,9.2132 0,12.7279c-3.51472,3.51472 -9.2132,3.51472 -12.7279,0c-3.51472,-3.51472 -3.51472,-9.2132 -1.77636e-15,-12.7279c3.51472,-3.51472 9.2132,-3.51472 12.7279,-1.77636e-15"></path><path stroke="#323232" stroke-linecap="round" stroke-linejoin="round" stroke-width="1.5" d="M8.968,10.192c-0.686,-0.396 -0.921,-1.274 -0.525,-1.96c0.396,-0.686 1.274,-0.921 1.96,-0.525c0.686,0.396 0.921,1.274 0.525,1.96c-0.396,0.686 -1.274,0.921 -1.96,0.525"></path><path stroke="#323232" stroke-linecap="round" stroke-linejoin="round" stroke-width="1.5" d="M10.928,14.361c-0.396,-0.686 -1.274,-0.921 -1.96,-0.525c-0.686,0.396 -0.921,1.274 -0.525,1.96c0.396,0.686 1.274,0.921 1.96,0.525c0.686,-0.396 0.921,-1.273 0.525,-1.96"></path><path stroke="#323232" stroke-linecap="round" stroke-linejoin="round" stroke-width="1.5" d="M16.25,9.63l-7.28,4.21"></path><path stroke="#323232" stroke-linecap="round" stroke-linejoin="round" stroke-width="1.5" d="M16.25,14.4l-7.28,-4.21"></path></g></svg>