<?xml version="1.0" encoding="UTF-8"?><svg version="1.1" viewBox="0 0 24 24" xmlns="http://www.w3.org/2000/svg" xmlns:xlink="http://www.w3.org/1999/xlink"><!--Generated by IJSVG (https://github.com/iconjar/IJSVG)--><g fill="none"><path d="M0,0h24v24h-24v-24Z"></path><path stroke="#323232" stroke-linecap="round" stroke-linejoin="round" stroke-width="1.5" d="M14,8.974c1.388,1.388 1.388,3.638 0,5.026c-1.388,1.388 -3.638,1.388 -5.026,0c-1.388,-1.388 -1.388,-3.638 0,-5.026c1.388,-1.388 3.638,-1.388 5.026,0"></path><path stroke="#323232" stroke-linecap="round" stroke-linejoin="round" stroke-width="1.5" d="M20.424,4.803v2.893h-2.893h2.893"></path><path stroke="#323232" stroke-linecap="round" stroke-linejoin="round" stroke-width="1.5" d="M21,12c0,4.97 -4.029,9 -9,9c-4.97,0 -9,-4.029 -9,-9c0,-4.97 4.029,-9 9,-9c3.412,0 6.379,1.899 7.905,4.696"></path><path stroke="#323232" stroke-linecap="round" stroke-linejoin="round" stroke-width="1.5" d="M16,16l-2,-2l2,2Z"></path></g></svg>