<?xml version="1.0" encoding="UTF-8"?><svg version="1.1" viewBox="0 0 24 24" xmlns="http://www.w3.org/2000/svg" xmlns:xlink="http://www.w3.org/1999/xlink"><!--Generated by IJSVG (https://github.com/iconjar/IJSVG)--><g fill="none"><path d="M0,0h24v24h-24Z"></path><path stroke="#323232" stroke-linecap="round" stroke-linejoin="round" stroke-width="1.5" d="M18.223,10.169c0.086,0.434 0.133,0.883 0.133,1.343c0,3.781 -3.064,6.845 -6.845,6.845c-1.875,0 -3.572,-0.755 -4.808,-1.976"></path><path stroke="#323232" stroke-linecap="round" stroke-linejoin="round" stroke-width="1.5" d="M16.38,6.703c-1.241,-1.257 -2.963,-2.036 -4.869,-2.036c-3.781,0 -6.845,3.064 -6.845,6.845c0,0.494 0.055,0.975 0.154,1.439"></path><path stroke="#323232" stroke-linecap="round" stroke-linejoin="round" stroke-width="1.5" d="M16.334,12.189l1.958,-2.095l1.958,2.095"></path><path stroke="#323232" stroke-linecap="round" stroke-linejoin="round" stroke-width="1.5" d="M4.73,13.05l-1.96,-2.1"></path><path stroke="#323232" stroke-linecap="round" stroke-linejoin="round" stroke-width="1.5" d="M19.33,19.33l-2.98,-2.98"></path><path stroke="#323232" stroke-linecap="round" stroke-linejoin="round" stroke-width="1.5" d="M6.69,10.95l-1.96,2.1"></path></g></svg>