<?xml version="1.0" encoding="UTF-8"?><svg version="1.1" viewBox="0 0 24 24" xmlns="http://www.w3.org/2000/svg" xmlns:xlink="http://www.w3.org/1999/xlink"><!--Generated by IJSVG (https://github.com/iconjar/IJSVG)--><g stroke-linecap="round" stroke-width="1.5" stroke="#323232" fill="none" stroke-linejoin="round"><path d="M16.747,6.187c2.916,2.916 2.916,7.644 0,10.56c-2.916,2.916 -7.644,2.916 -10.56,0c-2.916,-2.916 -2.916,-7.644 0,-10.56c2.916,-2.916 7.644,-2.916 10.56,8.88178e-16"></path><path d="M20,20l-3.25,-3.25"></path><path d="M11.467,11.217c-0.138,0 -0.25,0.112 -0.249,0.25c0,0.138 0.112,0.25 0.25,0.25c0.138,0 0.25,-0.112 0.25,-0.25c-0.001,-0.138 -0.113,-0.25 -0.251,-0.25"></path><path d="M14.785,11.217c-0.138,0 -0.25,0.112 -0.249,0.25c0,0.138 0.112,0.25 0.25,0.25c0.138,0 0.25,-0.112 0.25,-0.25c0,-0.138 -0.112,-0.25 -0.251,-0.25"></path><path d="M8.148,11.217c-0.138,0 -0.25,0.112 -0.249,0.25c0,0.138 0.112,0.25 0.25,0.25c0.138,0 0.25,-0.112 0.25,-0.25c-1.77636e-15,-0.138 -0.112,-0.25 -0.251,-0.25"></path></g><path fill="none" d="M0,0h24v24h-24v-24Z"></path></svg>