<?xml version="1.0" encoding="UTF-8"?><svg version="1.1" viewBox="0 0 24 24" xmlns="http://www.w3.org/2000/svg" xmlns:xlink="http://www.w3.org/1999/xlink"><!--Generated by IJSVG (https://github.com/iconjar/IJSVG)--><g fill="none"><path d="M0,0h24v24h-24Z"></path><path stroke="#323232" stroke-linecap="round" stroke-linejoin="round" stroke-width="1.5" d="M5,3h14c1.105,0 2,0.895 2,2v14c0,1.105 -0.895,2 -2,2h-14c-1.105,0 -2,-0.895 -2,-2v-14c0,-1.105 0.895,-2 2,-2Z"></path><path stroke="#323232" stroke-linecap="round" stroke-linejoin="round" stroke-width="1.5" d="M10,7h-3v3"></path><path stroke="#323232" stroke-linecap="round" stroke-linejoin="round" stroke-width="1.5" d="M12,12l-5,-5"></path><path stroke="#323232" stroke-linecap="round" stroke-linejoin="round" stroke-width="1.5" d="M13,7.101c2.282,0.463 4,2.48 4,4.899c0,2.761 -2.239,5 -5,5c-2.419,0 -4.436,-1.718 -4.899,-4"></path></g></svg>