<?xml version="1.0" encoding="UTF-8"?><svg version="1.1" viewBox="0 0 24 24" xmlns="http://www.w3.org/2000/svg" xmlns:xlink="http://www.w3.org/1999/xlink"><!--Generated by IJSVG (https://github.com/iconjar/IJSVG)--><g stroke-linecap="round" stroke-width="1.5" stroke="#323232" fill="none" stroke-linejoin="round"><path d="M10.31,12.584l0.895,4.028c0.111,0.502 0.779,0.61 1.043,0.169l4.17,-6.95c0.227,-0.379 -0.046,-0.861 -0.488,-0.861h-7.86c-0.507,0 -0.761,0.613 -0.402,0.971l2.642,2.643Z"></path><path d="M16.42,9.25l-6.11,3.33"></path><path d="M18.364,5.65004c3.51472,3.51472 3.51472,9.2132 0,12.7279c-3.51472,3.51472 -9.2132,3.51472 -12.7279,0c-3.51472,-3.51472 -3.51472,-9.2132 -1.77636e-15,-12.7279c3.51472,-3.51472 9.2132,-3.51472 12.7279,-1.77636e-15"></path></g><path fill="none" d="M0,0.014h24v24h-24Z"></path></svg>