<?xml version="1.0" encoding="UTF-8"?><svg version="1.1" viewBox="0 0 24 24" xmlns="http://www.w3.org/2000/svg" xmlns:xlink="http://www.w3.org/1999/xlink"><!--Generated by IJSVG (https://github.com/iconjar/IJSVG)--><g fill="none"><path d="M4,4h16v16h-16v-16Z"></path><path stroke="#323232" stroke-linecap="round" stroke-linejoin="round" stroke-width="1.5" d="M13.273,10.727c0.703,0.703 0.703,1.843 0,2.546c-0.703,0.703 -1.843,0.703 -2.546,0c-0.703,-0.703 -0.703,-1.843 0,-2.546c0.703,-0.703 1.843,-0.703 2.546,0"></path><path stroke="#323232" stroke-linecap="round" stroke-linejoin="round" stroke-width="1.5" d="M7.5,12c0,0.198 0.018,0.396 0.042,0.588l-1.059,0.828c-0.235,0.184 -0.299,0.513 -0.149,0.771l0.941,1.629c0.149,0.258 0.465,0.367 0.741,0.256l0.948,-0.381c0.187,-0.075 0.396,-0.045 0.564,0.066c0.147,0.097 0.299,0.187 0.456,0.267c0.18,0.091 0.311,0.255 0.339,0.455l0.145,1.009c0.043,0.293 0.295,0.512 0.593,0.512h1.878c0.297,0 0.55,-0.219 0.592,-0.513l0.145,-1.008c0.029,-0.2 0.161,-0.365 0.341,-0.455c0.157,-0.079 0.308,-0.167 0.454,-0.264c0.169,-0.112 0.379,-0.144 0.567,-0.068l0.946,0.38c0.276,0.111 0.592,0.002 0.741,-0.256l0.941,-1.629c0.149,-0.258 0.085,-0.587 -0.149,-0.771l-1.059,-0.828c0.024,-0.192 0.042,-0.39 0.042,-0.588c0,-0.198 -0.018,-0.396 -0.042,-0.588l1.059,-0.828c0.235,-0.184 0.299,-0.513 0.149,-0.771l-0.941,-1.629c-0.149,-0.258 -0.465,-0.367 -0.741,-0.256l-0.946,0.38c-0.188,0.075 -0.397,0.044 -0.567,-0.068c-0.146,-0.097 -0.297,-0.185 -0.454,-0.264c-0.181,-0.091 -0.313,-0.255 -0.341,-0.455l-0.144,-1.008c-0.043,-0.294 -0.295,-0.513 -0.593,-0.513h-1.878c-0.297,0 -0.55,0.219 -0.592,0.513l-0.145,1.009c-0.029,0.199 -0.16,0.363 -0.339,0.455c-0.157,0.08 -0.309,0.17 -0.456,0.267c-0.169,0.111 -0.378,0.141 -0.565,0.065l-0.947,-0.38c-0.277,-0.111 -0.593,-0.002 -0.742,0.256l-0.941,1.628c-0.149,0.258 -0.085,0.587 0.149,0.771l1.059,0.828c-0.024,0.192 -0.042,0.39 -0.042,0.588Z"></path><path stroke="#323232" stroke-linecap="round" stroke-linejoin="round" stroke-width="1.5" d="M18.364,5.63604c3.51472,3.51472 3.51472,9.2132 0,12.7279c-3.51472,3.51472 -9.2132,3.51472 -12.7279,0c-3.51472,-3.51472 -3.51472,-9.2132 -1.77636e-15,-12.7279c3.51472,-3.51472 9.2132,-3.51472 12.7279,-1.77636e-15"></path><path d="M0,0h24v24h-24v-24Z"></path></g></svg>