<?xml version="1.0" encoding="UTF-8"?><svg version="1.1" viewBox="0 0 24 24" xmlns="http://www.w3.org/2000/svg" xmlns:xlink="http://www.w3.org/1999/xlink"><!--Generated by IJSVG (https://github.com/iconjar/IJSVG)--><g fill="none"><path d="M0,0h24v24h-24Z"></path><path stroke="#323232" stroke-linecap="round" stroke-linejoin="round" stroke-width="1.5" d="M14.601,7.505l2.558,-2.558c0.034,-0.034 0.023,-0.094 -0.021,-0.113c-1.452,-0.621 -3.236,-0.361 -4.433,0.836c-1.162,1.162 -1.468,2.814 -0.917,4.22l-3.833,3.833c-0.633,0.633 -0.633,1.66 0,2.294v0c0.633,0.633 1.66,0.633 2.294,0l3.864,-3.864c1.407,0.55 3.058,0.245 4.22,-0.917c1.199,-1.199 1.517,-2.986 0.838,-4.438c-0.02,-0.042 -0.078,-0.053 -0.112,-0.02l-2.623,2.562v0l-0.917,-0.917l-0.918,-0.918Z"></path><path stroke="#323232" stroke-linecap="round" stroke-linejoin="round" stroke-width="1.5" d="M11,2.553c-4.776,0.5 -8.5,4.538 -8.5,9.447c0,5.247 4.253,9.5 9.5,9.5c4.909,0 8.947,-3.724 9.447,-8.5"></path></g></svg>