<?xml version="1.0" encoding="UTF-8"?><svg version="1.1" viewBox="0 0 24 24" xmlns="http://www.w3.org/2000/svg" xmlns:xlink="http://www.w3.org/1999/xlink"><!--Generated by IJSVG (https://github.com/iconjar/IJSVG)--><g stroke-linecap="round" stroke-width="1.5" stroke="#323232" fill="none" stroke-linejoin="round"><path d="M13.273,10.727c0.703,0.703 0.703,1.843 0,2.546c-0.703,0.703 -1.843,0.703 -2.546,0c-0.703,-0.703 -0.703,-1.843 0,-2.546c0.703,-0.703 1.843,-0.703 2.546,0"></path><path d="M7.5,12c0,0.198 0.018,0.396 0.042,0.588l-0.317,0.248c-0.661,0.516 -0.84,1.441 -0.42,2.167v0c0.419,0.725 1.306,1.031 2.083,0.719l0.076,-0.031c0.187,-0.075 0.396,-0.045 0.564,0.066c0.147,0.097 0.299,0.187 0.456,0.267c0.18,0.091 0.311,0.255 0.339,0.455l0.011,0.08c0.119,0.827 0.828,1.441 1.663,1.441h0.003c0.836,0 1.545,-0.614 1.664,-1.442l0.011,-0.079c0.029,-0.2 0.161,-0.365 0.341,-0.455c0.157,-0.079 0.308,-0.167 0.454,-0.264c0.169,-0.112 0.379,-0.144 0.567,-0.068l0.074,0.03c0.776,0.312 1.664,0.005 2.082,-0.719l0.001,-0.001c0.419,-0.726 0.24,-1.649 -0.42,-2.165l-0.317,-0.248c0.025,-0.193 0.043,-0.391 0.043,-0.589c0,-0.198 -0.018,-0.396 -0.042,-0.588l0.317,-0.248c0.66,-0.516 0.839,-1.44 0.42,-2.165l-0.001,-0.001c-0.419,-0.725 -1.306,-1.031 -2.083,-0.719l-0.074,0.03c-0.188,0.075 -0.397,0.044 -0.567,-0.068c-0.146,-0.097 -0.297,-0.185 -0.454,-0.264c-0.181,-0.091 -0.313,-0.255 -0.341,-0.455l-0.011,-0.078c-0.117,-0.829 -0.826,-1.444 -1.663,-1.444h-0.001c-0.836,0 -1.545,0.614 -1.664,1.442l-0.011,0.08c-0.029,0.199 -0.16,0.363 -0.339,0.455c-0.157,0.08 -0.309,0.17 -0.456,0.267c-0.17,0.111 -0.379,0.141 -0.566,0.065l-0.076,-0.031c-0.777,-0.311 -1.664,-0.005 -2.083,0.72v0c-0.42,0.726 -0.24,1.65 0.42,2.167l0.317,0.248c-0.024,0.191 -0.042,0.389 -0.042,0.587Z"></path><path d="M19.2,21h-14.4c-0.994,0 -1.8,-0.806 -1.8,-1.8v-14.4c0,-0.994 0.806,-1.8 1.8,-1.8h14.4c0.994,0 1.8,0.806 1.8,1.8v14.4c0,0.994 -0.806,1.8 -1.8,1.8Z"></path></g><path fill="none" d="M0,0h24v24h-24v-24Z"></path></svg>