<?xml version="1.0" encoding="UTF-8"?><svg version="1.1" viewBox="0 0 24 24" xmlns="http://www.w3.org/2000/svg" xmlns:xlink="http://www.w3.org/1999/xlink"><!--Generated by IJSVG (https://github.com/iconjar/IJSVG)--><g fill="none"><path d="M0,0h24v24h-24Z"></path><path stroke="#323232" stroke-linecap="round" stroke-linejoin="round" stroke-width="1.5" d="M14.485,4h-4.97c-0.53,0 -1.039,0.211 -1.414,0.586l-3.515,3.515c-0.375,0.375 -0.586,0.883 -0.586,1.414v4.971c0,0.53 0.211,1.039 0.586,1.414l3.515,3.515c0.375,0.374 0.883,0.585 1.414,0.585h4.971c0.53,0 1.039,-0.211 1.414,-0.586l3.515,-3.515c0.374,-0.375 0.585,-0.883 0.585,-1.414v-4.97c0,-0.53 -0.211,-1.039 -0.586,-1.414l-3.515,-3.515c-0.375,-0.375 -0.883,-0.586 -1.414,-0.586Z"></path><path stroke="#323232" stroke-linecap="round" stroke-linejoin="round" stroke-width="1.5" d="M14.8284,9.17157c1.5621,1.5621 1.5621,4.09476 0,5.65685c-1.5621,1.5621 -4.09476,1.5621 -5.65685,0c-1.5621,-1.5621 -1.5621,-4.09476 -1.77636e-15,-5.65685c1.5621,-1.5621 4.09476,-1.5621 5.65685,-1.77636e-15"></path></g></svg>