<?xml version="1.0" encoding="UTF-8"?><svg version="1.1" viewBox="0 0 24 24" xmlns="http://www.w3.org/2000/svg" xmlns:xlink="http://www.w3.org/1999/xlink"><!--Generated by IJSVG (https://github.com/iconjar/IJSVG)--><g fill="none"><path d="M0,0h24v24h-24Z"></path><path stroke="#323232" stroke-linecap="round" stroke-linejoin="round" stroke-width="1.5" d="M16.196,5l3.464,6c0.357,0.619 0.357,1.381 0,2l-3.464,6c-0.357,0.619 -1.018,1 -1.732,1h-6.928c-0.715,0 -1.375,-0.381 -1.732,-1l-3.464,-6c-0.357,-0.619 -0.357,-1.381 0,-2l3.464,-6c0.357,-0.619 1.018,-1 1.732,-1h6.929c0.714,0 1.374,0.381 1.731,1Z" transform="matrix(1,0,0,1,1,0)"></path><path stroke="#323232" stroke-linecap="round" stroke-linejoin="round" stroke-width="1.5" d="M10,8l4,8"></path></g></svg>