<?xml version="1.0" encoding="UTF-8"?><svg version="1.1" viewBox="0 0 24 24" xmlns="http://www.w3.org/2000/svg" xmlns:xlink="http://www.w3.org/1999/xlink"><!--Generated by IJSVG (https://github.com/iconjar/IJSVG)--><g fill="none"><path d="M0,0h24v24h-24Z"></path><path stroke="#323232" stroke-linecap="round" stroke-linejoin="round" stroke-width="1.5" d="M14.215,7.125l3.592,-3.592c0.048,-0.048 0.032,-0.132 -0.03,-0.158c-2.038,-0.872 -4.543,-0.507 -6.225,1.174c-1.632,1.632 -2.061,3.951 -1.288,5.926l-6.763,6.763c-0.889,0.889 -0.889,2.331 0,3.221v0c0.889,0.889 2.331,0.889 3.221,0l6.806,-6.806c1.975,0.773 4.294,0.344 5.926,-1.288c1.684,-1.684 2.129,-4.192 1.176,-6.232c-0.028,-0.059 -0.11,-0.074 -0.157,-0.028l-3.681,3.598v0l-1.288,-1.288l-1.289,-1.29Z"></path></g></svg>