<?xml version="1.0" encoding="UTF-8"?><svg version="1.1" viewBox="0 0 24 24" xmlns="http://www.w3.org/2000/svg" xmlns:xlink="http://www.w3.org/1999/xlink"><!--Generated by IJSVG (https://github.com/iconjar/IJSVG)--><g stroke-linecap="round" stroke-width="1.5" stroke="#323232" fill="none" stroke-linejoin="round"><path d="M10.05,17.296l1.35,-0.71c0.376,-0.198 0.825,-0.198 1.201,0l1.35,0.71c0.435,0.229 0.962,0.19 1.359,-0.098l0.503,-0.366c0.397,-0.289 0.596,-0.778 0.513,-1.262l-0.258,-1.503c-0.072,-0.419 0.067,-0.846 0.371,-1.142l1.092,-1.064c0.352,-0.343 0.478,-0.856 0.327,-1.323l-0.192,-0.592c-0.152,-0.467 -0.556,-0.808 -1.042,-0.878l-1.509,-0.219c-0.42,-0.061 -0.784,-0.325 -0.972,-0.706l-0.675,-1.367c-0.217,-0.44 -0.666,-0.719 -1.157,-0.719h-0.622c-0.491,0 -0.94,0.279 -1.157,0.719l-0.675,1.367c-0.188,0.381 -0.551,0.645 -0.971,0.706l-1.509,0.219c-0.486,0.071 -0.89,0.411 -1.042,0.878l-0.192,0.592c-0.152,0.467 -0.025,0.98 0.327,1.323l1.092,1.064c0.304,0.296 0.443,0.724 0.371,1.142l-0.259,1.503c-0.083,0.484 0.116,0.973 0.513,1.262l0.503,0.366c0.398,0.288 0.925,0.326 1.36,0.098Z"></path><path d="M12,21v0c-4.971,0 -9,-4.029 -9,-9v0c0,-4.971 4.029,-9 9,-9v0c4.971,0 9,4.029 9,9v0c0,4.971 -4.029,9 -9,9Z"></path><path d="M12.354,11.646c0.195,0.195 0.195,0.512 0,0.707c-0.195,0.195 -0.512,0.195 -0.707,0c-0.195,-0.195 -0.195,-0.512 0,-0.707c0.195,-0.195 0.511,-0.195 0.707,0"></path></g><path fill="none" d="M0,0h24v24h-24Z"></path></svg>