<?xml version="1.0" encoding="UTF-8"?><svg version="1.1" viewBox="0 0 24 24" xmlns="http://www.w3.org/2000/svg" xmlns:xlink="http://www.w3.org/1999/xlink"><!--Generated by IJSVG (https://github.com/iconjar/IJSVG)--><g stroke-linecap="round" stroke-width="1.5" stroke="#323232" fill="none" stroke-linejoin="round"><path d="M17.196,5l3.464,6c0.357,0.619 0.357,1.381 0,2l-3.464,6c-0.357,0.619 -1.018,1 -1.732,1h-6.928c-0.715,0 -1.375,-0.381 -1.732,-1l-3.464,-6c-0.357,-0.619 -0.357,-1.381 0,-2l3.464,-6c0.357,-0.619 1.018,-1 1.732,-1h6.929c0.714,0 1.374,0.381 1.731,1Z"></path><path d="M14.7994,9.20056c1.54609,1.54609 1.54609,4.05279 0,5.59887c-1.54609,1.54609 -4.05279,1.54609 -5.59887,0c-1.54609,-1.54609 -1.54609,-4.05279 -1.77636e-15,-5.59887c1.54609,-1.54609 4.05279,-1.54609 5.59887,-1.77636e-15"></path></g><path fill="none" d="M0,0h24v24h-24Z"></path></svg>