<?xml version="1.0" encoding="UTF-8"?><svg version="1.1" viewBox="0 0 24 24" xmlns="http://www.w3.org/2000/svg" xmlns:xlink="http://www.w3.org/1999/xlink"><!--Generated by IJSVG (https://github.com/iconjar/IJSVG)--><g fill="none"><path d="M24,24h-24v-24h24v24Z"></path><path stroke="#323232" stroke-linecap="round" stroke-linejoin="round" stroke-width="1.5" d="M8,7h8c2.761,0 5,2.239 5,5v0c0,2.761 -2.239,5 -5,5h-8c-2.761,0 -5,-2.239 -5,-5v0c0,-2.761 2.239,-5 5,-5Z"></path><path stroke="#323232" stroke-linecap="round" stroke-linejoin="round" stroke-width="1.5" d="M8,14v-4"></path><path stroke="#323232" stroke-linecap="round" stroke-linejoin="round" stroke-width="1.5" d="M14.586,13.414c-0.781,-0.781 -0.781,-2.047 0,-2.828c0.781,-0.781 2.047,-0.781 2.828,0c0.781,0.781 0.781,2.047 0,2.828c-0.781,0.781 -2.047,0.781 -2.828,0"></path></g></svg>