<?xml version="1.0" encoding="UTF-8"?><svg version="1.1" viewBox="0 0 24 24" xmlns="http://www.w3.org/2000/svg" xmlns:xlink="http://www.w3.org/1999/xlink"><!--Generated by IJSVG (https://github.com/iconjar/IJSVG)--><g stroke-width="1.5" fill="none" stroke="#323232"><path d="M5.839,14.193l-2.671,1.895c-0.375,0.266 -0.532,0.746 -0.387,1.182l1.004,3.015c0.141,0.427 0.54,0.715 0.99,0.715h3.336c0.45,0 0.849,-0.288 0.991,-0.715l1.004,-3.015c0.145,-0.436 -0.012,-0.916 -0.387,-1.182l-2.671,-1.895c-0.363,-0.257 -0.847,-0.257 -1.209,-1.77636e-15Z"></path><path stroke-linecap="round" stroke-linejoin="round" d="M4.193,3.5h4.5c0.552,0 1,0.448 1,1v4.5c0,0.552 -0.448,1 -1,1h-4.5c-0.552,0 -1,-0.448 -1,-1v-4.5c4.44089e-16,-0.552 0.448,-1 1,-1Z"></path><path stroke-linecap="round" stroke-linejoin="round" d="M17.633,14v0c-1.933,0 -3.5,1.567 -3.5,3.5v0c0,1.933 1.567,3.5 3.5,3.5v0c1.933,0 3.5,-1.567 3.5,-3.5v0c0,-1.933 -1.567,-3.5 -3.5,-3.5Z"></path><path stroke-linecap="round" stroke-linejoin="round" d="M16.605,4.07l-2.547,4.076c-0.505,0.807 0.076,1.854 1.027,1.854h5.095c0.952,0 1.532,-1.047 1.027,-1.854l-2.546,-4.076c-0.475,-0.76 -1.581,-0.76 -2.056,0Z"></path></g><path fill="none" d="M0,0h24v24h-24Z"></path></svg>