<?xml version="1.0" encoding="UTF-8"?><svg version="1.1" viewBox="0 0 24 24" xmlns="http://www.w3.org/2000/svg" xmlns:xlink="http://www.w3.org/1999/xlink"><!--Generated by IJSVG (https://github.com/iconjar/IJSVG)--><g fill="none"><path d="M0,0h24v24h-24v-24Z"></path><path stroke="#323232" stroke-linecap="round" stroke-linejoin="round" stroke-width="1.5" d="M14.888,10.544c-3.444,0 -6.509,1.194 -7.984,4.456v-1c0,-4.968 3.622,-7.955 7.984,-7.955v-2.158c0,-0.755 0.883,-1.164 1.459,-0.675l5.34,4.533c0.408,0.345 0.419,0.972 0.022,1.331l-5.34,4.841c-0.569,0.515 -1.481,0.112 -1.481,-0.656v-2.717Z"></path><path stroke="#323232" stroke-linecap="round" stroke-linejoin="round" stroke-width="1.5" d="M10,3h-5c-1.105,0 -2,0.895 -2,2v14c0,1.105 0.895,2 2,2h14c1.105,0 2,-0.895 2,-2v-4"></path></g></svg>