<?xml version="1.0" encoding="UTF-8"?><svg version="1.1" viewBox="0 0 24 24" xmlns="http://www.w3.org/2000/svg" xmlns:xlink="http://www.w3.org/1999/xlink"><!--Generated by IJSVG (https://github.com/iconjar/IJSVG)--><g stroke-linecap="round" stroke-width="1.5" stroke="#323232" fill="none" stroke-linejoin="round"><path d="M13.53,7.52l-4.06,3.04"></path><path d="M16.4048,4.64216c0.793545,0.793545 0.793545,2.08014 0,2.87368c-0.793545,0.793545 -2.08014,0.793545 -2.87368,8.88178e-16c-0.793545,-0.793545 -0.793545,-2.08014 -1.77636e-15,-2.87368c0.793545,-0.793545 2.08014,-0.793545 2.87368,-8.88178e-16"></path><path d="M13.53,16.48l-4.06,-3.04"></path><path d="M16.4048,16.4842c0.793545,0.793545 0.793545,2.08014 0,2.87368c-0.793545,0.793545 -2.08014,0.793545 -2.87368,0c-0.793545,-0.793545 -0.793545,-2.08014 -1.77636e-15,-2.87368c0.793545,-0.793545 2.08014,-0.793545 2.87368,0"></path><path d="M9.46543,10.5646c0.792764,0.792764 0.792764,2.07809 0,2.87085c-0.792764,0.792764 -2.07809,0.792764 -2.87085,0c-0.792764,-0.792764 -0.792764,-2.07809 -8.88178e-16,-2.87085c0.792764,-0.792764 2.07809,-0.792764 2.87085,0"></path></g><path fill="none" d="M0,0h24v24h-24Z"></path></svg>