<?xml version="1.0" encoding="UTF-8"?><svg version="1.1" viewBox="0 0 24 24" xmlns="http://www.w3.org/2000/svg" xmlns:xlink="http://www.w3.org/1999/xlink"><!--Generated by IJSVG (https://github.com/iconjar/IJSVG)--><g fill="none"><path d="M0,0h24v24h-24Z"></path><path stroke="#323232" stroke-linecap="round" stroke-linejoin="round" stroke-width="1.5" d="M7.374,16.25c-0.207,0 -0.375,0.168 -0.373,0.375c-0.001,0.207 0.167,0.375 0.374,0.375c0.207,0 0.375,-0.168 0.375,-0.375c0,-0.207 -0.168,-0.375 -0.376,-0.375"></path><path stroke="#323232" stroke-linecap="round" stroke-linejoin="round" stroke-width="1.5" d="M12,17c-0.064,-2.927 -2.073,-4.936 -5,-5"></path><path stroke="#323232" stroke-linecap="round" stroke-linejoin="round" stroke-width="1.5" d="M16.389,13.466c-0.981,-2.776 -3.079,-4.874 -5.855,-5.855"></path><path stroke="#323232" stroke-linecap="round" stroke-linejoin="round" stroke-width="1.5" d="M17,17c-0.015,-1.264 -0.228,-2.45 -0.611,-3.534"></path><path stroke="#323232" stroke-linecap="round" stroke-linejoin="round" stroke-width="1.5" d="M7,7c1.264,0.015 2.45,0.228 3.534,0.611"></path><path stroke="#323232" stroke-linecap="round" stroke-linejoin="round" stroke-width="1.5" d="M5,3h14c1.105,0 2,0.895 2,2v14c0,1.105 -0.895,2 -2,2h-14c-1.105,0 -2,-0.895 -2,-2v-14c0,-1.105 0.895,-2 2,-2Z"></path></g></svg>