<?xml version="1.0" encoding="UTF-8"?><svg version="1.1" viewBox="0 0 24 24" xmlns="http://www.w3.org/2000/svg" xmlns:xlink="http://www.w3.org/1999/xlink"><!--Generated by IJSVG (https://github.com/iconjar/IJSVG)--><g stroke-linecap="round" stroke-width="1.5" stroke="#323232" fill="none" stroke-linejoin="round"><path d="M18.364,5.63604c3.51472,3.51472 3.51472,9.2132 0,12.7279c-3.51472,3.51472 -9.2132,3.51472 -12.7279,0c-3.51472,-3.51472 -3.51472,-9.2132 -1.77636e-15,-12.7279c3.51472,-3.51472 9.2132,-3.51472 12.7279,-1.77636e-15"></path><path d="M16.538,11.865c0,2.576 -1.936,4.985 -4.538,5.57c-2.602,-0.585 -4.538,-2.994 -4.538,-5.57v-2.024c0,-0.461 0.279,-0.876 0.705,-1.05l2.836,-1.161c0.639,-0.262 1.355,-0.262 1.993,0l2.836,1.161c0.427,0.175 0.705,0.589 0.705,1.05v2.024Z"></path></g><path fill="none" d="M24,24h-24v-24h24v24Z"></path></svg>