<?xml version="1.0" encoding="UTF-8"?><svg version="1.1" viewBox="0 0 24 24" xmlns="http://www.w3.org/2000/svg" xmlns:xlink="http://www.w3.org/1999/xlink"><!--Generated by IJSVG (https://github.com/iconjar/IJSVG)--><g stroke-linecap="round" stroke-width="1.5" stroke="#323232" fill="none" stroke-linejoin="round"><path d="M20.26,20l-17,-17"></path><path d="M17.647,17.388c-1.273,1.665 -3.066,2.954 -5.149,3.543c-0.323,0.092 -0.673,0.092 -0.996,0c-4.144,-1.172 -7.169,-5.096 -7.169,-9.282v-4.61c0,-0.778 0.471,-1.48 1.19,-1.774"></path></g><path fill="none" d="M17.647,17.388c-1.273,1.665 -3.066,2.954 -5.149,3.543"></path><path d="M19.216,14.424c0.289,-0.893 0.451,-1.826 0.451,-2.775v-4.61c0,-0.778 -0.471,-1.48 -1.19,-1.774l-4.661,-1.907c-1.163,-0.476 -2.466,-0.476 -3.63,0l-1.262,0.515" stroke-linecap="round" stroke-width="1.5" stroke="#323232" fill="none" stroke-linejoin="round"></path><path fill="none" d="M0,0h24v24h-24Z"></path></svg>