<?xml version="1.0" encoding="UTF-8"?><svg version="1.1" viewBox="0 0 24 24" xmlns="http://www.w3.org/2000/svg" xmlns:xlink="http://www.w3.org/1999/xlink"><!--Generated by IJSVG (https://github.com/iconjar/IJSVG)--><defs><path d="M0,0h24v24h-24v-24Z" id="a"></path></defs><g fill="none"><use xlink:href="#a"></use><use xlink:href="#a"></use><path stroke="#323232" stroke-linecap="round" stroke-linejoin="round" stroke-width="1.5" d="M15.319,10.342l-4.148,4.148l-2.489,-2.489"></path><path stroke="#323232" stroke-linecap="round" stroke-linejoin="round" stroke-width="1.5" d="M19.1,5.921c-2.459,-0.194 -4.697,-1.173 -6.463,-2.688c-0.362,-0.31 -0.913,-0.31 -1.274,0c-1.766,1.514 -4.004,2.494 -6.463,2.688c-0.512,0.04 -0.9,0.478 -0.9,0.991v4.33c0,4.367 3.156,8.462 7.478,9.685c0.339,0.096 0.706,0.096 1.045,0c4.321,-1.224 7.477,-5.317 7.477,-9.684v-4.33c0,-0.514 -0.388,-0.952 -0.9,-0.992Z"></path></g></svg>