<?xml version="1.0" encoding="UTF-8"?><svg version="1.1" viewBox="0 0 24 24" xmlns="http://www.w3.org/2000/svg" xmlns:xlink="http://www.w3.org/1999/xlink"><!--Generated by IJSVG (https://github.com/iconjar/IJSVG)--><g stroke-linecap="round" stroke-width="1.5" stroke="#323232" fill="none" stroke-linejoin="round"><path d="M13.5227,7.59529c0.847047,0.847047 0.847047,2.22038 0,3.06743c-0.847047,0.847047 -2.22038,0.847047 -3.06743,0c-0.847047,-0.847047 -0.847047,-2.22038 0,-3.06743c0.847047,-0.847047 2.22038,-0.847047 3.06743,-8.88178e-16"></path><path d="M8.188,12.856c-0.939,-0.963 -1.52,-2.276 -1.52,-3.727c0,-1.451 0.581,-2.765 1.52,-3.727"></path><path d="M5.787,15.258c-1.555,-1.577 -2.518,-3.739 -2.518,-6.129c0,-2.39 0.962,-4.552 2.518,-6.129"></path><path d="M11.99,21v-9.7"></path><path d="M15.812,5.402c0.939,0.963 1.52,2.276 1.52,3.727c0,1.451 -0.581,2.765 -1.52,3.727"></path><path d="M18.213,3c1.555,1.577 2.518,3.739 2.518,6.129c0,2.39 -0.962,4.552 -2.518,6.129"></path></g><path fill="none" d="M0,0h24v24h-24Z"></path></svg>