<?xml version="1.0" encoding="UTF-8"?><svg version="1.1" viewBox="0 0 24 24" xmlns="http://www.w3.org/2000/svg" xmlns:xlink="http://www.w3.org/1999/xlink"><!--Generated by IJSVG (https://github.com/iconjar/IJSVG)--><g stroke-linecap="round" stroke-width="1.5" stroke="#323232" fill="none" stroke-linejoin="round"><path d="M21,12v0.045c0,2.341 -1.552,4.399 -3.803,5.042v0c-1.952,0.558 -4.05,-0.061 -5.387,-1.589l-3.45,-3.943c-0.864,-0.988 -2.113,-1.555 -3.426,-1.555c-0.611,0 -1.216,0.125 -1.779,0.363"></path><path d="M18.364,5.63604c3.51472,3.51472 3.51472,9.2132 0,12.7279c-3.51472,3.51472 -9.2132,3.51472 -12.7279,0c-3.51472,-3.51472 -3.51472,-9.2132 -1.77636e-15,-12.7279c3.51472,-3.51472 9.2132,-3.51472 12.7279,-1.77636e-15"></path><path d="M20.937,10.968l-2.638,-1.319c-0.854,-0.427 -1.796,-0.649 -2.751,-0.649v0c-1.631,0 -3.196,0.648 -4.35,1.802l-2.697,2.697c-0.931,0.931 -2.283,1.306 -3.561,0.986v0c-1.14,-0.285 -1.94,-1.31 -1.94,-2.485v0"></path><path d="M20.558,14.779l-2.584,-1.292c-0.64,-0.32 -1.347,-0.487 -2.063,-0.487v0c-1.224,0 -2.397,0.486 -3.262,1.351l-2.093,2.093c-1.418,1.418 -3.869,1.564 -5.405,0.274c-1.362,-1.143 -2.151,-2.832 -2.151,-4.615v-0.103"></path></g><path fill="none" d="M0,0h24v24h-24Z"></path></svg>