<?xml version="1.0" encoding="UTF-8"?><svg version="1.1" viewBox="0 0 24 24" xmlns="http://www.w3.org/2000/svg" xmlns:xlink="http://www.w3.org/1999/xlink"><!--Generated by IJSVG (https://github.com/iconjar/IJSVG)--><g fill="none"><path d="M0,0.014h24v24h-24v-24Z"></path><path stroke="#323232" stroke-linecap="round" stroke-linejoin="round" stroke-width="1.5" d="M16,14.757v-0.769c0,-0.382 -0.245,-0.723 -0.608,-0.843l-2.059,-0.686v-1.777l0.619,-0.397c0.456,-0.293 0.669,-0.849 0.522,-1.371v0c-0.149,-0.533 -0.633,-0.899 -1.186,-0.899h-2.576c-0.552,0 -1.037,0.367 -1.187,0.899v0c-0.146,0.522 0.066,1.078 0.522,1.371l0.619,0.397v1.778l-2.059,0.686c-0.362,0.119 -0.607,0.459 -0.607,0.842v0.769c0,0.235 0.093,0.462 0.261,0.629l0.368,0.368c0.167,0.167 0.393,0.261 0.629,0.261h5.486c0.235,0 0.462,-0.093 0.629,-0.261l0.368,-0.368c0.166,-0.167 0.259,-0.393 0.259,-0.629Z"></path><path stroke="#323232" stroke-linecap="round" stroke-linejoin="round" stroke-width="1.5" d="M18.364,5.65004c3.51472,3.51472 3.51472,9.2132 0,12.7279c-3.51472,3.51472 -9.2132,3.51472 -12.7279,0c-3.51472,-3.51472 -3.51472,-9.2132 -1.77636e-15,-12.7279c3.51472,-3.51472 9.2132,-3.51472 12.7279,-1.77636e-15"></path></g></svg>