<?xml version="1.0" encoding="UTF-8"?><svg version="1.1" viewBox="0 0 24 24" xmlns="http://www.w3.org/2000/svg" xmlns:xlink="http://www.w3.org/1999/xlink"><!--Generated by IJSVG (https://github.com/iconjar/IJSVG)--><g stroke-linecap="round" stroke-width="1.5" stroke="#323232" fill="none" stroke-linejoin="round"><path d="M10.459,16.133l1.067,-0.561c0.297,-0.156 0.652,-0.156 0.949,0l1.067,0.561c0.344,0.181 0.76,0.151 1.074,-0.078l0.398,-0.289c0.314,-0.228 0.471,-0.615 0.406,-0.997l-0.204,-1.188c-0.057,-0.331 0.053,-0.668 0.293,-0.903l0.863,-0.841c0.278,-0.271 0.378,-0.676 0.258,-1.045l-0.152,-0.468c-0.12,-0.369 -0.439,-0.638 -0.823,-0.694l-1.193,-0.173c-0.332,-0.048 -0.619,-0.257 -0.768,-0.558l-0.534,-1.081c-0.171,-0.348 -0.526,-0.568 -0.914,-0.568h-0.492c-0.388,0 -0.743,0.22 -0.914,0.568l-0.533,1.081c-0.149,0.301 -0.436,0.51 -0.768,0.558l-1.193,0.173c-0.384,0.056 -0.703,0.325 -0.823,0.694l-0.152,0.468c-0.12,0.369 -0.02,0.774 0.258,1.045l0.863,0.841c0.24,0.234 0.35,0.572 0.293,0.903l-0.204,1.188c-0.066,0.383 0.092,0.769 0.406,0.997l0.398,0.289c0.314,0.228 0.73,0.258 1.074,0.078Z"></path><path d="M5.636,5.636c3.515,-3.515 9.213,-3.515 12.728,0c3.515,3.515 3.515,9.213 0,12.728c-3.515,3.515 -9.213,3.515 -12.728,0c-3.515,-3.515 -3.515,-9.213 -8.88178e-16,-12.728"></path></g><path fill="none" d="M0,0h24v24h-24v-24Z"></path></svg>