<?xml version="1.0" encoding="UTF-8"?><svg version="1.1" viewBox="0 0 24 24" xmlns="http://www.w3.org/2000/svg" xmlns:xlink="http://www.w3.org/1999/xlink"><!--Generated by IJSVG (https://github.com/iconjar/IJSVG)--><g stroke-linecap="round" stroke-width="1.5" stroke="#323232" fill="none" stroke-linejoin="round"><path d="M3,13.727v0c0.815,0 1.597,-0.324 2.173,-0.9l1.653,-1.653c0.576,-0.576 1.358,-0.9 2.173,-0.9v0c0.815,0 1.597,0.324 2.173,0.9l1.653,1.653c0.576,0.576 1.358,0.9 2.173,0.9v0c0.815,0 1.597,-0.324 2.173,-0.9l1.653,-1.653c0.576,-0.576 1.358,-0.9 2.173,-0.9v0"></path><path d="M17.8,21h-11.6c-1.767,0 -3.2,-1.433 -3.2,-3.2v-11.6c0,-1.767 1.433,-3.2 3.2,-3.2h11.6c1.767,0 3.2,1.433 3.2,3.2v11.6c0,1.767 -1.433,3.2 -3.2,3.2Z"></path></g><path fill="none" d="M0,0h24v24h-24Z"></path></svg>