<?xml version="1.0" encoding="UTF-8"?><svg version="1.1" viewBox="0 0 24 24" xmlns="http://www.w3.org/2000/svg" xmlns:xlink="http://www.w3.org/1999/xlink"><!--Generated by IJSVG (https://github.com/iconjar/IJSVG)--><g stroke-linecap="round" stroke-width="1.5" stroke="#323232" fill="none" stroke-linejoin="round"><path d="M16.774,20.317l4.593,-4.593c0.845,-0.845 0.845,-2.215 0,-3.061v0c-0.845,-0.845 -2.215,-0.845 -3.061,0l-4.6,4.6c-0.153,0.153 -0.252,0.351 -0.283,0.566l-0.453,3.171l3.219,-0.397c0.221,-0.028 0.427,-0.128 0.585,-0.286Z"></path><path stroke-width="1.5175" d="M8.895,8.058v1.012"></path><path stroke-width="1.5175" d="M12.942,8.058v1.012"></path><path stroke-width="1.5175" d="M11.93,14.024c-0.313,0.061 -0.646,0.104 -1.012,0.104c-2.214,0 -3.541,-1.327 -3.541,-1.327"></path><path d="M10,19h-1c-3.314,0 -6,-2.686 -6,-6v-4c0,-3.314 2.686,-6 6,-6h4c3.314,0 6,2.686 6,6"></path></g><path fill="none" d="M0,0h24v24h-24v-24Z"></path></svg>