<?xml version="1.0" encoding="UTF-8"?><svg version="1.1" viewBox="0 0 24 24" xmlns="http://www.w3.org/2000/svg" xmlns:xlink="http://www.w3.org/1999/xlink"><!--Generated by IJSVG (https://github.com/iconjar/IJSVG)--><g fill="none"><path d="M0,0h24v24h-24v-24Z"></path><path stroke="#323232" stroke-linecap="round" stroke-linejoin="round" stroke-width="1.5" d="M18.364,5.63604c3.51472,3.51472 3.51472,9.2132 0,12.7279c-3.51472,3.51472 -9.2132,3.51472 -12.7279,0c-3.51472,-3.51472 -3.51472,-9.2132 -1.77636e-15,-12.7279c3.51472,-3.51472 9.2132,-3.51472 12.7279,-1.77636e-15"></path><path stroke="#323232" stroke-linecap="round" stroke-linejoin="round" stroke-width="1.5" d="M6.826,11.539c0.562,-0.461 1.382,-0.42 1.895,0.094l0.868,0.867v-3.498c0,-1.365 1.337,-2.329 2.632,-1.897l2.803,0.934c0.817,0.272 1.368,1.037 1.368,1.897v4.098c0,1.905 -1.545,3.45 -3.45,3.45h-1.626c-1.087,0 -2.11,-0.512 -2.762,-1.382l-1.964,-2.623c-0.453,-0.606 -0.349,-1.461 0.236,-1.94v0Z"></path></g></svg>