<?xml version="1.0" encoding="UTF-8"?><svg version="1.1" viewBox="0 0 24 24" xmlns="http://www.w3.org/2000/svg" xmlns:xlink="http://www.w3.org/1999/xlink"><!--Generated by IJSVG (https://github.com/iconjar/IJSVG)--><g fill="none"><path d="M0,0h24v24h-24v-24Z"></path><path stroke="#323232" stroke-linecap="round" stroke-linejoin="round" stroke-width="1.5" d="M6.826,11.539c0.562,-0.461 1.382,-0.42 1.895,0.094l0.868,0.867v-3.498c0,-1.365 1.337,-2.329 2.632,-1.897l2.803,0.934c0.817,0.272 1.368,1.037 1.368,1.897v4.098c0,1.905 -1.545,3.45 -3.45,3.45h-1.626c-1.087,0 -2.11,-0.512 -2.762,-1.382l-1.964,-2.623c-0.453,-0.606 -0.349,-1.461 0.236,-1.94v0Z"></path><path stroke="#323232" stroke-linecap="round" stroke-linejoin="round" stroke-width="1.5" d="M7.415,20.415l-3.829,-3.829c-0.375,-0.375 -0.586,-0.884 -0.586,-1.415v-6.343c0,-0.53 0.211,-1.039 0.585,-1.413l3.829,-3.829c0.375,-0.375 0.884,-0.586 1.414,-0.586h6.342c0.531,0 1.04,0.211 1.415,0.586l3.828,3.828c0.376,0.376 0.587,0.886 0.587,1.417v6.34c0,0.53 -0.211,1.038 -0.585,1.413l-3.829,3.83c-0.375,0.375 -0.884,0.586 -1.415,0.586h-6.343c-0.53,0 -1.039,-0.211 -1.413,-0.585Z"></path></g></svg>