<?xml version="1.0" encoding="UTF-8"?><svg version="1.1" viewBox="0 0 24 24" xmlns="http://www.w3.org/2000/svg" xmlns:xlink="http://www.w3.org/1999/xlink"><!--Generated by IJSVG (https://github.com/iconjar/IJSVG)--><g stroke-linecap="round" stroke-width="1.5" stroke="#323232" fill="none" stroke-linejoin="round"><path d="M16.524,7.477c0.303,0.783 0.476,1.632 0.476,2.523c0,3.866 -3.134,7 -7,7c-0.891,0 -1.74,-0.173 -2.524,-0.477"></path><path d="M13.214,3.786c-0.963,-0.499 -2.054,-0.786 -3.214,-0.786c-3.866,0 -7,3.134 -7,7c0,1.16 0.287,2.251 0.786,3.214"></path><path d="M18.9497,9.05025c2.73367,2.73367 2.73367,7.16582 0,9.89949c-2.73367,2.73367 -7.16582,2.73367 -9.89949,3.55271e-15c-2.73367,-2.73367 -2.73367,-7.16582 -1.77636e-15,-9.89949c2.73367,-2.73367 7.16582,-2.73367 9.89949,-1.77636e-15"></path></g><path fill="none" d="M0,0h24v24h-24Z"></path></svg>