<?xml version="1.0" encoding="UTF-8"?><svg version="1.1" viewBox="0 0 24 24" xmlns="http://www.w3.org/2000/svg" xmlns:xlink="http://www.w3.org/1999/xlink"><!--Generated by IJSVG (https://github.com/iconjar/IJSVG)--><g stroke-linecap="round" stroke-width="1.5" stroke="#323232" fill="none" stroke-linejoin="round"><path d="M7.268,3.732c0.976,0.976 0.976,2.559 0,3.536c-0.976,0.977 -2.559,0.976 -3.536,0c-0.976,-0.976 -0.976,-2.559 0,-3.536c0.977,-0.976 2.559,-0.976 3.536,-4.44089e-16"></path><path d="M20.268,16.732c0.976,0.976 0.976,2.559 0,3.536c-0.976,0.977 -2.559,0.976 -3.536,0c-0.977,-0.976 -0.976,-2.559 0,-3.536c0.976,-0.977 2.559,-0.976 3.536,0"></path><path d="M7.268,16.732c0.976,0.976 0.976,2.559 0,3.536c-0.976,0.977 -2.559,0.976 -3.536,0c-0.976,-0.976 -0.976,-2.559 0,-3.536c0.976,-0.977 2.559,-0.976 3.536,0"></path><path d="M20.268,3.732c0.976,0.976 0.976,2.559 0,3.536c-0.976,0.977 -2.559,0.976 -3.536,0c-0.977,-0.976 -0.976,-2.559 0,-3.536c0.977,-0.976 2.559,-0.976 3.536,-4.44089e-16"></path><path d="M11,18.92c0.327,0.047 0.66,0.08 1,0.08c0.34,0 0.673,-0.033 1,-0.08"></path><path d="M11,5.08c0.327,-0.047 0.66,-0.08 1,-0.08c0.34,0 0.673,0.033 1,0.08"></path><path d="M18.92,13c0.047,-0.327 0.08,-0.66 0.08,-1c0,-0.34 -0.033,-0.673 -0.08,-1"></path><path d="M5.08,13c-0.047,-0.327 -0.08,-0.66 -0.08,-1c0,-0.34 0.033,-0.673 0.08,-1"></path></g><path fill="none" d="M0,0h24v24h-24v-24Z"></path></svg>