<?xml version="1.0" encoding="UTF-8"?><svg version="1.1" viewBox="0 0 24 24" xmlns="http://www.w3.org/2000/svg" xmlns:xlink="http://www.w3.org/1999/xlink"><!--Generated by IJSVG (https://github.com/iconjar/IJSVG)--><g stroke-linecap="round" stroke-width="1.5" stroke="#323232" fill="none" stroke-linejoin="round"><path d="M5.5,3.5h13c1.105,0 2,0.895 2,2v13c0,1.105 -0.895,2 -2,2h-13c-1.105,0 -2,-0.895 -2,-2v-13c0,-1.105 0.895,-2 2,-2Z"></path><path d="M12,9.045c-0.069,0 -0.125,0.056 -0.124,0.125c0,0.069 0.056,0.125 0.125,0.125c0.069,0 0.125,-0.056 0.125,-0.125c0,-0.069 -0.057,-0.125 -0.126,-0.125"></path><path d="M12,6.205c-0.069,0 -0.125,0.056 -0.124,0.125c0,0.069 0.056,0.125 0.125,0.125c0.069,0 0.125,-0.056 0.125,-0.125c-0.001,-0.069 -0.057,-0.125 -0.126,-0.125"></path><path d="M12,11.875c-0.069,0 -0.125,0.056 -0.124,0.125c0,0.069 0.056,0.125 0.125,0.125c0.069,0 0.125,-0.056 0.125,-0.125c0,-0.069 -0.057,-0.125 -0.126,-0.125"></path><path d="M12,14.705c-0.069,0 -0.125,0.056 -0.124,0.125c0,0.069 0.056,0.125 0.125,0.125c0.069,0 0.125,-0.056 0.125,-0.125c0,-0.069 -0.057,-0.125 -0.126,-0.125"></path><path d="M12,17.545c-0.069,0 -0.125,0.056 -0.124,0.125c0,0.069 0.056,0.125 0.125,0.125c0.069,0 0.125,-0.056 0.125,-0.125c0,-0.069 -0.057,-0.125 -0.126,-0.125"></path><path d="M14.955,12c0,-0.069 -0.056,-0.125 -0.125,-0.124c-0.069,0 -0.125,0.056 -0.125,0.125c0,0.069 0.056,0.125 0.125,0.125c0.069,0 0.125,-0.057 0.125,-0.126"></path><path d="M17.795,12c0,-0.069 -0.056,-0.125 -0.125,-0.124c-0.069,0 -0.125,0.056 -0.125,0.125c0,0.069 0.056,0.125 0.125,0.125c0.069,0 0.125,-0.057 0.125,-0.126"></path><path d="M9.295,12c0,-0.069 -0.056,-0.125 -0.125,-0.124c-0.069,0 -0.125,0.056 -0.125,0.125c0,0.069 0.056,0.125 0.125,0.125c0.069,0 0.125,-0.057 0.125,-0.126"></path><path d="M6.455,12c0,-0.069 -0.056,-0.125 -0.125,-0.124c-0.069,0 -0.125,0.056 -0.125,0.125c0,0.069 0.056,0.125 0.125,0.125c0.069,-0.001 0.125,-0.057 0.125,-0.126"></path></g><path fill="none" d="M0,0h24v24h-24Z"></path></svg>