<?xml version="1.0" encoding="UTF-8"?><svg version="1.1" viewBox="0 0 24 24" xmlns="http://www.w3.org/2000/svg" xmlns:xlink="http://www.w3.org/1999/xlink"><!--Generated by IJSVG (https://github.com/iconjar/IJSVG)--><g stroke-linecap="round" stroke-width="1.5" stroke="#323232" fill="none" stroke-linejoin="round"><path d="M18.532,9h-13.064c-0.568,0 -1.028,-0.46 -1.028,-1.027v-0.946c0,-0.567 0.46,-1.027 1.028,-1.027h13.065c0.567,0 1.027,0.46 1.027,1.027v0.945c0,0.568 -0.46,1.028 -1.028,1.028Z"></path><path d="M18,9l-0.847,10.166c-0.087,1.037 -0.953,1.834 -1.993,1.834h-6.32c-1.04,0 -1.907,-0.797 -1.993,-1.834l-0.847,-10.166"></path><path d="M8,6l1.224,-2.447c0.169,-0.339 0.515,-0.553 0.894,-0.553h3.764c0.379,0 0.725,0.214 0.894,0.553l1.224,2.447"></path><path d="M12,12v6"></path><path d="M15,12l-0.41,6"></path><path d="M9,12l0.41,6"></path></g><path fill="none" d="M0,0h24v24h-24Z"></path></svg>