<?xml version="1.0" encoding="UTF-8"?><svg version="1.1" viewBox="0 0 24 24" xmlns="http://www.w3.org/2000/svg" xmlns:xlink="http://www.w3.org/1999/xlink"><!--Generated by IJSVG (https://github.com/iconjar/IJSVG)--><g stroke-linecap="round" stroke-width="1.5" stroke="#323232" fill="none" stroke-linejoin="round"><path d="M15.019,12.724l0.874,1.514c0.349,0.604 -0.087,1.36 -0.785,1.36h-1.748"></path><path d="M8.981,12.724l-0.874,1.514c-0.349,0.604 0.087,1.36 0.785,1.36h1.748"></path><path d="M10.341,10.369l0.874,-1.514c0.349,-0.604 1.221,-0.604 1.57,0l0.874,1.514"></path><path d="M17.21,21h-10.42c-1.019,0 -2.11,-0.766 -2.222,-1.779l-1.556,-14c-0.131,-1.185 0.796,-2.221 1.988,-2.221h14c1.192,0 2.119,1.036 1.988,2.221l-1.556,14c-0.113,1.013 -1.203,1.779 -2.222,1.779Z"></path></g><path fill="none" d="M0,0h24v24h-24Z"></path></svg>