<?xml version="1.0" encoding="UTF-8"?><svg version="1.1" viewBox="0 0 24 24" xmlns="http://www.w3.org/2000/svg" xmlns:xlink="http://www.w3.org/1999/xlink"><!--Generated by IJSVG (https://github.com/iconjar/IJSVG)--><g fill="none"><path d="M24,24h-24v-24"></path><path stroke="#323232" stroke-linecap="round" stroke-linejoin="round" stroke-width="1.5" d="M12,12.33v-3.33"></path><path stroke="#323232" stroke-linecap="round" stroke-linejoin="round" stroke-width="1.5" d="M11.999,14.833c-0.092,0 -0.167,0.075 -0.166,0.167c0,0.092 0.075,0.167 0.167,0.167c0.092,0 0.167,-0.075 0.167,-0.167c0,-0.092 -0.075,-0.167 -0.168,-0.167"></path><path stroke="#323232" stroke-linecap="round" stroke-linejoin="round" stroke-width="1.5" d="M17.654,17.654c-1.448,1.447 -3.445,2.346 -5.654,2.346c-4.418,0 -8,-3.582 -8,-8c0,-0.608 0.074,-1.198 0.202,-1.767"></path><path stroke="#323232" stroke-linecap="round" stroke-linejoin="round" stroke-width="1.5" d="M2,12l2,-2l2,2"></path><path stroke="#323232" stroke-linecap="round" stroke-linejoin="round" stroke-width="1.5" d="M22,12l-2,2l-2,-2"></path><path stroke="#323232" stroke-linecap="round" stroke-linejoin="round" stroke-width="1.5" d="M6.343,6.343c1.448,-1.447 3.448,-2.343 5.657,-2.343c4.418,0 8,3.582 8,8c0,0.608 -0.074,1.198 -0.202,1.767"></path><path d="M0,0h24v24h-24Z"></path></g></svg>