<?xml version="1.0" encoding="UTF-8"?><svg version="1.1" viewBox="0 0 24 24" xmlns="http://www.w3.org/2000/svg" xmlns:xlink="http://www.w3.org/1999/xlink"><!--Generated by IJSVG (https://github.com/iconjar/IJSVG)--><g stroke-linecap="round" stroke-width="1.5" stroke="#323232" fill="none" stroke-linejoin="round"><path d="M12,5.229v0c3.74,0 6.771,3.031 6.771,6.771v0c0,3.74 -3.031,6.771 -6.771,6.771v0c-3.74,0 -6.771,-3.031 -6.771,-6.771v0c0,-3.74 3.031,-6.771 6.771,-6.771Z"></path><path d="M12,12.376v-3.761"></path><path d="M11.999,15.047c-0.083,0 -0.15,0.067 -0.149,0.15c0,0.083 0.067,0.15 0.15,0.15c0.083,0 0.15,-0.067 0.15,-0.15c-1.77636e-15,-0.082 -0.067,-0.15 -0.151,-0.15"></path><path d="M20.326,5.757c2.778,3.692 2.778,8.793 0,12.485"></path><path d="M3.667,18.243c-2.778,-3.692 -2.778,-8.793 0,-12.485"></path></g><path fill="none" d="M0,0h24v24h-24v-24Z"></path></svg>