<?xml version="1.0" encoding="UTF-8"?><svg version="1.1" viewBox="0 0 24 24" xmlns="http://www.w3.org/2000/svg" xmlns:xlink="http://www.w3.org/1999/xlink"><!--Generated by IJSVG (https://github.com/iconjar/IJSVG)--><g fill="none"><path d="M0,0h24v24h-24Z"></path><path stroke="#323232" stroke-linecap="round" stroke-linejoin="round" stroke-width="1.5" d="M10,18h4"></path><path stroke="#323232" stroke-linecap="round" stroke-linejoin="round" stroke-width="1.5" d="M16.979,3h-9.958c-0.552,0 -1,0.448 -1,1v2.378c0,0.421 0.133,0.832 0.38,1.173l3.22,4.449l-3.22,4.449c-0.247,0.341 -0.38,0.752 -0.38,1.173v2.378c0,0.552 0.448,1 1,1h9.957c0.552,0 1,-0.448 1,-1v-2.342c0,-0.444 -0.148,-0.875 -0.42,-1.226l-3.437,-4.432l3.438,-4.433c0.272,-0.351 0.42,-0.782 0.42,-1.226v-2.341c-3.55271e-15,-0.552 -0.448,-1 -1,-1Z"></path></g></svg>