<?xml version="1.0" encoding="UTF-8"?><svg version="1.1" viewBox="0 0 24 24" xmlns="http://www.w3.org/2000/svg" xmlns:xlink="http://www.w3.org/1999/xlink"><!--Generated by IJSVG (https://github.com/iconjar/IJSVG)--><g stroke-linecap="round" stroke-width="1.5" stroke="#323232" fill="none" stroke-linejoin="round"><path d="M20.2652,7.73483c0.146447,0.146447 0.146447,0.383883 0,0.53033c-0.146447,0.146447 -0.383883,0.146447 -0.53033,0c-0.146447,-0.146447 -0.146447,-0.383883 0,-0.53033c0.146447,-0.146447 0.383883,-0.146447 0.53033,0"></path><path d="M17,4.518c-1.508,-1.01 -3.254,-1.515 -5,-1.515v-0.003c-4.971,0 -9,4.029 -9,9"></path><path d="M4.26517,15.7348c0.146447,0.146447 0.146447,0.383883 0,0.53033c-0.146447,0.146447 -0.383883,0.146447 -0.53033,0c-0.146447,-0.146447 -0.146447,-0.383883 0,-0.53033c0.146447,-0.146447 0.383883,-0.146447 0.53033,0"></path><path d="M7,19.482c1.508,1.01 3.254,1.515 5,1.515v0.003c4.971,0 9,-4.029 9,-9"></path><path d="M13.521,12l1.303,1.68c0.138,0.178 0.213,0.397 0.213,0.623v1.19c0,0.28 -0.228,0.508 -0.508,0.508h-5.058c-0.28,0 -0.508,-0.228 -0.508,-0.508v-1.208c0,-0.214 0.068,-0.423 0.193,-0.596l1.222,-1.689l-1.222,-1.688c-0.125,-0.174 -0.193,-0.382 -0.193,-0.596v-1.208c0,-0.28 0.228,-0.508 0.508,-0.508h5.058c0.28,0 0.508,0.228 0.508,0.508v1.189c0,0.226 -0.075,0.444 -0.213,0.623l-1.303,1.68Z"></path></g><path fill="none" d="M0,0h24v24h-24Z"></path></svg>