<?xml version="1.0" encoding="UTF-8"?><svg version="1.1" viewBox="0 0 24 24" xmlns="http://www.w3.org/2000/svg" xmlns:xlink="http://www.w3.org/1999/xlink"><!--Generated by IJSVG (https://github.com/iconjar/IJSVG)--><g stroke-linecap="round" stroke-width="1.5" stroke="#323232" fill="none" stroke-linejoin="round"><path d="M1.594,7.804c5.747,-5.072 15.065,-5.072 20.812,0"></path><path d="M12,16v-6.81"></path><path d="M11.999,19.5c-0.138,0 -0.25,0.112 -0.249,0.25c0,0.138 0.112,0.25 0.25,0.25c0.138,0 0.25,-0.112 0.25,-0.25c0,-0.138 -0.112,-0.25 -0.251,-0.25"></path><path d="M19.409,12c-1.273,-1.168 -2.797,-1.95 -4.409,-2.392"></path><path d="M9,9.608c-1.612,0.442 -3.136,1.224 -4.409,2.392"></path><path d="M15,14.777c0.508,0.275 0.99,0.616 1.42,1.044"></path><path d="M9,14.777c-0.508,0.275 -0.99,0.616 -1.421,1.044"></path></g><path fill="none" d="M0,0h24v24h-24v-24Z"></path></svg>