<?xml version="1.0" encoding="UTF-8"?><svg version="1.1" viewBox="0 0 24 24" xmlns="http://www.w3.org/2000/svg" xmlns:xlink="http://www.w3.org/1999/xlink"><!--Generated by IJSVG (https://github.com/iconjar/IJSVG)--><g fill="none"><path d="M0,0h24v24h-24Z"></path><path stroke="#323232" stroke-linecap="round" stroke-linejoin="round" stroke-width="1.5" d="M4.424,19.594v-2.387h2.389"></path><path stroke="#323232" stroke-linecap="round" stroke-linejoin="round" stroke-width="1.5" d="M12,15.412c0.168,0 0.305,0.132 0.305,0.294c0,0.162 -0.137,0.294 -0.305,0.294c-0.168,0 -0.305,-0.132 -0.305,-0.294c0,-0.162 0.137,-0.294 0.305,-0.294"></path><path stroke="#323232" stroke-linecap="round" stroke-linejoin="round" stroke-width="1.5" d="M16.875,10.081c-2.843,-2.219 -6.907,-2.219 -9.75,0"></path><path stroke="#323232" stroke-linecap="round" stroke-linejoin="round" stroke-width="1.5" d="M9.157,12.92c1.658,-1.293 4.028,-1.293 5.687,0"></path><path stroke="#323232" stroke-linecap="round" stroke-linejoin="round" stroke-width="1.5" d="M4.668,17.207c1.631,2.293 4.304,3.793 7.332,3.793c4.971,0 9,-4.029 9,-9c0,-4.971 -4.029,-9 -9,-9c-4.971,0 -9,4.029 -9,9c0,0.539 0.056,1.064 0.147,1.576"></path></g></svg>