<?xml version="1.0" encoding="UTF-8"?><svg version="1.1" viewBox="0 0 24 24" xmlns="http://www.w3.org/2000/svg" xmlns:xlink="http://www.w3.org/1999/xlink"><!--Generated by IJSVG (https://github.com/iconjar/IJSVG)--><g stroke-linecap="round" stroke-width="1.5" stroke="#323232" fill="none" stroke-linejoin="round"><path d="M4.393,12.496c1.834,-2.293 4.561,-3.753 7.611,-3.753c3.05,0 5.777,1.459 7.611,3.753"></path><path d="M7.538,15.845c1.019,-1.453 2.632,-2.407 4.466,-2.407c1.834,0 3.447,0.954 4.466,2.407"></path><path d="M13.475,19.035l7.988,-8.507c0.77,-0.82 0.709,-2.111 -0.125,-2.866c-2.517,-2.28 -5.771,-3.662 -9.334,-3.662c-3.563,0 -6.817,1.382 -9.334,3.662c-0.834,0.755 -0.895,2.046 -0.125,2.866l7.988,8.508c0.809,0.86 2.133,0.86 2.942,-0.001Z"></path></g><path fill="none" d="M0,0h24v24h-24v-24Z"></path></svg>