<?xml version="1.0" encoding="UTF-8"?><svg version="1.1" viewBox="0 0 24 24" xmlns="http://www.w3.org/2000/svg" xmlns:xlink="http://www.w3.org/1999/xlink"><!--Generated by IJSVG (https://github.com/iconjar/IJSVG)--><g fill="none"><path d="M0,0h24v24h-24v-24Z"></path><path stroke="#323232" stroke-linecap="round" stroke-linejoin="round" stroke-width="1.5" d="M11.999,19.25c-0.207,0 -0.375,0.168 -0.373,0.375c-0.001,0.207 0.167,0.375 0.374,0.375c0.207,0 0.375,-0.168 0.375,-0.375c0,-0.207 -0.168,-0.375 -0.376,-0.375"></path><path stroke="#323232" stroke-linecap="round" stroke-linejoin="round" stroke-width="1.5" d="M6,20l13,-17"></path><path stroke="#323232" stroke-linecap="round" stroke-linejoin="round" stroke-width="1.5" d="M14.116,9.387c-3.335,-0.628 -6.937,0.24 -9.525,2.613"></path><path stroke="#323232" stroke-linecap="round" stroke-linejoin="round" stroke-width="1.5" d="M17.514,4.944c-5.31,-1.891 -11.616,-0.938 -15.92,2.86"></path><path stroke="#323232" stroke-linecap="round" stroke-linejoin="round" stroke-width="1.5" d="M17.267,10.497c0.765,0.405 1.487,0.902 2.141,1.503"></path><path stroke="#323232" stroke-linecap="round" stroke-linejoin="round" stroke-width="1.5" d="M20.421,6.372c0.693,0.425 1.366,0.887 1.985,1.432"></path><path stroke="#323232" stroke-linecap="round" stroke-linejoin="round" stroke-width="1.5" d="M14.262,14.427c0.786,0.301 1.524,0.764 2.158,1.394"></path></g></svg>