<?xml version="1.0" encoding="UTF-8"?><svg version="1.1" viewBox="0 0 24 24" xmlns="http://www.w3.org/2000/svg" xmlns:xlink="http://www.w3.org/1999/xlink"><!--Generated by IJSVG (https://github.com/iconjar/IJSVG)--><g stroke-linecap="round" stroke-width="1.5" stroke="#323232" fill="none" stroke-linejoin="round"><path d="M1.594,7.804c5.747,-5.072 15.065,-5.072 20.812,0"></path><path d="M14.4,11.9c0,-1.325 -1.075,-2.4 -2.4,-2.4c-1.325,0 -2.4,1.075 -2.4,2.4"></path><path d="M14.4,11.9c0,0.96 -0.594,1.48 -1.187,1.88"></path><path d="M12,15.7c0,-0.98 0.606,-1.511 1.213,-1.92"></path><path d="M12,15.7v0.3"></path><path d="M19.409,12c-0.729,-0.668 -1.546,-1.197 -2.409,-1.621"></path><path d="M7,10.379c-0.863,0.424 -1.68,0.953 -2.409,1.621"></path><path d="M16,15.463c0.142,0.116 0.288,0.225 0.42,0.358"></path><path d="M8,15.463c-0.142,0.116 -0.288,0.225 -0.421,0.358"></path><path d="M11.999,19.25c-0.138,0 -0.25,0.112 -0.249,0.25c0,0.138 0.112,0.25 0.25,0.25c0.138,0 0.25,-0.112 0.25,-0.25c0,-0.138 -0.112,-0.25 -0.251,-0.25"></path></g><path fill="none" d="M0,0h24v24h-24Z"></path></svg>