<?xml version="1.0" encoding="UTF-8"?><svg version="1.1" viewBox="0 0 24 24" xmlns="http://www.w3.org/2000/svg" xmlns:xlink="http://www.w3.org/1999/xlink"><!--Generated by IJSVG (https://github.com/iconjar/IJSVG)--><g stroke-linecap="round" stroke-width="1.5" stroke="#323232" fill="none" stroke-linejoin="round"><path d="M5.398,5.898c-1.484,1.605 -2.398,3.744 -2.398,6.102c0,2.358 0.914,4.497 2.398,6.102"></path><path d="M7.519,8.019c-0.942,1.06 -1.519,2.451 -1.519,3.981c0,1.53 0.577,2.921 1.519,3.981"></path><path d="M12.406,9.041c1.329,0.182 2.372,1.224 2.553,2.553"></path><path d="M7.549,4.184c1.314,-0.75 2.83,-1.184 4.451,-1.184c4.971,0 9,4.029 9,9c0,1.621 -0.434,3.137 -1.184,4.451"></path><path d="M17.575,14.21c0.271,-0.685 0.425,-1.429 0.425,-2.21c0,-3.314 -2.686,-6 -6,-6c-0.781,0 -1.525,0.154 -2.21,0.425"></path><path d="M9.654,10.154c-0.927,1.177 -0.861,2.882 0.225,3.967c1.086,1.085 2.79,1.152 3.967,0.225"></path><path d="M20,20.5l-17,-17"></path></g><path fill="none" d="M0,0h24v24h-24Z"></path></svg>